%TF.GenerationSoftware,KiCad,Pcbnew,(5.0.1-3-g963ef8bb5)*%
%TF.CreationDate,2019-01-11T00:28:31-08:00*%
%TF.ProjectId,vga_i2c,7667615F6932632E6B696361645F7063,rev?*%
%TF.SameCoordinates,Original*%
%TF.FileFunction,Copper,L1,Top,Signal*%
%TF.FilePolarity,Positive*%
%FSLAX46Y46*%
G04 Gerber Fmt 4.6, Leading zero omitted, Abs format (unit mm)*
G04 Created by KiCad (PCBNEW (5.0.1-3-g963ef8bb5)) date Friday, January 11, 2019 at 12:28:31 AM*
%MOMM*%
%LPD*%
G01*
G04 APERTURE LIST*
%ADD10O,1.700000X1.700000*%
%ADD11R,1.700000X1.700000*%
%ADD12C,4.216000*%
%ADD13C,1.408000*%
%ADD14R,1.408000X1.408000*%
%ADD15R,1.447800X1.447800*%
%ADD16C,1.447800*%
%ADD17C,2.000000*%
%ADD18R,1.200000X0.900000*%
%ADD19R,2.000000X0.600000*%
%ADD20R,1.200000X0.750000*%
%ADD21R,1.500000X1.300000*%
%ADD22R,0.900000X1.200000*%
%ADD23C,1.371600*%
%ADD24C,0.685800*%
%ADD25C,0.304800*%
%ADD26C,0.152400*%
G04 APERTURE END LIST*
D10*
X95313500Y-68326000D03*
X95313500Y-70866000D03*
X95313500Y-73406000D03*
X95313500Y-75946000D03*
X95313500Y-78486000D03*
X95313500Y-81026000D03*
X95313500Y-83566000D03*
X95313500Y-86106000D03*
D11*
X95313500Y-88646000D03*
D12*
X114247400Y-95961200D03*
X89257400Y-95961200D03*
D13*
X105907400Y-97231200D03*
X103137400Y-97231200D03*
X100367400Y-97231200D03*
X97597400Y-97231200D03*
X107292400Y-94691200D03*
X104522400Y-94691200D03*
X101752400Y-94691200D03*
X98982400Y-94691200D03*
D14*
X96212400Y-94691200D03*
X60500000Y-94742000D03*
D13*
X63270000Y-94742000D03*
X66040000Y-94742000D03*
X68810000Y-94742000D03*
X71580000Y-94742000D03*
X61885000Y-97282000D03*
X64655000Y-97282000D03*
X67425000Y-97282000D03*
X70195000Y-97282000D03*
D12*
X53545000Y-96012000D03*
X78535000Y-96012000D03*
D15*
X108585000Y-73850500D03*
D16*
X108585000Y-71564500D03*
X108585000Y-69278500D03*
X108585000Y-66992500D03*
X108585000Y-64706500D03*
X111125000Y-74993500D03*
X111125000Y-72707500D03*
X111125000Y-70421500D03*
X111125000Y-68135500D03*
X111125000Y-65849500D03*
X113665000Y-73850500D03*
X113665000Y-71564500D03*
X113665000Y-69278500D03*
X113665000Y-66992500D03*
X113665000Y-64706500D03*
D17*
X85498800Y-60045600D03*
X85498800Y-55545600D03*
X91998800Y-60045600D03*
X91998800Y-55545600D03*
D10*
X66548000Y-77343000D03*
X66548000Y-79883000D03*
X66548000Y-82423000D03*
X66548000Y-84963000D03*
X66548000Y-87503000D03*
D11*
X66548000Y-90043000D03*
D10*
X59486800Y-87376000D03*
X59486800Y-89916000D03*
X56946800Y-87376000D03*
X56946800Y-89916000D03*
X54406800Y-87376000D03*
X54406800Y-89916000D03*
X51866800Y-87376000D03*
D11*
X51866800Y-89916000D03*
D18*
X84902400Y-103886000D03*
X82702400Y-103886000D03*
X82737600Y-100838000D03*
X84937600Y-100838000D03*
X84902400Y-99314000D03*
X82702400Y-99314000D03*
X82702400Y-97790000D03*
X84902400Y-97790000D03*
X84920000Y-102362000D03*
X82720000Y-102362000D03*
X77538400Y-62585600D03*
X79738400Y-62585600D03*
D19*
X88774000Y-68072000D03*
X88774000Y-69342000D03*
X88774000Y-70612000D03*
X88774000Y-71882000D03*
X88774000Y-73152000D03*
X88774000Y-74422000D03*
X88774000Y-75692000D03*
X88774000Y-76962000D03*
X88774000Y-78232000D03*
X88774000Y-79502000D03*
X88774000Y-80772000D03*
X88774000Y-82042000D03*
X88774000Y-83312000D03*
X88774000Y-84582000D03*
X79374000Y-84582000D03*
X79374000Y-83312000D03*
X79374000Y-82042000D03*
X79374000Y-80772000D03*
X79374000Y-79502000D03*
X79374000Y-78232000D03*
X79374000Y-76962000D03*
X79374000Y-75692000D03*
X79374000Y-74422000D03*
X79374000Y-73152000D03*
X79374000Y-71882000D03*
X79374000Y-70612000D03*
X79374000Y-69342000D03*
X79374000Y-68072000D03*
D20*
X81595000Y-87312500D03*
X79695000Y-87312500D03*
X85029000Y-87249000D03*
X86929000Y-87249000D03*
D21*
X107315000Y-89535000D03*
X104615000Y-89535000D03*
X107297200Y-87020400D03*
X104597200Y-87020400D03*
D16*
X53848000Y-64706500D03*
X53848000Y-66992500D03*
X53848000Y-69278500D03*
X53848000Y-71564500D03*
X53848000Y-73850500D03*
X56388000Y-65849500D03*
X56388000Y-68135500D03*
X56388000Y-70421500D03*
X56388000Y-72707500D03*
X56388000Y-74993500D03*
X58928000Y-64706500D03*
X58928000Y-66992500D03*
X58928000Y-69278500D03*
X58928000Y-71564500D03*
D15*
X58928000Y-73850500D03*
D22*
X64008000Y-86344400D03*
X64008000Y-88544400D03*
X62230000Y-88610800D03*
X62230000Y-86410800D03*
D18*
X87249000Y-88963500D03*
X85049000Y-88963500D03*
X112839500Y-89408000D03*
X110639500Y-89408000D03*
X112712500Y-86995000D03*
X110512500Y-86995000D03*
X70104000Y-62636400D03*
X67904000Y-62636400D03*
X97536000Y-62420500D03*
X99736000Y-62420500D03*
X90106500Y-62420500D03*
X87906500Y-62420500D03*
X98044000Y-78536800D03*
X100244000Y-78536800D03*
X98044000Y-83566000D03*
X100244000Y-83566000D03*
X98044000Y-86207600D03*
X100244000Y-86207600D03*
X98044000Y-88595200D03*
X100244000Y-88595200D03*
X98044000Y-81026000D03*
X100244000Y-81026000D03*
D17*
X72186800Y-55545600D03*
X72186800Y-60045600D03*
X65686800Y-55545600D03*
X65686800Y-60045600D03*
X82245200Y-55545600D03*
X82245200Y-60045600D03*
X75745200Y-55545600D03*
X75745200Y-60045600D03*
X101854000Y-55545600D03*
X101854000Y-60045600D03*
X95354000Y-55545600D03*
X95354000Y-60045600D03*
D10*
X73850500Y-88646000D03*
X73850500Y-86106000D03*
X73850500Y-83566000D03*
X73850500Y-81026000D03*
X73850500Y-78486000D03*
X73850500Y-75946000D03*
X73850500Y-73406000D03*
X73850500Y-70866000D03*
D11*
X73850500Y-68326000D03*
D23*
X79705200Y-89154000D03*
X112877600Y-91338400D03*
X77063600Y-80264000D03*
X86156800Y-83718400D03*
X61874400Y-62534800D03*
X105460800Y-62585600D03*
X81940400Y-78130400D03*
X81940400Y-62585600D03*
X98247200Y-75895200D03*
D24*
X52882800Y-77571600D03*
X108102400Y-77012800D03*
X76758800Y-82245200D03*
X60565401Y-80072601D03*
X71475600Y-82245200D03*
X57607200Y-95351600D03*
X81280000Y-69443600D03*
X69189600Y-77266800D03*
X70561200Y-68783200D03*
X70205600Y-72593200D03*
X69623688Y-76024488D03*
X68630800Y-78486000D03*
X71348601Y-80619600D03*
X84023200Y-78028800D03*
X89814400Y-90373200D03*
D25*
X88774000Y-82042000D02*
X88774000Y-83312000D01*
X88774000Y-84582000D02*
X88774000Y-83312000D01*
X88074000Y-84582000D02*
X88774000Y-84582000D01*
X86929000Y-85727000D02*
X88074000Y-84582000D01*
X86929000Y-87249000D02*
X86929000Y-85727000D01*
X86929000Y-87249000D02*
X86704000Y-87249000D01*
X112712500Y-89281000D02*
X112839500Y-89408000D01*
X112712500Y-86995000D02*
X112712500Y-89281000D01*
X112839500Y-89408000D02*
X112689500Y-89408000D01*
X109982000Y-64706500D02*
X108585000Y-64706500D01*
X111125000Y-65849500D02*
X109982000Y-64706500D01*
X79695000Y-89143800D02*
X79705200Y-89154000D01*
X79695000Y-87312500D02*
X79695000Y-89143800D01*
X112839500Y-91300300D02*
X112877600Y-91338400D01*
X112839500Y-89408000D02*
X112839500Y-91300300D01*
X77825600Y-79502000D02*
X77063600Y-80264000D01*
X79374000Y-79502000D02*
X77825600Y-79502000D01*
X87020400Y-84582000D02*
X86156800Y-83718400D01*
X88774000Y-84582000D02*
X87020400Y-84582000D01*
X81658500Y-87249000D02*
X81595000Y-87312500D01*
X85029000Y-87249000D02*
X81658500Y-87249000D01*
X80074000Y-78232000D02*
X79374000Y-78232000D01*
X81595000Y-79753000D02*
X80074000Y-78232000D01*
X85029000Y-88943500D02*
X85049000Y-88963500D01*
X85029000Y-87249000D02*
X85029000Y-88943500D01*
X84518500Y-88963500D02*
X85049000Y-88963500D01*
X84858500Y-89154000D02*
X85049000Y-88963500D01*
X65393200Y-90043000D02*
X66548000Y-90043000D01*
X64655000Y-90781200D02*
X65393200Y-90043000D01*
X64655000Y-97282000D02*
X64655000Y-90781200D01*
X100244000Y-78536800D02*
X100244000Y-81026000D01*
X100244000Y-81026000D02*
X100244000Y-83566000D01*
X100244000Y-83566000D02*
X100244000Y-86207600D01*
X100244000Y-86207600D02*
X100244000Y-88595200D01*
X84902400Y-102379600D02*
X84920000Y-102362000D01*
X84902400Y-103886000D02*
X84902400Y-102379600D01*
X84920000Y-100855600D02*
X84937600Y-100838000D01*
X84920000Y-102362000D02*
X84920000Y-100855600D01*
X84937600Y-99349200D02*
X84902400Y-99314000D01*
X84937600Y-100838000D02*
X84937600Y-99349200D01*
X84902400Y-99314000D02*
X84902400Y-97790000D01*
X64008000Y-88188800D02*
X62230000Y-86410800D01*
X64008000Y-88544400D02*
X64008000Y-88188800D01*
X64655000Y-90096200D02*
X64655000Y-90781200D01*
X64008000Y-89449200D02*
X64655000Y-90096200D01*
X64008000Y-88544400D02*
X64008000Y-89449200D01*
X79682658Y-85801200D02*
X81595000Y-85801200D01*
X81595000Y-85801200D02*
X81595000Y-79753000D01*
X75440858Y-90043000D02*
X79682658Y-85801200D01*
X66548000Y-90043000D02*
X75440858Y-90043000D01*
X81595000Y-87312500D02*
X81595000Y-85801200D01*
X67802400Y-62534800D02*
X67904000Y-62636400D01*
X61874400Y-62534800D02*
X67802400Y-62534800D01*
X79588400Y-62585600D02*
X79738400Y-62585600D01*
X78782800Y-63391200D02*
X79588400Y-62585600D01*
X68808800Y-63391200D02*
X78782800Y-63391200D01*
X68054000Y-62636400D02*
X68808800Y-63391200D01*
X67904000Y-62636400D02*
X68054000Y-62636400D01*
X87741400Y-62585600D02*
X87906500Y-62420500D01*
X99586000Y-62420500D02*
X99736000Y-62420500D01*
X98831200Y-63175300D02*
X99586000Y-62420500D01*
X88811301Y-63175301D02*
X98831200Y-63175300D01*
X88056500Y-62420500D02*
X88811301Y-63175301D01*
X87906500Y-62420500D02*
X88056500Y-62420500D01*
X105295700Y-62420500D02*
X105460800Y-62585600D01*
X99736000Y-62420500D02*
X105295700Y-62420500D01*
X85049000Y-97643400D02*
X84902400Y-97790000D01*
X85049000Y-88963500D02*
X85049000Y-97643400D01*
X100244000Y-97107800D02*
X100367400Y-97231200D01*
X100244000Y-88595200D02*
X100244000Y-97107800D01*
X81838800Y-78232000D02*
X81940400Y-78130400D01*
X79374000Y-78232000D02*
X81838800Y-78232000D01*
X81940400Y-62585600D02*
X87741400Y-62585600D01*
X79738400Y-62585600D02*
X81940400Y-62585600D01*
X98247200Y-76690000D02*
X98247200Y-75895200D01*
X100094000Y-78536800D02*
X98247200Y-76690000D01*
X100244000Y-78536800D02*
X100094000Y-78536800D01*
D26*
X52895499Y-65659001D02*
X53848000Y-64706500D01*
X52895499Y-69735701D02*
X52895499Y-65659001D01*
X53390799Y-70231001D02*
X52895499Y-69735701D01*
X53924203Y-70231001D02*
X53390799Y-70231001D01*
X55105311Y-71412109D02*
X53924203Y-70231001D01*
X55105311Y-75120513D02*
X55105311Y-71412109D01*
X59486800Y-79502002D02*
X55105311Y-75120513D01*
X59486800Y-87376000D02*
X59486800Y-79502002D01*
X113665000Y-66992500D02*
X110553500Y-66992500D01*
X109600999Y-66039999D02*
X108267499Y-66039999D01*
X110553500Y-66992500D02*
X109600999Y-66039999D01*
X108267499Y-66039999D02*
X106172000Y-63944500D01*
X56654702Y-66992500D02*
X53848000Y-66992500D01*
X57607203Y-66039999D02*
X56654702Y-66992500D01*
X61099702Y-63944500D02*
X59004203Y-66039999D01*
X59004203Y-66039999D02*
X57607203Y-66039999D01*
X106172000Y-63944500D02*
X61099702Y-63944500D01*
X109042201Y-67945001D02*
X110375700Y-69278500D01*
X107505500Y-67322702D02*
X108127799Y-67945001D01*
X63055500Y-64262000D02*
X106045000Y-64262000D01*
X108127799Y-67945001D02*
X109042201Y-67945001D01*
X106045000Y-64262000D02*
X107505500Y-65722500D01*
X62153810Y-65163690D02*
X63055500Y-64262000D01*
X62153810Y-65176392D02*
X62153810Y-65163690D01*
X57607203Y-68325999D02*
X59004203Y-68325999D01*
X110375700Y-69278500D02*
X113665000Y-69278500D01*
X107505500Y-65722500D02*
X107505500Y-67322702D01*
X59004203Y-68325999D02*
X62153810Y-65176392D01*
X56654702Y-69278500D02*
X57607203Y-68325999D01*
X53848000Y-69278500D02*
X56654702Y-69278500D01*
X54800501Y-72517001D02*
X54800501Y-76161899D01*
X53848000Y-71564500D02*
X54800501Y-72517001D01*
X54800501Y-76161899D02*
X53848000Y-77114400D01*
X53848000Y-84277200D02*
X56946800Y-87376000D01*
X53848000Y-77114400D02*
X53848000Y-84277200D01*
X51866800Y-75831700D02*
X51866800Y-87376000D01*
X53848000Y-73850500D02*
X51866800Y-75831700D01*
X111125000Y-70421500D02*
X108318298Y-70421500D01*
X106870500Y-65976500D02*
X105765620Y-64871620D01*
X106870500Y-68973702D02*
X106870500Y-65976500D01*
X108318298Y-70421500D02*
X106870500Y-68973702D01*
X62992000Y-66586120D02*
X64706500Y-64871620D01*
X60134500Y-69469000D02*
X62992000Y-66611500D01*
X60134500Y-69481702D02*
X60134500Y-69469000D01*
X105765620Y-64871620D02*
X64706500Y-64871620D01*
X56388000Y-70421500D02*
X59194702Y-70421500D01*
X62992000Y-66611500D02*
X62992000Y-66586120D01*
X59194702Y-70421500D02*
X60134500Y-69481702D01*
X59194702Y-72707500D02*
X66420962Y-65481240D01*
X56388000Y-72707500D02*
X59194702Y-72707500D01*
X66420962Y-65481240D02*
X105499674Y-65481240D01*
X105499674Y-65481240D02*
X105499674Y-65494674D01*
X105499674Y-65494674D02*
X106235500Y-66230500D01*
X108318298Y-72707500D02*
X111125000Y-72707500D01*
X106235500Y-70624702D02*
X108318298Y-72707500D01*
X106235500Y-66230500D02*
X106235500Y-70624702D01*
X107868718Y-74993500D02*
X111125000Y-74993500D01*
X105600500Y-72725282D02*
X107868718Y-74993500D01*
X105220294Y-66104294D02*
X105600500Y-66484500D01*
X105600500Y-66484500D02*
X105600500Y-72725282D01*
X59644282Y-74993500D02*
X68546922Y-66090860D01*
X68546922Y-66090860D02*
X105220294Y-66090860D01*
X105220294Y-66090860D02*
X105220294Y-66104294D01*
X56388000Y-74993500D02*
X59644282Y-74993500D01*
X54406800Y-87376000D02*
X52832000Y-85801200D01*
X52832000Y-85801200D02*
X52832000Y-77622400D01*
X52832000Y-77622400D02*
X52882800Y-77571600D01*
X107188000Y-67881500D02*
X108585000Y-69278500D01*
X105905310Y-64566810D02*
X107188000Y-65849500D01*
X63639690Y-64566810D02*
X105905310Y-64566810D01*
X107188000Y-65849500D02*
X107188000Y-67881500D01*
X58928000Y-69278500D02*
X63639690Y-64566810D01*
X105625930Y-65176430D02*
X106553000Y-66103500D01*
X106553000Y-69532500D02*
X108585000Y-71564500D01*
X106553000Y-66103500D02*
X106553000Y-69532500D01*
X63944500Y-66548000D02*
X63969930Y-66548000D01*
X58928000Y-71564500D02*
X63944500Y-66548000D01*
X63969930Y-66548000D02*
X65341500Y-65176430D01*
X65341500Y-65176430D02*
X105625930Y-65176430D01*
X58928000Y-73850500D02*
X59804300Y-73850500D01*
X59804300Y-73850500D02*
X67868750Y-65786050D01*
X67868750Y-65786050D02*
X105359984Y-65786050D01*
X105359984Y-65786050D02*
X105359984Y-65799484D01*
X105359984Y-65799484D02*
X105930690Y-66370190D01*
X105930690Y-66370190D02*
X105918000Y-66382880D01*
X107708700Y-73850500D02*
X108585000Y-73850500D01*
X105918000Y-72059800D02*
X107708700Y-73850500D01*
X105918000Y-66382880D02*
X105918000Y-72059800D01*
X55256799Y-89066001D02*
X54406800Y-89916000D01*
X55485401Y-88837399D02*
X55256799Y-89066001D01*
X57464529Y-88837399D02*
X55485401Y-88837399D01*
X58025401Y-89398271D02*
X57464529Y-88837399D01*
X65887600Y-106019600D02*
X59385201Y-99517199D01*
X59385201Y-93827601D02*
X58025401Y-92467801D01*
X58025401Y-92467801D02*
X58025401Y-89398271D01*
X59385201Y-99517199D02*
X59385201Y-93827601D01*
X117754400Y-106019600D02*
X65887600Y-106019600D01*
X118617990Y-85242390D02*
X118617990Y-105156010D01*
X118617990Y-105156010D02*
X117754400Y-106019600D01*
X110388400Y-77012800D02*
X118617990Y-85242390D01*
X108102400Y-77012800D02*
X110388400Y-77012800D01*
X78674000Y-83312000D02*
X79374000Y-83312000D01*
X74801399Y-87184601D02*
X78674000Y-83312000D01*
X71309601Y-87184601D02*
X74801399Y-87184601D01*
X67335400Y-83210400D02*
X71309601Y-87184601D01*
X67397999Y-83272999D02*
X67335400Y-83210400D01*
X67335400Y-83210400D02*
X66548000Y-82423000D01*
X64008000Y-84963000D02*
X66548000Y-82423000D01*
X64008000Y-86344400D02*
X64008000Y-84963000D01*
X56946800Y-97993200D02*
X56946800Y-89916000D01*
X65735200Y-106781600D02*
X56946800Y-97993200D01*
X119201466Y-105791734D02*
X118211600Y-106781600D01*
X119227600Y-105791734D02*
X119201466Y-105791734D01*
X119227600Y-84683600D02*
X119227600Y-105791734D01*
X118211600Y-106781600D02*
X65735200Y-106781600D01*
X113665000Y-71564500D02*
X114617501Y-72517001D01*
X114617501Y-80073501D02*
X119227600Y-84683600D01*
X114617501Y-72517001D02*
X114617501Y-80073501D01*
X79170800Y-82245200D02*
X79374000Y-82042000D01*
X76758800Y-82245200D02*
X79170800Y-82245200D01*
X60565401Y-88837399D02*
X60565401Y-80072601D01*
X59486800Y-89916000D02*
X60565401Y-88837399D01*
X69113400Y-79883000D02*
X71475600Y-82245200D01*
X66548000Y-79883000D02*
X69113400Y-79883000D01*
X60792000Y-88610800D02*
X62230000Y-88610800D01*
X60565401Y-88837399D02*
X60792000Y-88610800D01*
X114922311Y-65963811D02*
X114922311Y-79768711D01*
X113665000Y-64706500D02*
X114922311Y-65963811D01*
X114922311Y-79768711D02*
X119532400Y-84378800D01*
X119532400Y-84378800D02*
X119532400Y-105918000D01*
X119532400Y-105918000D02*
X118364000Y-107086400D01*
X56641990Y-98297990D02*
X65430400Y-107086400D01*
X53328199Y-90433729D02*
X56641990Y-93747520D01*
X53328199Y-89398271D02*
X53328199Y-90433729D01*
X58103390Y-88532590D02*
X54193880Y-88532590D01*
X56641990Y-93747520D02*
X56641990Y-98297990D01*
X54193880Y-88532590D02*
X53328199Y-89398271D01*
X59486800Y-89916000D02*
X58103390Y-88532590D01*
X118364000Y-107086400D02*
X65430400Y-107086400D01*
X89474000Y-71882000D02*
X94463501Y-76871501D01*
X94463501Y-77636001D02*
X95313500Y-78486000D01*
X94463501Y-76871501D02*
X94463501Y-77636001D01*
X88774000Y-71882000D02*
X89474000Y-71882000D01*
X97993200Y-78486000D02*
X98044000Y-78536800D01*
X95313500Y-78486000D02*
X97993200Y-78486000D01*
X89474000Y-74422000D02*
X93930089Y-78878089D01*
X94463501Y-82716001D02*
X95313500Y-83566000D01*
X93930089Y-82182589D02*
X94463501Y-82716001D01*
X93930089Y-78878089D02*
X93930089Y-82182589D01*
X88774000Y-74422000D02*
X89474000Y-74422000D01*
X95313500Y-83566000D02*
X98044000Y-83566000D01*
X94463501Y-85256001D02*
X95313500Y-86106000D01*
X93625279Y-84417779D02*
X94463501Y-85256001D01*
X93625279Y-79843279D02*
X93625279Y-84417779D01*
X89474000Y-75692000D02*
X93625279Y-79843279D01*
X88774000Y-75692000D02*
X89474000Y-75692000D01*
X95415100Y-86207600D02*
X95313500Y-86106000D01*
X98044000Y-86207600D02*
X95415100Y-86207600D01*
X95313500Y-87643600D02*
X95313500Y-88646000D01*
X93320469Y-85650569D02*
X95313500Y-87643600D01*
X93320469Y-80808469D02*
X93320469Y-85650569D01*
X89474000Y-76962000D02*
X93320469Y-80808469D01*
X88774000Y-76962000D02*
X89474000Y-76962000D01*
X97993200Y-88646000D02*
X98044000Y-88595200D01*
X95313500Y-88646000D02*
X97993200Y-88646000D01*
X94463501Y-80176001D02*
X95313500Y-81026000D01*
X94234899Y-79947399D02*
X94463501Y-80176001D01*
X94234899Y-77912899D02*
X94234899Y-79947399D01*
X89474000Y-73152000D02*
X94234899Y-77912899D01*
X88774000Y-73152000D02*
X89474000Y-73152000D01*
X98044000Y-81026000D02*
X95313500Y-81026000D01*
X113665000Y-73850500D02*
X113665000Y-79629000D01*
X115925600Y-81889600D02*
X118922800Y-84886800D01*
X113665000Y-79629000D02*
X115925600Y-81889600D01*
X115925600Y-81889600D02*
X116027200Y-81991200D01*
X118922800Y-84886800D02*
X118922800Y-105460800D01*
X118922800Y-105460800D02*
X117957600Y-106426000D01*
X117957600Y-106426000D02*
X65862934Y-106426000D01*
X59080391Y-99643457D02*
X59080391Y-96824791D01*
X65862934Y-106426000D02*
X59080391Y-99643457D01*
X59080391Y-96824791D02*
X57607200Y-95351600D01*
X89474000Y-80772000D02*
X88774000Y-80772000D01*
X90002601Y-81300601D02*
X89474000Y-80772000D01*
X90002601Y-86359899D02*
X90002601Y-81300601D01*
X87399000Y-88963500D02*
X90002601Y-86359899D01*
X87249000Y-88963500D02*
X87399000Y-88963500D01*
X75233911Y-82182589D02*
X74700499Y-82716001D01*
X75233911Y-79132089D02*
X75233911Y-82182589D01*
X78674000Y-75692000D02*
X75233911Y-79132089D01*
X79374000Y-75692000D02*
X78674000Y-75692000D01*
X74700499Y-82716001D02*
X73850500Y-83566000D01*
X80074000Y-75692000D02*
X79374000Y-75692000D01*
X81280000Y-74486000D02*
X80074000Y-75692000D01*
X81280000Y-69443600D02*
X81280000Y-74486000D01*
X75745200Y-60045600D02*
X82245200Y-60045600D01*
X77538400Y-61838800D02*
X77538400Y-62585600D01*
X75745200Y-60045600D02*
X77538400Y-61838800D01*
X77914500Y-71882000D02*
X73850500Y-75946000D01*
X79374000Y-71882000D02*
X77914500Y-71882000D01*
X70510400Y-75946000D02*
X73850500Y-75946000D01*
X69189600Y-77266800D02*
X70510400Y-75946000D01*
X66965000Y-102362000D02*
X61885000Y-97282000D01*
X82720000Y-102362000D02*
X66965000Y-102362000D01*
X74104500Y-68072000D02*
X73850500Y-68326000D01*
X79374000Y-68072000D02*
X74104500Y-68072000D01*
X71018400Y-68326000D02*
X70561200Y-68783200D01*
X73850500Y-68326000D02*
X71018400Y-68326000D01*
X69805606Y-94742000D02*
X68810000Y-94742000D01*
X73412207Y-98348601D02*
X69805606Y-94742000D01*
X81391399Y-98348601D02*
X73412207Y-98348601D01*
X81950000Y-97790000D02*
X81391399Y-98348601D01*
X82702400Y-97790000D02*
X81950000Y-97790000D01*
X75374500Y-69342000D02*
X73850500Y-70866000D01*
X79374000Y-69342000D02*
X75374500Y-69342000D01*
X72123300Y-72593200D02*
X73850500Y-70866000D01*
X70205600Y-72593200D02*
X72123300Y-72593200D01*
X66743999Y-95445999D02*
X66040000Y-94742000D01*
X66978749Y-95445999D02*
X66743999Y-95445999D01*
X70846750Y-99314000D02*
X66978749Y-95445999D01*
X82702400Y-99314000D02*
X70846750Y-99314000D01*
X76644500Y-70612000D02*
X73850500Y-73406000D01*
X79374000Y-70612000D02*
X76644500Y-70612000D01*
X69623688Y-75986890D02*
X69623688Y-76024488D01*
X72204578Y-73406000D02*
X69623688Y-75986890D01*
X73850500Y-73406000D02*
X72204578Y-73406000D01*
X63270000Y-97277250D02*
X63270000Y-94742000D01*
X66830750Y-100838000D02*
X63270000Y-97277250D01*
X82737600Y-100838000D02*
X66830750Y-100838000D01*
X74700499Y-77636001D02*
X73850500Y-78486000D01*
X74700499Y-77125501D02*
X74700499Y-77636001D01*
X78674000Y-73152000D02*
X74700499Y-77125501D01*
X79374000Y-73152000D02*
X78674000Y-73152000D01*
X73850500Y-78486000D02*
X68630800Y-78486000D01*
X60500000Y-97277250D02*
X60500000Y-94742000D01*
X67108750Y-103886000D02*
X60500000Y-97277250D01*
X82702400Y-103886000D02*
X67108750Y-103886000D01*
X110512500Y-89535000D02*
X110639500Y-89408000D01*
X107315000Y-89535000D02*
X110512500Y-89535000D01*
X107442000Y-86995000D02*
X110512500Y-86995000D01*
X74700499Y-80176001D02*
X73850500Y-81026000D01*
X74929101Y-79947399D02*
X74700499Y-80176001D01*
X74929101Y-78166899D02*
X74929101Y-79947399D01*
X78674000Y-74422000D02*
X74929101Y-78166899D01*
X79374000Y-74422000D02*
X78674000Y-74422000D01*
X73444100Y-80619600D02*
X73850500Y-81026000D01*
X71348601Y-80619600D02*
X73444100Y-80619600D01*
X65686800Y-60045600D02*
X72186800Y-60045600D01*
X70104000Y-62128400D02*
X70104000Y-62636400D01*
X72186800Y-60045600D02*
X70104000Y-62128400D01*
X89979500Y-70612000D02*
X95313500Y-75946000D01*
X88774000Y-70612000D02*
X89979500Y-70612000D01*
X101854000Y-60045600D02*
X95354000Y-60045600D01*
X97536000Y-62227600D02*
X97536000Y-62420500D01*
X95354000Y-60045600D02*
X97536000Y-62227600D01*
X91249500Y-69342000D02*
X95313500Y-73406000D01*
X88774000Y-69342000D02*
X91249500Y-69342000D01*
X85498800Y-60045600D02*
X91998800Y-60045600D01*
X90106500Y-61937900D02*
X90106500Y-62420500D01*
X91998800Y-60045600D02*
X90106500Y-61937900D01*
X74700499Y-85256001D02*
X73850500Y-86106000D01*
X75538721Y-84417779D02*
X74700499Y-85256001D01*
X75538721Y-80097279D02*
X75538721Y-84417779D01*
X78674000Y-76962000D02*
X75538721Y-80097279D01*
X79374000Y-76962000D02*
X78674000Y-76962000D01*
X82956400Y-76962000D02*
X84023200Y-78028800D01*
X79374000Y-76962000D02*
X82956400Y-76962000D01*
X103712600Y-89535000D02*
X104615000Y-89535000D01*
X104615000Y-90337400D02*
X104615000Y-89535000D01*
X106359799Y-92082199D02*
X104615000Y-90337400D01*
X97129600Y-98856800D02*
X102892050Y-98856800D01*
X102892050Y-98856800D02*
X106359799Y-95389051D01*
X90157299Y-91884499D02*
X97129600Y-98856800D01*
X90157299Y-90716099D02*
X90157299Y-91884499D01*
X106359799Y-95389051D02*
X106359799Y-92082199D01*
X89814400Y-90373200D02*
X90157299Y-90716099D01*
X92519500Y-68072000D02*
X95313500Y-70866000D01*
X88774000Y-68072000D02*
X92519500Y-68072000D01*
X104742000Y-80294500D02*
X104742000Y-86995000D01*
X95313500Y-70866000D02*
X104742000Y-80294500D01*
M02*
