%TF.GenerationSoftware,KiCad,Pcbnew,(5.0.1-3-g963ef8bb5)*%
%TF.CreationDate,2019-01-11T00:28:31-08:00*%
%TF.ProjectId,vga_i2c,7667615F6932632E6B696361645F7063,rev?*%
%TF.SameCoordinates,Original*%
%TF.FileFunction,Copper,L2,Bot,Signal*%
%TF.FilePolarity,Positive*%
%FSLAX46Y46*%
G04 Gerber Fmt 4.6, Leading zero omitted, Abs format (unit mm)*
G04 Created by KiCad (PCBNEW (5.0.1-3-g963ef8bb5)) date Friday, January 11, 2019 at 12:28:31 AM*
%MOMM*%
%LPD*%
G01*
G04 APERTURE LIST*
%ADD10O,1.700000X1.700000*%
%ADD11R,1.700000X1.700000*%
%ADD12C,4.216000*%
%ADD13C,1.408000*%
%ADD14R,1.408000X1.408000*%
%ADD15R,1.447800X1.447800*%
%ADD16C,1.447800*%
%ADD17C,2.000000*%
%ADD18C,1.371600*%
%ADD19C,0.685800*%
%ADD20C,0.304800*%
%ADD21C,0.152400*%
%ADD22C,0.254000*%
G04 APERTURE END LIST*
D10*
X95313500Y-68326000D03*
X95313500Y-70866000D03*
X95313500Y-73406000D03*
X95313500Y-75946000D03*
X95313500Y-78486000D03*
X95313500Y-81026000D03*
X95313500Y-83566000D03*
X95313500Y-86106000D03*
D11*
X95313500Y-88646000D03*
D12*
X114247400Y-95961200D03*
X89257400Y-95961200D03*
D13*
X105907400Y-97231200D03*
X103137400Y-97231200D03*
X100367400Y-97231200D03*
X97597400Y-97231200D03*
X107292400Y-94691200D03*
X104522400Y-94691200D03*
X101752400Y-94691200D03*
X98982400Y-94691200D03*
D14*
X96212400Y-94691200D03*
X60500000Y-94742000D03*
D13*
X63270000Y-94742000D03*
X66040000Y-94742000D03*
X68810000Y-94742000D03*
X71580000Y-94742000D03*
X61885000Y-97282000D03*
X64655000Y-97282000D03*
X67425000Y-97282000D03*
X70195000Y-97282000D03*
D12*
X53545000Y-96012000D03*
X78535000Y-96012000D03*
D15*
X108585000Y-73850500D03*
D16*
X108585000Y-71564500D03*
X108585000Y-69278500D03*
X108585000Y-66992500D03*
X108585000Y-64706500D03*
X111125000Y-74993500D03*
X111125000Y-72707500D03*
X111125000Y-70421500D03*
X111125000Y-68135500D03*
X111125000Y-65849500D03*
X113665000Y-73850500D03*
X113665000Y-71564500D03*
X113665000Y-69278500D03*
X113665000Y-66992500D03*
X113665000Y-64706500D03*
D17*
X85498800Y-60045600D03*
X85498800Y-55545600D03*
X91998800Y-60045600D03*
X91998800Y-55545600D03*
D10*
X66548000Y-77343000D03*
X66548000Y-79883000D03*
X66548000Y-82423000D03*
X66548000Y-84963000D03*
X66548000Y-87503000D03*
D11*
X66548000Y-90043000D03*
D10*
X59486800Y-87376000D03*
X59486800Y-89916000D03*
X56946800Y-87376000D03*
X56946800Y-89916000D03*
X54406800Y-87376000D03*
X54406800Y-89916000D03*
X51866800Y-87376000D03*
D11*
X51866800Y-89916000D03*
D16*
X53848000Y-64706500D03*
X53848000Y-66992500D03*
X53848000Y-69278500D03*
X53848000Y-71564500D03*
X53848000Y-73850500D03*
X56388000Y-65849500D03*
X56388000Y-68135500D03*
X56388000Y-70421500D03*
X56388000Y-72707500D03*
X56388000Y-74993500D03*
X58928000Y-64706500D03*
X58928000Y-66992500D03*
X58928000Y-69278500D03*
X58928000Y-71564500D03*
D15*
X58928000Y-73850500D03*
D17*
X72186800Y-55545600D03*
X72186800Y-60045600D03*
X65686800Y-55545600D03*
X65686800Y-60045600D03*
X82245200Y-55545600D03*
X82245200Y-60045600D03*
X75745200Y-55545600D03*
X75745200Y-60045600D03*
X101854000Y-55545600D03*
X101854000Y-60045600D03*
X95354000Y-55545600D03*
X95354000Y-60045600D03*
D10*
X73850500Y-88646000D03*
X73850500Y-86106000D03*
X73850500Y-83566000D03*
X73850500Y-81026000D03*
X73850500Y-78486000D03*
X73850500Y-75946000D03*
X73850500Y-73406000D03*
X73850500Y-70866000D03*
D11*
X73850500Y-68326000D03*
D18*
X79705200Y-89154000D03*
X112877600Y-91338400D03*
X77063600Y-80264000D03*
X86156800Y-83718400D03*
X61874400Y-62534800D03*
X105460800Y-62585600D03*
X81940400Y-78130400D03*
X81940400Y-62585600D03*
X98247200Y-75895200D03*
D19*
X52882800Y-77571600D03*
X108102400Y-77012800D03*
X76758800Y-82245200D03*
X60565401Y-80072601D03*
X71475600Y-82245200D03*
X57607200Y-95351600D03*
X81280000Y-69443600D03*
X69189600Y-77266800D03*
X70561200Y-68783200D03*
X70205600Y-72593200D03*
X69623688Y-76024488D03*
X68630800Y-78486000D03*
X71348601Y-80619600D03*
X84023200Y-78028800D03*
X89814400Y-90373200D03*
D20*
X65686800Y-55545600D02*
X72186800Y-55545600D01*
X73601013Y-55545600D02*
X75745200Y-55545600D01*
X72186800Y-55545600D02*
X73601013Y-55545600D01*
X75745200Y-55545600D02*
X82245200Y-55545600D01*
X83659413Y-55545600D02*
X85498800Y-55545600D01*
X82245200Y-55545600D02*
X83659413Y-55545600D01*
X86913013Y-55545600D02*
X91998800Y-55545600D01*
X85498800Y-55545600D02*
X86913013Y-55545600D01*
X93413013Y-55545600D02*
X95354000Y-55545600D01*
X91998800Y-55545600D02*
X93413013Y-55545600D01*
X96768213Y-55545600D02*
X101854000Y-55545600D01*
X95354000Y-55545600D02*
X96768213Y-55545600D01*
X56388000Y-64825751D02*
X56388000Y-65849500D01*
X56388000Y-63430187D02*
X56388000Y-64825751D01*
X64272587Y-55545600D02*
X56388000Y-63430187D01*
X65686800Y-55545600D02*
X64272587Y-55545600D01*
X62865001Y-58367399D02*
X62865001Y-61036201D01*
X65686800Y-55545600D02*
X62865001Y-58367399D01*
X62865001Y-61036201D02*
X64058800Y-62230000D01*
X61582300Y-64706500D02*
X58928000Y-64706500D01*
X64058800Y-62230000D02*
X61582300Y-64706500D01*
X57111899Y-67411601D02*
X57111899Y-67286123D01*
X56388000Y-68135500D02*
X57111899Y-67411601D01*
X57899299Y-64212723D02*
X59526422Y-62585600D01*
X57899299Y-65860679D02*
X57899299Y-64212723D01*
X57111899Y-66648079D02*
X57899299Y-65860679D01*
X57111899Y-67411601D02*
X57111899Y-66648079D01*
X61823600Y-62585600D02*
X61874400Y-62534800D01*
X59526422Y-62585600D02*
X61823600Y-62585600D01*
X110401101Y-67411601D02*
X111125000Y-68135500D01*
X110401101Y-67286123D02*
X110401101Y-67411601D01*
X109078777Y-65963799D02*
X110401101Y-67286123D01*
X107869132Y-65963799D02*
X109078777Y-65963799D01*
X105460800Y-63555467D02*
X107869132Y-65963799D01*
X105460800Y-62585600D02*
X105460800Y-63555467D01*
X81940400Y-78130400D02*
X81940400Y-62585600D01*
X98932999Y-75122023D02*
X108091223Y-65963799D01*
X98932999Y-75209401D02*
X98932999Y-75122023D01*
X98247200Y-75895200D02*
X98932999Y-75209401D01*
D21*
X56832499Y-69088001D02*
X58928000Y-66992500D01*
X55930799Y-69088001D02*
X56832499Y-69088001D01*
X55435499Y-69583301D02*
X55930799Y-69088001D01*
X55435499Y-74533968D02*
X55435499Y-69583301D01*
X52882800Y-77086667D02*
X55435499Y-74533968D01*
X52882800Y-77571600D02*
X52882800Y-77086667D01*
X65698001Y-85812999D02*
X66548000Y-84963000D01*
X63056399Y-88454601D02*
X65698001Y-85812999D01*
X59351869Y-88454601D02*
X63056399Y-88454601D01*
X58306599Y-89499871D02*
X59351869Y-88454601D01*
X58306599Y-90994601D02*
X58306599Y-89499871D01*
X55485401Y-90994601D02*
X58306599Y-90994601D01*
X54406800Y-89916000D02*
X55485401Y-90994601D01*
X107632499Y-76542899D02*
X108102400Y-77012800D01*
X107632499Y-67945001D02*
X107632499Y-76542899D01*
X108585000Y-66992500D02*
X107632499Y-67945001D01*
X65722500Y-81597500D02*
X66548000Y-82423000D01*
X60185300Y-81597500D02*
X65722500Y-81597500D01*
X58025401Y-88837399D02*
X58025401Y-83757399D01*
X56946800Y-89916000D02*
X58025401Y-88837399D01*
X58025401Y-83757399D02*
X60185300Y-81597500D01*
X65573000Y-78908000D02*
X66548000Y-79883000D01*
X61730002Y-78908000D02*
X65573000Y-78908000D01*
X76758800Y-82254030D02*
X76758800Y-82245200D01*
X60565401Y-80072601D02*
X61730002Y-78908000D01*
X71475600Y-82245200D02*
X76758800Y-82245200D01*
X95356000Y-94691200D02*
X90728800Y-90064000D01*
X96212400Y-94691200D02*
X95356000Y-94691200D01*
X90728800Y-83070700D02*
X95313500Y-78486000D01*
X90728800Y-90064000D02*
X90728800Y-83070700D01*
X94463501Y-84415999D02*
X95313500Y-83566000D01*
X98982400Y-94691200D02*
X97255200Y-92964000D01*
X94996000Y-92964000D02*
X91592400Y-89560400D01*
X97255200Y-92964000D02*
X94996000Y-92964000D01*
X91592400Y-87287100D02*
X94463501Y-84415999D01*
X91592400Y-89560400D02*
X91592400Y-87287100D01*
X99364800Y-92303600D02*
X101752400Y-94691200D01*
X93433900Y-90284300D02*
X95453200Y-92303600D01*
X95453200Y-92303600D02*
X99364800Y-92303600D01*
X93433900Y-87985600D02*
X93433900Y-90284300D01*
X95313500Y-86106000D02*
X93433900Y-87985600D01*
X95313500Y-88987500D02*
X95313500Y-88646000D01*
X104522400Y-94691200D02*
X101372800Y-91541600D01*
X101372800Y-91541600D02*
X96875600Y-91541600D01*
X95313500Y-89979500D02*
X95313500Y-88646000D01*
X96875600Y-91541600D02*
X95313500Y-89979500D01*
X97597400Y-94256718D02*
X97597400Y-97231200D01*
X96863482Y-93522800D02*
X97597400Y-94256718D01*
X95097600Y-93522800D02*
X96863482Y-93522800D01*
X95313500Y-81026000D02*
X93078300Y-83261200D01*
X93065600Y-83261200D02*
X91186000Y-85140800D01*
X91186000Y-89611200D02*
X95097600Y-93522800D01*
X91186000Y-85140800D02*
X91186000Y-89611200D01*
X93078300Y-83261200D02*
X93065600Y-83261200D01*
X65345919Y-87503000D02*
X66548000Y-87503000D01*
X61549508Y-91299411D02*
X65345919Y-87503000D01*
X51866800Y-90918400D02*
X52247811Y-91299411D01*
X51866800Y-89916000D02*
X51866800Y-90918400D01*
X53555011Y-91299411D02*
X53390800Y-91299411D01*
X57607200Y-95351600D02*
X53555011Y-91299411D01*
X53390800Y-91299411D02*
X61549508Y-91299411D01*
X52247811Y-91299411D02*
X53390800Y-91299411D01*
X77538400Y-61838800D02*
X75745200Y-60045600D01*
X77538400Y-65702000D02*
X77538400Y-61838800D01*
X77538400Y-65702000D02*
X81280000Y-69443600D01*
X61885000Y-97282000D02*
X61885000Y-92191400D01*
X68706257Y-91897209D02*
X68935610Y-91667856D01*
X62179190Y-91897210D02*
X68706257Y-91897209D01*
X61885000Y-92191400D02*
X62179190Y-91897210D01*
X68935610Y-91667856D02*
X68935610Y-90678000D01*
X69202301Y-77279501D02*
X69189600Y-77266800D01*
X69202301Y-90411309D02*
X69202301Y-77279501D01*
X68935610Y-90678000D02*
X69202301Y-90411309D01*
X70777101Y-92774899D02*
X68810000Y-94742000D01*
X70777101Y-69484034D02*
X70777101Y-92774899D01*
X70561200Y-69268133D02*
X70777101Y-69484034D01*
X70561200Y-68783200D02*
X70561200Y-69268133D01*
X68907987Y-92557609D02*
X70205600Y-91259996D01*
X68224390Y-92557610D02*
X68907987Y-92557609D01*
X66040000Y-94742000D02*
X68224390Y-92557610D01*
X70205600Y-91259996D02*
X70205600Y-72593200D01*
X65759200Y-92252800D02*
X63270000Y-94742000D01*
X68781730Y-92252800D02*
X65759200Y-92252800D01*
X69761101Y-76992479D02*
X69761101Y-91273429D01*
X69761101Y-91273429D02*
X68781730Y-92252800D01*
X69623688Y-76855066D02*
X69623688Y-76024488D01*
X69761101Y-76992479D02*
X69623688Y-76855066D01*
X61874400Y-91592400D02*
X60500000Y-92966800D01*
X68580000Y-91592400D02*
X61874400Y-91592400D01*
X60500000Y-92966800D02*
X60500000Y-94742000D01*
X68630800Y-91541600D02*
X68580000Y-91592400D01*
X68630800Y-78486000D02*
X68630800Y-91541600D01*
X72092400Y-60045600D02*
X72186800Y-60045600D01*
X70104000Y-62034000D02*
X72092400Y-60045600D01*
X70104000Y-65532000D02*
X70104000Y-62034000D01*
X70104000Y-65532000D02*
X71221600Y-66649600D01*
X71221600Y-80492599D02*
X71348601Y-80619600D01*
X71221600Y-66649600D02*
X71221600Y-80492599D01*
X95354000Y-60388500D02*
X95354000Y-60045600D01*
X95313500Y-75946000D02*
X97548700Y-73710800D01*
X97548700Y-62240300D02*
X95354000Y-60045600D01*
X97548700Y-73710800D02*
X97548700Y-62240300D01*
X91879000Y-60045600D02*
X91998800Y-60045600D01*
X96163499Y-72556001D02*
X95313500Y-73406000D01*
X91998800Y-70091300D02*
X91998800Y-60045600D01*
X95313500Y-73406000D02*
X91998800Y-70091300D01*
X84023200Y-78513733D02*
X89662000Y-84152533D01*
X84023200Y-78028800D02*
X84023200Y-78513733D01*
X89662000Y-90220800D02*
X89814400Y-90373200D01*
X89662000Y-84152533D02*
X89662000Y-90220800D01*
D22*
G36*
X64534266Y-54572674D02*
X64267413Y-54671336D01*
X64040892Y-55281061D01*
X64064944Y-55931060D01*
X64267413Y-56419864D01*
X64534268Y-56518527D01*
X65507195Y-55545600D01*
X65493053Y-55531458D01*
X65672658Y-55351853D01*
X65686800Y-55365995D01*
X65700943Y-55351853D01*
X65880548Y-55531458D01*
X65866405Y-55545600D01*
X66839332Y-56518527D01*
X67106187Y-56419864D01*
X67332708Y-55810139D01*
X67308656Y-55160140D01*
X67106187Y-54671336D01*
X66839334Y-54572674D01*
X66854008Y-54558000D01*
X71019592Y-54558000D01*
X71034266Y-54572674D01*
X70767413Y-54671336D01*
X70540892Y-55281061D01*
X70564944Y-55931060D01*
X70767413Y-56419864D01*
X71034268Y-56518527D01*
X72007195Y-55545600D01*
X71993053Y-55531458D01*
X72172658Y-55351853D01*
X72186800Y-55365995D01*
X72200943Y-55351853D01*
X72380548Y-55531458D01*
X72366405Y-55545600D01*
X73339332Y-56518527D01*
X73606187Y-56419864D01*
X73832708Y-55810139D01*
X73808656Y-55160140D01*
X73606187Y-54671336D01*
X73339334Y-54572674D01*
X73354008Y-54558000D01*
X74577992Y-54558000D01*
X74592666Y-54572674D01*
X74325813Y-54671336D01*
X74099292Y-55281061D01*
X74123344Y-55931060D01*
X74325813Y-56419864D01*
X74592668Y-56518527D01*
X75565595Y-55545600D01*
X75551453Y-55531458D01*
X75731058Y-55351853D01*
X75745200Y-55365995D01*
X75759343Y-55351853D01*
X75938948Y-55531458D01*
X75924805Y-55545600D01*
X76897732Y-56518527D01*
X77164587Y-56419864D01*
X77391108Y-55810139D01*
X77367056Y-55160140D01*
X77164587Y-54671336D01*
X76897734Y-54572674D01*
X76912408Y-54558000D01*
X81077992Y-54558000D01*
X81092666Y-54572674D01*
X80825813Y-54671336D01*
X80599292Y-55281061D01*
X80623344Y-55931060D01*
X80825813Y-56419864D01*
X81092668Y-56518527D01*
X82065595Y-55545600D01*
X82051453Y-55531458D01*
X82231058Y-55351853D01*
X82245200Y-55365995D01*
X82259343Y-55351853D01*
X82438948Y-55531458D01*
X82424805Y-55545600D01*
X83397732Y-56518527D01*
X83664587Y-56419864D01*
X83874158Y-55855764D01*
X83876944Y-55931060D01*
X84079413Y-56419864D01*
X84346268Y-56518527D01*
X85319195Y-55545600D01*
X85305053Y-55531458D01*
X85484658Y-55351853D01*
X85498800Y-55365995D01*
X85512943Y-55351853D01*
X85692548Y-55531458D01*
X85678405Y-55545600D01*
X86651332Y-56518527D01*
X86918187Y-56419864D01*
X87144708Y-55810139D01*
X87120656Y-55160140D01*
X86918187Y-54671336D01*
X86651334Y-54572674D01*
X86666008Y-54558000D01*
X90831592Y-54558000D01*
X90846266Y-54572674D01*
X90579413Y-54671336D01*
X90352892Y-55281061D01*
X90376944Y-55931060D01*
X90579413Y-56419864D01*
X90846268Y-56518527D01*
X91819195Y-55545600D01*
X91805053Y-55531458D01*
X91984658Y-55351853D01*
X91998800Y-55365995D01*
X92012943Y-55351853D01*
X92192548Y-55531458D01*
X92178405Y-55545600D01*
X93151332Y-56518527D01*
X93418187Y-56419864D01*
X93644708Y-55810139D01*
X93620656Y-55160140D01*
X93418187Y-54671336D01*
X93151334Y-54572674D01*
X93166008Y-54558000D01*
X94186792Y-54558000D01*
X94201466Y-54572674D01*
X93934613Y-54671336D01*
X93708092Y-55281061D01*
X93732144Y-55931060D01*
X93934613Y-56419864D01*
X94201468Y-56518527D01*
X95174395Y-55545600D01*
X95160253Y-55531458D01*
X95339858Y-55351853D01*
X95354000Y-55365995D01*
X95368143Y-55351853D01*
X95547748Y-55531458D01*
X95533605Y-55545600D01*
X96506532Y-56518527D01*
X96773387Y-56419864D01*
X96999908Y-55810139D01*
X96975856Y-55160140D01*
X96773387Y-54671336D01*
X96506534Y-54572674D01*
X96521208Y-54558000D01*
X100686792Y-54558000D01*
X100701466Y-54572674D01*
X100434613Y-54671336D01*
X100208092Y-55281061D01*
X100232144Y-55931060D01*
X100434613Y-56419864D01*
X100701468Y-56518527D01*
X101674395Y-55545600D01*
X101660253Y-55531458D01*
X101839858Y-55351853D01*
X101854000Y-55365995D01*
X101868143Y-55351853D01*
X102047748Y-55531458D01*
X102033605Y-55545600D01*
X103006532Y-56518527D01*
X103273387Y-56419864D01*
X103499908Y-55810139D01*
X103475856Y-55160140D01*
X103273387Y-54671336D01*
X103006534Y-54572674D01*
X103021208Y-54558000D01*
X119381201Y-54558000D01*
X119381200Y-107240000D01*
X47954000Y-107240000D01*
X47954000Y-87376000D01*
X50352708Y-87376000D01*
X50467961Y-87955418D01*
X50796175Y-88446625D01*
X50814419Y-88458816D01*
X50769035Y-88467843D01*
X50558991Y-88608191D01*
X50418643Y-88818235D01*
X50369360Y-89066000D01*
X50369360Y-90766000D01*
X50418643Y-91013765D01*
X50558991Y-91223809D01*
X50769035Y-91364157D01*
X51016800Y-91413440D01*
X51342224Y-91413440D01*
X51354055Y-91431146D01*
X51413434Y-91470822D01*
X51695387Y-91752775D01*
X51735065Y-91812157D01*
X51970315Y-91969347D01*
X52177765Y-92010611D01*
X52177769Y-92010611D01*
X52247811Y-92024543D01*
X52317853Y-92010611D01*
X53260423Y-92010611D01*
X54821591Y-93571779D01*
X54090617Y-93269000D01*
X52999383Y-93269000D01*
X51991215Y-93686597D01*
X51219597Y-94458215D01*
X50802000Y-95466383D01*
X50802000Y-96557617D01*
X51219597Y-97565785D01*
X51991215Y-98337403D01*
X52999383Y-98755000D01*
X54090617Y-98755000D01*
X55098785Y-98337403D01*
X55870403Y-97565785D01*
X56288000Y-96557617D01*
X56288000Y-95466383D01*
X55985221Y-94735409D01*
X56629300Y-95379489D01*
X56629300Y-95546116D01*
X56778177Y-95905536D01*
X57053264Y-96180623D01*
X57412684Y-96329500D01*
X57801716Y-96329500D01*
X58161136Y-96180623D01*
X58436223Y-95905536D01*
X58585100Y-95546116D01*
X58585100Y-95157084D01*
X58436223Y-94797664D01*
X58161136Y-94522577D01*
X57801716Y-94373700D01*
X57635089Y-94373700D01*
X55271999Y-92010611D01*
X60450401Y-92010611D01*
X60046634Y-92414378D01*
X59987254Y-92454055D01*
X59947578Y-92513434D01*
X59947576Y-92513436D01*
X59902367Y-92581096D01*
X59830064Y-92689305D01*
X59788800Y-92896755D01*
X59788800Y-92896759D01*
X59774868Y-92966800D01*
X59788800Y-93036842D01*
X59788800Y-93391992D01*
X59548235Y-93439843D01*
X59338191Y-93580191D01*
X59197843Y-93790235D01*
X59148560Y-94038000D01*
X59148560Y-95446000D01*
X59197843Y-95693765D01*
X59338191Y-95903809D01*
X59548235Y-96044157D01*
X59796000Y-96093440D01*
X61173800Y-96093440D01*
X61173800Y-96127265D01*
X61126517Y-96146850D01*
X60749850Y-96523517D01*
X60546000Y-97015656D01*
X60546000Y-97548344D01*
X60749850Y-98040483D01*
X61126517Y-98417150D01*
X61618656Y-98621000D01*
X62151344Y-98621000D01*
X62643483Y-98417150D01*
X63020150Y-98040483D01*
X63224000Y-97548344D01*
X63224000Y-97015656D01*
X63316000Y-97015656D01*
X63316000Y-97548344D01*
X63519850Y-98040483D01*
X63896517Y-98417150D01*
X64388656Y-98621000D01*
X64921344Y-98621000D01*
X65413483Y-98417150D01*
X65610458Y-98220175D01*
X66666430Y-98220175D01*
X66728761Y-98456356D01*
X67231166Y-98633402D01*
X67763079Y-98604710D01*
X68121239Y-98456356D01*
X68183570Y-98220175D01*
X67425000Y-97461605D01*
X66666430Y-98220175D01*
X65610458Y-98220175D01*
X65790150Y-98040483D01*
X65994000Y-97548344D01*
X65994000Y-97088166D01*
X66073598Y-97088166D01*
X66102290Y-97620079D01*
X66250644Y-97978239D01*
X66486825Y-98040570D01*
X67245395Y-97282000D01*
X67604605Y-97282000D01*
X68363175Y-98040570D01*
X68599356Y-97978239D01*
X68776402Y-97475834D01*
X68751580Y-97015656D01*
X68856000Y-97015656D01*
X68856000Y-97548344D01*
X69059850Y-98040483D01*
X69436517Y-98417150D01*
X69928656Y-98621000D01*
X70461344Y-98621000D01*
X70953483Y-98417150D01*
X71330150Y-98040483D01*
X71534000Y-97548344D01*
X71534000Y-97015656D01*
X71330150Y-96523517D01*
X70953483Y-96146850D01*
X70461344Y-95943000D01*
X69928656Y-95943000D01*
X69436517Y-96146850D01*
X69059850Y-96523517D01*
X68856000Y-97015656D01*
X68751580Y-97015656D01*
X68747710Y-96943921D01*
X68599356Y-96585761D01*
X68363175Y-96523430D01*
X67604605Y-97282000D01*
X67245395Y-97282000D01*
X66486825Y-96523430D01*
X66250644Y-96585761D01*
X66073598Y-97088166D01*
X65994000Y-97088166D01*
X65994000Y-97015656D01*
X65790150Y-96523517D01*
X65610458Y-96343825D01*
X66666430Y-96343825D01*
X67425000Y-97102395D01*
X68183570Y-96343825D01*
X68121239Y-96107644D01*
X67618834Y-95930598D01*
X67086921Y-95959290D01*
X66728761Y-96107644D01*
X66666430Y-96343825D01*
X65610458Y-96343825D01*
X65413483Y-96146850D01*
X64921344Y-95943000D01*
X64388656Y-95943000D01*
X63896517Y-96146850D01*
X63519850Y-96523517D01*
X63316000Y-97015656D01*
X63224000Y-97015656D01*
X63020150Y-96523517D01*
X62643483Y-96146850D01*
X62596200Y-96127265D01*
X62596200Y-95912227D01*
X63003656Y-96081000D01*
X63536344Y-96081000D01*
X64028483Y-95877150D01*
X64405150Y-95500483D01*
X64609000Y-95008344D01*
X64609000Y-94475656D01*
X64589415Y-94428373D01*
X64813336Y-94204453D01*
X64701000Y-94475656D01*
X64701000Y-95008344D01*
X64904850Y-95500483D01*
X65281517Y-95877150D01*
X65773656Y-96081000D01*
X66306344Y-96081000D01*
X66798483Y-95877150D01*
X67175150Y-95500483D01*
X67379000Y-95008344D01*
X67379000Y-94475656D01*
X67359415Y-94428373D01*
X67583336Y-94204453D01*
X67471000Y-94475656D01*
X67471000Y-95008344D01*
X67674850Y-95500483D01*
X68051517Y-95877150D01*
X68543656Y-96081000D01*
X69076344Y-96081000D01*
X69568483Y-95877150D01*
X69945150Y-95500483D01*
X70149000Y-95008344D01*
X70149000Y-94475656D01*
X70129415Y-94428373D01*
X70353336Y-94204453D01*
X70241000Y-94475656D01*
X70241000Y-95008344D01*
X70444850Y-95500483D01*
X70821517Y-95877150D01*
X71313656Y-96081000D01*
X71846344Y-96081000D01*
X72338483Y-95877150D01*
X72715150Y-95500483D01*
X72729274Y-95466383D01*
X75792000Y-95466383D01*
X75792000Y-96557617D01*
X76209597Y-97565785D01*
X76981215Y-98337403D01*
X77989383Y-98755000D01*
X79080617Y-98755000D01*
X80088785Y-98337403D01*
X80860403Y-97565785D01*
X81278000Y-96557617D01*
X81278000Y-95466383D01*
X81256958Y-95415583D01*
X86514400Y-95415583D01*
X86514400Y-96506817D01*
X86931997Y-97514985D01*
X87703615Y-98286603D01*
X88711783Y-98704200D01*
X89803017Y-98704200D01*
X90811185Y-98286603D01*
X91582803Y-97514985D01*
X92000400Y-96506817D01*
X92000400Y-95415583D01*
X91582803Y-94407415D01*
X90811185Y-93635797D01*
X89803017Y-93218200D01*
X88711783Y-93218200D01*
X87703615Y-93635797D01*
X86931997Y-94407415D01*
X86514400Y-95415583D01*
X81256958Y-95415583D01*
X80860403Y-94458215D01*
X80088785Y-93686597D01*
X79080617Y-93269000D01*
X77989383Y-93269000D01*
X76981215Y-93686597D01*
X76209597Y-94458215D01*
X75792000Y-95466383D01*
X72729274Y-95466383D01*
X72919000Y-95008344D01*
X72919000Y-94475656D01*
X72715150Y-93983517D01*
X72338483Y-93606850D01*
X71846344Y-93403000D01*
X71313656Y-93403000D01*
X71042453Y-93515335D01*
X71230468Y-93327321D01*
X71289847Y-93287645D01*
X71329523Y-93228266D01*
X71329525Y-93228264D01*
X71447036Y-93052396D01*
X71447037Y-93052395D01*
X71488301Y-92844945D01*
X71488301Y-92844941D01*
X71502233Y-92774899D01*
X71488301Y-92704857D01*
X71488301Y-89002890D01*
X72409024Y-89002890D01*
X72578855Y-89412924D01*
X72969142Y-89841183D01*
X73493608Y-90087486D01*
X73723500Y-89966819D01*
X73723500Y-88773000D01*
X73977500Y-88773000D01*
X73977500Y-89966819D01*
X74207392Y-90087486D01*
X74731858Y-89841183D01*
X75122145Y-89412924D01*
X75291976Y-89002890D01*
X75170655Y-88773000D01*
X73977500Y-88773000D01*
X73723500Y-88773000D01*
X72530345Y-88773000D01*
X72409024Y-89002890D01*
X71488301Y-89002890D01*
X71488301Y-83223100D01*
X71670116Y-83223100D01*
X72029536Y-83074223D01*
X72147359Y-82956400D01*
X72471828Y-82956400D01*
X72451661Y-82986582D01*
X72336408Y-83566000D01*
X72451661Y-84145418D01*
X72779875Y-84636625D01*
X73078261Y-84836000D01*
X72779875Y-85035375D01*
X72451661Y-85526582D01*
X72336408Y-86106000D01*
X72451661Y-86685418D01*
X72779875Y-87176625D01*
X73098978Y-87389843D01*
X72969142Y-87450817D01*
X72578855Y-87879076D01*
X72409024Y-88289110D01*
X72530345Y-88519000D01*
X73723500Y-88519000D01*
X73723500Y-88499000D01*
X73977500Y-88499000D01*
X73977500Y-88519000D01*
X75170655Y-88519000D01*
X75291976Y-88289110D01*
X75122145Y-87879076D01*
X74731858Y-87450817D01*
X74602022Y-87389843D01*
X74921125Y-87176625D01*
X75249339Y-86685418D01*
X75364592Y-86106000D01*
X75249339Y-85526582D01*
X74921125Y-85035375D01*
X74622739Y-84836000D01*
X74921125Y-84636625D01*
X75249339Y-84145418D01*
X75364592Y-83566000D01*
X75249339Y-82986582D01*
X75229172Y-82956400D01*
X76087041Y-82956400D01*
X76204864Y-83074223D01*
X76564284Y-83223100D01*
X76953316Y-83223100D01*
X77312736Y-83074223D01*
X77587823Y-82799136D01*
X77736700Y-82439716D01*
X77736700Y-82050684D01*
X77587823Y-81691264D01*
X77312736Y-81416177D01*
X76953316Y-81267300D01*
X76564284Y-81267300D01*
X76204864Y-81416177D01*
X76087041Y-81534000D01*
X75263545Y-81534000D01*
X75364592Y-81026000D01*
X75249339Y-80446582D01*
X74921125Y-79955375D01*
X74622739Y-79756000D01*
X74921125Y-79556625D01*
X75249339Y-79065418D01*
X75364592Y-78486000D01*
X75249339Y-77906582D01*
X74921125Y-77415375D01*
X74622739Y-77216000D01*
X74921125Y-77016625D01*
X75249339Y-76525418D01*
X75364592Y-75946000D01*
X75249339Y-75366582D01*
X74921125Y-74875375D01*
X74622739Y-74676000D01*
X74921125Y-74476625D01*
X75249339Y-73985418D01*
X75364592Y-73406000D01*
X75249339Y-72826582D01*
X74921125Y-72335375D01*
X74622739Y-72136000D01*
X74921125Y-71936625D01*
X75249339Y-71445418D01*
X75364592Y-70866000D01*
X75249339Y-70286582D01*
X74921125Y-69795375D01*
X74902881Y-69783184D01*
X74948265Y-69774157D01*
X75158309Y-69633809D01*
X75298657Y-69423765D01*
X75347940Y-69176000D01*
X75347940Y-67476000D01*
X75298657Y-67228235D01*
X75158309Y-67018191D01*
X74948265Y-66877843D01*
X74700500Y-66828560D01*
X73000500Y-66828560D01*
X72752735Y-66877843D01*
X72542691Y-67018191D01*
X72402343Y-67228235D01*
X72353060Y-67476000D01*
X72353060Y-69176000D01*
X72402343Y-69423765D01*
X72542691Y-69633809D01*
X72752735Y-69774157D01*
X72798119Y-69783184D01*
X72779875Y-69795375D01*
X72451661Y-70286582D01*
X72336408Y-70866000D01*
X72451661Y-71445418D01*
X72779875Y-71936625D01*
X73078261Y-72136000D01*
X72779875Y-72335375D01*
X72451661Y-72826582D01*
X72336408Y-73406000D01*
X72451661Y-73985418D01*
X72779875Y-74476625D01*
X73078261Y-74676000D01*
X72779875Y-74875375D01*
X72451661Y-75366582D01*
X72336408Y-75946000D01*
X72451661Y-76525418D01*
X72779875Y-77016625D01*
X73078261Y-77216000D01*
X72779875Y-77415375D01*
X72451661Y-77906582D01*
X72336408Y-78486000D01*
X72451661Y-79065418D01*
X72779875Y-79556625D01*
X73078261Y-79756000D01*
X72779875Y-79955375D01*
X72451661Y-80446582D01*
X72336408Y-81026000D01*
X72437455Y-81534000D01*
X72147359Y-81534000D01*
X72029536Y-81416177D01*
X71962677Y-81388483D01*
X72177624Y-81173536D01*
X72326501Y-80814116D01*
X72326501Y-80425084D01*
X72177624Y-80065664D01*
X71932800Y-79820840D01*
X71932800Y-66719641D01*
X71946732Y-66649599D01*
X71932800Y-66579555D01*
X71932800Y-66579554D01*
X71891536Y-66372104D01*
X71885198Y-66362618D01*
X71774024Y-66196235D01*
X71774020Y-66196231D01*
X71734345Y-66136854D01*
X71674969Y-66097180D01*
X70815200Y-65237412D01*
X70815200Y-62328588D01*
X71579874Y-61563914D01*
X71861578Y-61680600D01*
X72512022Y-61680600D01*
X73112953Y-61431686D01*
X73572886Y-60971753D01*
X73821800Y-60370822D01*
X73821800Y-59720378D01*
X74110200Y-59720378D01*
X74110200Y-60370822D01*
X74359114Y-60971753D01*
X74819047Y-61431686D01*
X75419978Y-61680600D01*
X76070422Y-61680600D01*
X76285375Y-61591564D01*
X76827201Y-62133390D01*
X76827200Y-65631958D01*
X76813268Y-65702000D01*
X76827200Y-65772041D01*
X76827200Y-65772045D01*
X76868464Y-65979495D01*
X76868465Y-65979496D01*
X76985976Y-66155364D01*
X76985978Y-66155366D01*
X77025654Y-66214745D01*
X77085034Y-66254422D01*
X80302100Y-69471489D01*
X80302100Y-69638116D01*
X80450977Y-69997536D01*
X80726064Y-70272623D01*
X81085484Y-70421500D01*
X81153000Y-70421500D01*
X81153000Y-77049907D01*
X80820680Y-77382227D01*
X80619600Y-77867677D01*
X80619600Y-78393123D01*
X80820680Y-78878573D01*
X81192227Y-79250120D01*
X81677677Y-79451200D01*
X82203123Y-79451200D01*
X82688573Y-79250120D01*
X83060120Y-78878573D01*
X83188418Y-78568833D01*
X83194177Y-78582736D01*
X83340996Y-78729555D01*
X83353264Y-78791229D01*
X83407311Y-78872115D01*
X83470776Y-78967097D01*
X83470778Y-78967099D01*
X83510455Y-79026479D01*
X83569834Y-79066155D01*
X88950800Y-84447122D01*
X88950801Y-89902738D01*
X88836500Y-90178684D01*
X88836500Y-90567716D01*
X88985377Y-90927136D01*
X89260464Y-91202223D01*
X89619884Y-91351100D01*
X90008916Y-91351100D01*
X90368336Y-91202223D01*
X90614785Y-90955774D01*
X94803578Y-95144567D01*
X94843254Y-95203946D01*
X94860960Y-95215777D01*
X94860960Y-95395200D01*
X94910243Y-95642965D01*
X95050591Y-95853009D01*
X95260635Y-95993357D01*
X95508400Y-96042640D01*
X96886201Y-96042640D01*
X96886201Y-96076465D01*
X96838917Y-96096050D01*
X96462250Y-96472717D01*
X96258400Y-96964856D01*
X96258400Y-97497544D01*
X96462250Y-97989683D01*
X96838917Y-98366350D01*
X97331056Y-98570200D01*
X97863744Y-98570200D01*
X98355883Y-98366350D01*
X98732550Y-97989683D01*
X98936400Y-97497544D01*
X98936400Y-96964856D01*
X99028400Y-96964856D01*
X99028400Y-97497544D01*
X99232250Y-97989683D01*
X99608917Y-98366350D01*
X100101056Y-98570200D01*
X100633744Y-98570200D01*
X101125883Y-98366350D01*
X101322858Y-98169375D01*
X102378830Y-98169375D01*
X102441161Y-98405556D01*
X102943566Y-98582602D01*
X103475479Y-98553910D01*
X103833639Y-98405556D01*
X103895970Y-98169375D01*
X103137400Y-97410805D01*
X102378830Y-98169375D01*
X101322858Y-98169375D01*
X101502550Y-97989683D01*
X101706400Y-97497544D01*
X101706400Y-97037366D01*
X101785998Y-97037366D01*
X101814690Y-97569279D01*
X101963044Y-97927439D01*
X102199225Y-97989770D01*
X102957795Y-97231200D01*
X103317005Y-97231200D01*
X104075575Y-97989770D01*
X104311756Y-97927439D01*
X104488802Y-97425034D01*
X104463980Y-96964856D01*
X104568400Y-96964856D01*
X104568400Y-97497544D01*
X104772250Y-97989683D01*
X105148917Y-98366350D01*
X105641056Y-98570200D01*
X106173744Y-98570200D01*
X106665883Y-98366350D01*
X107042550Y-97989683D01*
X107246400Y-97497544D01*
X107246400Y-96964856D01*
X107042550Y-96472717D01*
X106665883Y-96096050D01*
X106173744Y-95892200D01*
X105641056Y-95892200D01*
X105148917Y-96096050D01*
X104772250Y-96472717D01*
X104568400Y-96964856D01*
X104463980Y-96964856D01*
X104460110Y-96893121D01*
X104311756Y-96534961D01*
X104075575Y-96472630D01*
X103317005Y-97231200D01*
X102957795Y-97231200D01*
X102199225Y-96472630D01*
X101963044Y-96534961D01*
X101785998Y-97037366D01*
X101706400Y-97037366D01*
X101706400Y-96964856D01*
X101502550Y-96472717D01*
X101322858Y-96293025D01*
X102378830Y-96293025D01*
X103137400Y-97051595D01*
X103895970Y-96293025D01*
X103833639Y-96056844D01*
X103331234Y-95879798D01*
X102799321Y-95908490D01*
X102441161Y-96056844D01*
X102378830Y-96293025D01*
X101322858Y-96293025D01*
X101125883Y-96096050D01*
X100633744Y-95892200D01*
X100101056Y-95892200D01*
X99608917Y-96096050D01*
X99232250Y-96472717D01*
X99028400Y-96964856D01*
X98936400Y-96964856D01*
X98732550Y-96472717D01*
X98355883Y-96096050D01*
X98308600Y-96076465D01*
X98308600Y-95861427D01*
X98716056Y-96030200D01*
X99248744Y-96030200D01*
X99740883Y-95826350D01*
X100117550Y-95449683D01*
X100321400Y-94957544D01*
X100321400Y-94424856D01*
X100209064Y-94153653D01*
X100432985Y-94377574D01*
X100413400Y-94424856D01*
X100413400Y-94957544D01*
X100617250Y-95449683D01*
X100993917Y-95826350D01*
X101486056Y-96030200D01*
X102018744Y-96030200D01*
X102510883Y-95826350D01*
X102887550Y-95449683D01*
X103091400Y-94957544D01*
X103091400Y-94424856D01*
X102979064Y-94153653D01*
X103202985Y-94377574D01*
X103183400Y-94424856D01*
X103183400Y-94957544D01*
X103387250Y-95449683D01*
X103763917Y-95826350D01*
X104256056Y-96030200D01*
X104788744Y-96030200D01*
X105280883Y-95826350D01*
X105657550Y-95449683D01*
X105861400Y-94957544D01*
X105861400Y-94424856D01*
X105953400Y-94424856D01*
X105953400Y-94957544D01*
X106157250Y-95449683D01*
X106533917Y-95826350D01*
X107026056Y-96030200D01*
X107558744Y-96030200D01*
X108050883Y-95826350D01*
X108427550Y-95449683D01*
X108441674Y-95415583D01*
X111504400Y-95415583D01*
X111504400Y-96506817D01*
X111921997Y-97514985D01*
X112693615Y-98286603D01*
X113701783Y-98704200D01*
X114793017Y-98704200D01*
X115801185Y-98286603D01*
X116572803Y-97514985D01*
X116990400Y-96506817D01*
X116990400Y-95415583D01*
X116572803Y-94407415D01*
X115801185Y-93635797D01*
X114793017Y-93218200D01*
X113701783Y-93218200D01*
X112693615Y-93635797D01*
X111921997Y-94407415D01*
X111504400Y-95415583D01*
X108441674Y-95415583D01*
X108631400Y-94957544D01*
X108631400Y-94424856D01*
X108427550Y-93932717D01*
X108050883Y-93556050D01*
X107558744Y-93352200D01*
X107026056Y-93352200D01*
X106533917Y-93556050D01*
X106157250Y-93932717D01*
X105953400Y-94424856D01*
X105861400Y-94424856D01*
X105657550Y-93932717D01*
X105280883Y-93556050D01*
X104788744Y-93352200D01*
X104256056Y-93352200D01*
X104208774Y-93371785D01*
X101925223Y-91088235D01*
X101885546Y-91028854D01*
X101650296Y-90871664D01*
X101442846Y-90830400D01*
X101442841Y-90830400D01*
X101372800Y-90816468D01*
X101302759Y-90830400D01*
X97170189Y-90830400D01*
X96424861Y-90085072D01*
X96621309Y-89953809D01*
X96761657Y-89743765D01*
X96810940Y-89496000D01*
X96810940Y-87796000D01*
X96761657Y-87548235D01*
X96621309Y-87338191D01*
X96411265Y-87197843D01*
X96365881Y-87188816D01*
X96384125Y-87176625D01*
X96712339Y-86685418D01*
X96827592Y-86106000D01*
X96712339Y-85526582D01*
X96384125Y-85035375D01*
X96085739Y-84836000D01*
X96384125Y-84636625D01*
X96712339Y-84145418D01*
X96827592Y-83566000D01*
X96712339Y-82986582D01*
X96384125Y-82495375D01*
X96085739Y-82296000D01*
X96384125Y-82096625D01*
X96712339Y-81605418D01*
X96713446Y-81599848D01*
X108966000Y-81599848D01*
X108966000Y-82458752D01*
X109294688Y-83252275D01*
X109902025Y-83859612D01*
X110695548Y-84188300D01*
X111554452Y-84188300D01*
X112347975Y-83859612D01*
X112955312Y-83252275D01*
X113284000Y-82458752D01*
X113284000Y-81599848D01*
X112955312Y-80806325D01*
X112347975Y-80198988D01*
X111554452Y-79870300D01*
X110695548Y-79870300D01*
X109902025Y-80198988D01*
X109294688Y-80806325D01*
X108966000Y-81599848D01*
X96713446Y-81599848D01*
X96827592Y-81026000D01*
X96712339Y-80446582D01*
X96384125Y-79955375D01*
X96085739Y-79756000D01*
X96384125Y-79556625D01*
X96712339Y-79065418D01*
X96827592Y-78486000D01*
X96712339Y-77906582D01*
X96384125Y-77415375D01*
X96085739Y-77216000D01*
X96384125Y-77016625D01*
X96712339Y-76525418D01*
X96827592Y-75946000D01*
X96765229Y-75632477D01*
X96926400Y-75632477D01*
X96926400Y-76157923D01*
X97127480Y-76643373D01*
X97499027Y-77014920D01*
X97984477Y-77216000D01*
X98509923Y-77216000D01*
X98995373Y-77014920D01*
X99366920Y-76643373D01*
X99568000Y-76157923D01*
X99568000Y-75676338D01*
X99674714Y-75516629D01*
X99680368Y-75488205D01*
X106921299Y-68247275D01*
X106921300Y-76472853D01*
X106907367Y-76542899D01*
X106962564Y-76820395D01*
X107080075Y-76996263D01*
X107080078Y-76996266D01*
X107119754Y-77055645D01*
X107124500Y-77058816D01*
X107124500Y-77207316D01*
X107273377Y-77566736D01*
X107548464Y-77841823D01*
X107907884Y-77990700D01*
X108296916Y-77990700D01*
X108656336Y-77841823D01*
X108931423Y-77566736D01*
X109080300Y-77207316D01*
X109080300Y-76818284D01*
X108931423Y-76458864D01*
X108656336Y-76183777D01*
X108343699Y-76054278D01*
X108343699Y-75221840D01*
X109308900Y-75221840D01*
X109556665Y-75172557D01*
X109766100Y-75032616D01*
X109766100Y-75263802D01*
X109972981Y-75763255D01*
X110355245Y-76145519D01*
X110854698Y-76352400D01*
X111395302Y-76352400D01*
X111894755Y-76145519D01*
X112277019Y-75763255D01*
X112483900Y-75263802D01*
X112483900Y-74723198D01*
X112277019Y-74223745D01*
X111903774Y-73850500D01*
X112277019Y-73477255D01*
X112483900Y-72977802D01*
X112483900Y-72437198D01*
X112277019Y-71937745D01*
X111903774Y-71564500D01*
X112277019Y-71191255D01*
X112483900Y-70691802D01*
X112483900Y-70151198D01*
X112277019Y-69651745D01*
X111903774Y-69278500D01*
X112277019Y-68905255D01*
X112483900Y-68405802D01*
X112483900Y-67865198D01*
X112277019Y-67365745D01*
X111894755Y-66983481D01*
X111853341Y-66966327D01*
X111897996Y-66802101D01*
X111125000Y-66029105D01*
X111110858Y-66043248D01*
X110931253Y-65863643D01*
X110945395Y-65849500D01*
X111304605Y-65849500D01*
X112077601Y-66622496D01*
X112315841Y-66557716D01*
X112496216Y-66048091D01*
X112467836Y-65508233D01*
X112315841Y-65141284D01*
X112077601Y-65076504D01*
X111304605Y-65849500D01*
X110945395Y-65849500D01*
X110172399Y-65076504D01*
X109934159Y-65141284D01*
X109786632Y-65558102D01*
X109690393Y-65461864D01*
X109676871Y-65441627D01*
X109775841Y-65414716D01*
X109956216Y-64905091D01*
X109955786Y-64896899D01*
X110352004Y-64896899D01*
X111125000Y-65669895D01*
X111897996Y-64896899D01*
X111833216Y-64658659D01*
X111323591Y-64478284D01*
X110783733Y-64506664D01*
X110416784Y-64658659D01*
X110352004Y-64896899D01*
X109955786Y-64896899D01*
X109931567Y-64436198D01*
X112306100Y-64436198D01*
X112306100Y-64976802D01*
X112512981Y-65476255D01*
X112886226Y-65849500D01*
X112512981Y-66222745D01*
X112306100Y-66722198D01*
X112306100Y-67262802D01*
X112512981Y-67762255D01*
X112886226Y-68135500D01*
X112512981Y-68508745D01*
X112306100Y-69008198D01*
X112306100Y-69548802D01*
X112512981Y-70048255D01*
X112886226Y-70421500D01*
X112512981Y-70794745D01*
X112306100Y-71294198D01*
X112306100Y-71834802D01*
X112512981Y-72334255D01*
X112886226Y-72707500D01*
X112512981Y-73080745D01*
X112306100Y-73580198D01*
X112306100Y-74120802D01*
X112512981Y-74620255D01*
X112895245Y-75002519D01*
X113394698Y-75209400D01*
X113935302Y-75209400D01*
X114434755Y-75002519D01*
X114817019Y-74620255D01*
X115023900Y-74120802D01*
X115023900Y-73580198D01*
X114817019Y-73080745D01*
X114443774Y-72707500D01*
X114817019Y-72334255D01*
X115023900Y-71834802D01*
X115023900Y-71294198D01*
X114817019Y-70794745D01*
X114443774Y-70421500D01*
X114817019Y-70048255D01*
X115023900Y-69548802D01*
X115023900Y-69008198D01*
X114817019Y-68508745D01*
X114443774Y-68135500D01*
X114817019Y-67762255D01*
X115023900Y-67262802D01*
X115023900Y-66722198D01*
X114817019Y-66222745D01*
X114443774Y-65849500D01*
X114817019Y-65476255D01*
X115023900Y-64976802D01*
X115023900Y-64436198D01*
X114817019Y-63936745D01*
X114434755Y-63554481D01*
X113935302Y-63347600D01*
X113394698Y-63347600D01*
X112895245Y-63554481D01*
X112512981Y-63936745D01*
X112306100Y-64436198D01*
X109931567Y-64436198D01*
X109927836Y-64365233D01*
X109775841Y-63998284D01*
X109537601Y-63933504D01*
X108764605Y-64706500D01*
X108778748Y-64720643D01*
X108599143Y-64900248D01*
X108585000Y-64886105D01*
X108570858Y-64900248D01*
X108391253Y-64720643D01*
X108405395Y-64706500D01*
X107632399Y-63933504D01*
X107394159Y-63998284D01*
X107295609Y-64276724D01*
X106772784Y-63753899D01*
X107812004Y-63753899D01*
X108585000Y-64526895D01*
X109357996Y-63753899D01*
X109293216Y-63515659D01*
X108783591Y-63335284D01*
X108243733Y-63363664D01*
X107876784Y-63515659D01*
X107812004Y-63753899D01*
X106772784Y-63753899D01*
X106466589Y-63447704D01*
X106580520Y-63333773D01*
X106781600Y-62848323D01*
X106781600Y-62322877D01*
X106580520Y-61837427D01*
X106208973Y-61465880D01*
X105723523Y-61264800D01*
X105198077Y-61264800D01*
X104712627Y-61465880D01*
X104341080Y-61837427D01*
X104140000Y-62322877D01*
X104140000Y-62848323D01*
X104341080Y-63333773D01*
X104681613Y-63674306D01*
X104687782Y-63705320D01*
X104719086Y-63862695D01*
X104893117Y-64123151D01*
X104958863Y-64167081D01*
X106866626Y-66074844D01*
X98431064Y-74510407D01*
X98365315Y-74554339D01*
X98351911Y-74574400D01*
X97984477Y-74574400D01*
X97499027Y-74775480D01*
X97127480Y-75147027D01*
X96926400Y-75632477D01*
X96765229Y-75632477D01*
X96743259Y-75522029D01*
X98002069Y-74263220D01*
X98061445Y-74223546D01*
X98101120Y-74164169D01*
X98101124Y-74164165D01*
X98218635Y-73988298D01*
X98218635Y-73988297D01*
X98218636Y-73988296D01*
X98259900Y-73780846D01*
X98259900Y-73780843D01*
X98273832Y-73710801D01*
X98259900Y-73640759D01*
X98259900Y-62310342D01*
X98273832Y-62240300D01*
X98259900Y-62170258D01*
X98259900Y-62170254D01*
X98218636Y-61962804D01*
X98061446Y-61727554D01*
X98002064Y-61687876D01*
X96899963Y-60585775D01*
X96989000Y-60370822D01*
X96989000Y-59720378D01*
X100219000Y-59720378D01*
X100219000Y-60370822D01*
X100467914Y-60971753D01*
X100927847Y-61431686D01*
X101528778Y-61680600D01*
X102179222Y-61680600D01*
X102780153Y-61431686D01*
X103240086Y-60971753D01*
X103489000Y-60370822D01*
X103489000Y-59720378D01*
X103240086Y-59119447D01*
X102780153Y-58659514D01*
X102179222Y-58410600D01*
X101528778Y-58410600D01*
X100927847Y-58659514D01*
X100467914Y-59119447D01*
X100219000Y-59720378D01*
X96989000Y-59720378D01*
X96740086Y-59119447D01*
X96280153Y-58659514D01*
X95679222Y-58410600D01*
X95028778Y-58410600D01*
X94427847Y-58659514D01*
X93967914Y-59119447D01*
X93719000Y-59720378D01*
X93719000Y-60370822D01*
X93967914Y-60971753D01*
X94427847Y-61431686D01*
X95028778Y-61680600D01*
X95679222Y-61680600D01*
X95894175Y-61591563D01*
X96837501Y-62534889D01*
X96837500Y-72298947D01*
X96833434Y-72278505D01*
X96676245Y-72043255D01*
X96440995Y-71886066D01*
X96420616Y-71882012D01*
X96712339Y-71445418D01*
X96827592Y-70866000D01*
X96712339Y-70286582D01*
X96384125Y-69795375D01*
X96065022Y-69582157D01*
X96194858Y-69521183D01*
X96585145Y-69092924D01*
X96754976Y-68682890D01*
X96633655Y-68453000D01*
X95440500Y-68453000D01*
X95440500Y-68473000D01*
X95186500Y-68473000D01*
X95186500Y-68453000D01*
X93993345Y-68453000D01*
X93872024Y-68682890D01*
X94041855Y-69092924D01*
X94432142Y-69521183D01*
X94561978Y-69582157D01*
X94242875Y-69795375D01*
X93914661Y-70286582D01*
X93799408Y-70866000D01*
X93804404Y-70891115D01*
X92710000Y-69796712D01*
X92710000Y-67969110D01*
X93872024Y-67969110D01*
X93993345Y-68199000D01*
X95186500Y-68199000D01*
X95186500Y-67005181D01*
X95440500Y-67005181D01*
X95440500Y-68199000D01*
X96633655Y-68199000D01*
X96754976Y-67969110D01*
X96585145Y-67559076D01*
X96194858Y-67130817D01*
X95670392Y-66884514D01*
X95440500Y-67005181D01*
X95186500Y-67005181D01*
X94956608Y-66884514D01*
X94432142Y-67130817D01*
X94041855Y-67559076D01*
X93872024Y-67969110D01*
X92710000Y-67969110D01*
X92710000Y-61520723D01*
X92924953Y-61431686D01*
X93384886Y-60971753D01*
X93633800Y-60370822D01*
X93633800Y-59720378D01*
X93384886Y-59119447D01*
X92924953Y-58659514D01*
X92324022Y-58410600D01*
X91673578Y-58410600D01*
X91072647Y-58659514D01*
X90612714Y-59119447D01*
X90363800Y-59720378D01*
X90363800Y-60370822D01*
X90612714Y-60971753D01*
X91072647Y-61431686D01*
X91287601Y-61520723D01*
X91287600Y-70021259D01*
X91273668Y-70091300D01*
X91287600Y-70161341D01*
X91287600Y-70161345D01*
X91328864Y-70368795D01*
X91328865Y-70368796D01*
X91446376Y-70544664D01*
X91446378Y-70544666D01*
X91486054Y-70604045D01*
X91545434Y-70643722D01*
X93883741Y-72982029D01*
X93799408Y-73406000D01*
X93914661Y-73985418D01*
X94242875Y-74476625D01*
X94541261Y-74676000D01*
X94242875Y-74875375D01*
X93914661Y-75366582D01*
X93799408Y-75946000D01*
X93914661Y-76525418D01*
X94242875Y-77016625D01*
X94541261Y-77216000D01*
X94242875Y-77415375D01*
X93914661Y-77906582D01*
X93799408Y-78486000D01*
X93883741Y-78909971D01*
X90275434Y-82518278D01*
X90216055Y-82557954D01*
X90176379Y-82617333D01*
X90176376Y-82617336D01*
X90058865Y-82793204D01*
X90003668Y-83070700D01*
X90017601Y-83140746D01*
X90017601Y-83502345D01*
X84924207Y-78408952D01*
X85001100Y-78223316D01*
X85001100Y-77834284D01*
X84852223Y-77474864D01*
X84577136Y-77199777D01*
X84217716Y-77050900D01*
X83828684Y-77050900D01*
X83469264Y-77199777D01*
X83194177Y-77474864D01*
X83146334Y-77590366D01*
X83060120Y-77382227D01*
X82727800Y-77049907D01*
X82727800Y-63666093D01*
X83060120Y-63333773D01*
X83261200Y-62848323D01*
X83261200Y-62322877D01*
X83060120Y-61837427D01*
X82805797Y-61583104D01*
X83171353Y-61431686D01*
X83631286Y-60971753D01*
X83872000Y-60390619D01*
X84112714Y-60971753D01*
X84572647Y-61431686D01*
X85173578Y-61680600D01*
X85824022Y-61680600D01*
X86424953Y-61431686D01*
X86884886Y-60971753D01*
X87133800Y-60370822D01*
X87133800Y-59720378D01*
X86884886Y-59119447D01*
X86424953Y-58659514D01*
X85824022Y-58410600D01*
X85173578Y-58410600D01*
X84572647Y-58659514D01*
X84112714Y-59119447D01*
X83872000Y-59700581D01*
X83631286Y-59119447D01*
X83171353Y-58659514D01*
X82570422Y-58410600D01*
X81919978Y-58410600D01*
X81319047Y-58659514D01*
X80859114Y-59119447D01*
X80610200Y-59720378D01*
X80610200Y-60370822D01*
X80859114Y-60971753D01*
X81306081Y-61418720D01*
X81192227Y-61465880D01*
X80820680Y-61837427D01*
X80619600Y-62322877D01*
X80619600Y-62848323D01*
X80820680Y-63333773D01*
X81153001Y-63666094D01*
X81153001Y-68310812D01*
X78249600Y-65407412D01*
X78249600Y-61908842D01*
X78263532Y-61838800D01*
X78249600Y-61768758D01*
X78249600Y-61768754D01*
X78208336Y-61561304D01*
X78168133Y-61501136D01*
X78090824Y-61385435D01*
X78090822Y-61385433D01*
X78051146Y-61326054D01*
X77991767Y-61286378D01*
X77291164Y-60585775D01*
X77380200Y-60370822D01*
X77380200Y-59720378D01*
X77131286Y-59119447D01*
X76671353Y-58659514D01*
X76070422Y-58410600D01*
X75419978Y-58410600D01*
X74819047Y-58659514D01*
X74359114Y-59119447D01*
X74110200Y-59720378D01*
X73821800Y-59720378D01*
X73572886Y-59119447D01*
X73112953Y-58659514D01*
X72512022Y-58410600D01*
X71861578Y-58410600D01*
X71260647Y-58659514D01*
X70800714Y-59119447D01*
X70551800Y-59720378D01*
X70551800Y-60370822D01*
X70613187Y-60519024D01*
X69650634Y-61481578D01*
X69591255Y-61521254D01*
X69551579Y-61580633D01*
X69551576Y-61580636D01*
X69434065Y-61756504D01*
X69378868Y-62034000D01*
X69392801Y-62104046D01*
X69392800Y-65461958D01*
X69378868Y-65532000D01*
X69392800Y-65602041D01*
X69392800Y-65602045D01*
X69434064Y-65809495D01*
X69434065Y-65809496D01*
X69551576Y-65985364D01*
X69551578Y-65985366D01*
X69591254Y-66044745D01*
X69650634Y-66084422D01*
X70510400Y-66944189D01*
X70510400Y-67805300D01*
X70366684Y-67805300D01*
X70007264Y-67954177D01*
X69732177Y-68229264D01*
X69583300Y-68588684D01*
X69583300Y-68977716D01*
X69732177Y-69337136D01*
X69878996Y-69483955D01*
X69891264Y-69545629D01*
X69958878Y-69646819D01*
X70008776Y-69721497D01*
X70008778Y-69721499D01*
X70048455Y-69780879D01*
X70065901Y-69792536D01*
X70065901Y-71615300D01*
X70011084Y-71615300D01*
X69651664Y-71764177D01*
X69376577Y-72039264D01*
X69227700Y-72398684D01*
X69227700Y-72787716D01*
X69376577Y-73147136D01*
X69494401Y-73264960D01*
X69494401Y-75046588D01*
X69429172Y-75046588D01*
X69069752Y-75195465D01*
X68794665Y-75470552D01*
X68645788Y-75829972D01*
X68645788Y-76219004D01*
X68721653Y-76402159D01*
X68635664Y-76437777D01*
X68360577Y-76712864D01*
X68211700Y-77072284D01*
X68211700Y-77461316D01*
X68261130Y-77580651D01*
X68076864Y-77656977D01*
X67958031Y-77775810D01*
X67989476Y-77699890D01*
X67868155Y-77470000D01*
X66675000Y-77470000D01*
X66675000Y-77490000D01*
X66421000Y-77490000D01*
X66421000Y-77470000D01*
X65227845Y-77470000D01*
X65106524Y-77699890D01*
X65276355Y-78109924D01*
X65355528Y-78196800D01*
X61800044Y-78196800D01*
X61730002Y-78182868D01*
X61659960Y-78196800D01*
X61659956Y-78196800D01*
X61452506Y-78238064D01*
X61452504Y-78238065D01*
X61452505Y-78238065D01*
X61276637Y-78355576D01*
X61276635Y-78355578D01*
X61217256Y-78395254D01*
X61177580Y-78454633D01*
X60537513Y-79094701D01*
X60370885Y-79094701D01*
X60011465Y-79243578D01*
X59736378Y-79518665D01*
X59587501Y-79878085D01*
X59587501Y-80267117D01*
X59736378Y-80626537D01*
X60011465Y-80901624D01*
X60020143Y-80905219D01*
X59907804Y-80927564D01*
X59907803Y-80927565D01*
X59907802Y-80927565D01*
X59731935Y-81045076D01*
X59731933Y-81045078D01*
X59672554Y-81084754D01*
X59632878Y-81144133D01*
X58547000Y-82230012D01*
X58547000Y-81599848D01*
X58218312Y-80806325D01*
X57610975Y-80198988D01*
X56817452Y-79870300D01*
X55958548Y-79870300D01*
X55165025Y-80198988D01*
X54557688Y-80806325D01*
X54229000Y-81599848D01*
X54229000Y-82458752D01*
X54557688Y-83252275D01*
X55165025Y-83859612D01*
X55958548Y-84188300D01*
X56817452Y-84188300D01*
X57314202Y-83982539D01*
X57314202Y-85934988D01*
X57093056Y-85891000D01*
X56800544Y-85891000D01*
X56367382Y-85977161D01*
X55876175Y-86305375D01*
X55676800Y-86603761D01*
X55477425Y-86305375D01*
X54986218Y-85977161D01*
X54553056Y-85891000D01*
X54260544Y-85891000D01*
X53827382Y-85977161D01*
X53336175Y-86305375D01*
X53136800Y-86603761D01*
X52937425Y-86305375D01*
X52446218Y-85977161D01*
X52013056Y-85891000D01*
X51720544Y-85891000D01*
X51287382Y-85977161D01*
X50796175Y-86305375D01*
X50467961Y-86796582D01*
X50352708Y-87376000D01*
X47954000Y-87376000D01*
X47954000Y-77377084D01*
X51904900Y-77377084D01*
X51904900Y-77766116D01*
X52053777Y-78125536D01*
X52328864Y-78400623D01*
X52688284Y-78549500D01*
X53077316Y-78549500D01*
X53436736Y-78400623D01*
X53711823Y-78125536D01*
X53860700Y-77766116D01*
X53860700Y-77377084D01*
X53783807Y-77191448D01*
X53989145Y-76986110D01*
X65106524Y-76986110D01*
X65227845Y-77216000D01*
X66421000Y-77216000D01*
X66421000Y-76022181D01*
X66675000Y-76022181D01*
X66675000Y-77216000D01*
X67868155Y-77216000D01*
X67989476Y-76986110D01*
X67819645Y-76576076D01*
X67429358Y-76147817D01*
X66904892Y-75901514D01*
X66675000Y-76022181D01*
X66421000Y-76022181D01*
X66191108Y-75901514D01*
X65666642Y-76147817D01*
X65276355Y-76576076D01*
X65106524Y-76986110D01*
X53989145Y-76986110D01*
X55228957Y-75746298D01*
X55235981Y-75763255D01*
X55618245Y-76145519D01*
X56117698Y-76352400D01*
X56658302Y-76352400D01*
X57157755Y-76145519D01*
X57540019Y-75763255D01*
X57746900Y-75263802D01*
X57746900Y-75032616D01*
X57956335Y-75172557D01*
X58204100Y-75221840D01*
X59651900Y-75221840D01*
X59899665Y-75172557D01*
X60109709Y-75032209D01*
X60250057Y-74822165D01*
X60299340Y-74574400D01*
X60299340Y-73126600D01*
X60250057Y-72878835D01*
X60109709Y-72668791D01*
X59899665Y-72528443D01*
X59888126Y-72526148D01*
X60080019Y-72334255D01*
X60286900Y-71834802D01*
X60286900Y-71294198D01*
X60080019Y-70794745D01*
X59706774Y-70421500D01*
X60080019Y-70048255D01*
X60286900Y-69548802D01*
X60286900Y-69008198D01*
X60080019Y-68508745D01*
X59706774Y-68135500D01*
X60080019Y-67762255D01*
X60286900Y-67262802D01*
X60286900Y-66722198D01*
X60080019Y-66222745D01*
X59697755Y-65840481D01*
X59656341Y-65823327D01*
X59700996Y-65659101D01*
X58928000Y-64886105D01*
X58913858Y-64900248D01*
X58734253Y-64720643D01*
X58748395Y-64706500D01*
X59107605Y-64706500D01*
X59880601Y-65479496D01*
X60118841Y-65414716D01*
X60299216Y-64905091D01*
X60270836Y-64365233D01*
X60118841Y-63998284D01*
X59880601Y-63933504D01*
X59107605Y-64706500D01*
X58748395Y-64706500D01*
X58734253Y-64692358D01*
X58913858Y-64512753D01*
X58928000Y-64526895D01*
X59700996Y-63753899D01*
X59651971Y-63573602D01*
X59852574Y-63373000D01*
X60844707Y-63373000D01*
X61126227Y-63654520D01*
X61611677Y-63855600D01*
X62137123Y-63855600D01*
X62622573Y-63654520D01*
X62994120Y-63282973D01*
X63195200Y-62797523D01*
X63195200Y-62272077D01*
X62994120Y-61786627D01*
X62622573Y-61415080D01*
X62137123Y-61214000D01*
X61611677Y-61214000D01*
X61126227Y-61415080D01*
X60754680Y-61786627D01*
X60749886Y-61798200D01*
X59603972Y-61798200D01*
X59526421Y-61782774D01*
X59448870Y-61798200D01*
X59219194Y-61843885D01*
X58958738Y-62017916D01*
X58914808Y-62083662D01*
X57397362Y-63601109D01*
X57331616Y-63645039D01*
X57287686Y-63710785D01*
X57157585Y-63905495D01*
X57096473Y-64212723D01*
X57111900Y-64290279D01*
X57111900Y-64716339D01*
X57096216Y-64658659D01*
X56586591Y-64478284D01*
X56046733Y-64506664D01*
X55679784Y-64658659D01*
X55615004Y-64896899D01*
X56388000Y-65669895D01*
X56402143Y-65655753D01*
X56581748Y-65835358D01*
X56567605Y-65849500D01*
X56581748Y-65863643D01*
X56402143Y-66043248D01*
X56388000Y-66029105D01*
X55615004Y-66802101D01*
X55659659Y-66966327D01*
X55618245Y-66983481D01*
X55235981Y-67365745D01*
X55029100Y-67865198D01*
X55029100Y-68405802D01*
X55198425Y-68814587D01*
X55147710Y-68865301D01*
X55000019Y-68508745D01*
X54626774Y-68135500D01*
X55000019Y-67762255D01*
X55206900Y-67262802D01*
X55206900Y-66722198D01*
X55000019Y-66222745D01*
X54626774Y-65849500D01*
X54825365Y-65650909D01*
X55016784Y-65650909D01*
X55045164Y-66190767D01*
X55197159Y-66557716D01*
X55435399Y-66622496D01*
X56208395Y-65849500D01*
X55435399Y-65076504D01*
X55197159Y-65141284D01*
X55016784Y-65650909D01*
X54825365Y-65650909D01*
X55000019Y-65476255D01*
X55206900Y-64976802D01*
X55206900Y-64436198D01*
X55000019Y-63936745D01*
X54617755Y-63554481D01*
X54118302Y-63347600D01*
X53577698Y-63347600D01*
X53078245Y-63554481D01*
X52695981Y-63936745D01*
X52489100Y-64436198D01*
X52489100Y-64976802D01*
X52695981Y-65476255D01*
X53069226Y-65849500D01*
X52695981Y-66222745D01*
X52489100Y-66722198D01*
X52489100Y-67262802D01*
X52695981Y-67762255D01*
X53069226Y-68135500D01*
X52695981Y-68508745D01*
X52489100Y-69008198D01*
X52489100Y-69548802D01*
X52695981Y-70048255D01*
X53069226Y-70421500D01*
X52695981Y-70794745D01*
X52489100Y-71294198D01*
X52489100Y-71834802D01*
X52695981Y-72334255D01*
X53069226Y-72707500D01*
X52695981Y-73080745D01*
X52489100Y-73580198D01*
X52489100Y-74120802D01*
X52695981Y-74620255D01*
X53078245Y-75002519D01*
X53577698Y-75209400D01*
X53754278Y-75209400D01*
X52429434Y-76534245D01*
X52370055Y-76573921D01*
X52330378Y-76633301D01*
X52330376Y-76633303D01*
X52305100Y-76671132D01*
X52212864Y-76809171D01*
X52200596Y-76870845D01*
X52053777Y-77017664D01*
X51904900Y-77377084D01*
X47954000Y-77377084D01*
X47954000Y-59720378D01*
X64051800Y-59720378D01*
X64051800Y-60370822D01*
X64300714Y-60971753D01*
X64760647Y-61431686D01*
X65361578Y-61680600D01*
X66012022Y-61680600D01*
X66612953Y-61431686D01*
X67072886Y-60971753D01*
X67321800Y-60370822D01*
X67321800Y-59720378D01*
X67072886Y-59119447D01*
X66612953Y-58659514D01*
X66012022Y-58410600D01*
X65361578Y-58410600D01*
X64760647Y-58659514D01*
X64300714Y-59119447D01*
X64051800Y-59720378D01*
X47954000Y-59720378D01*
X47954000Y-56606248D01*
X54229000Y-56606248D01*
X54229000Y-57465152D01*
X54557688Y-58258675D01*
X55165025Y-58866012D01*
X55958548Y-59194700D01*
X56817452Y-59194700D01*
X57610975Y-58866012D01*
X58218312Y-58258675D01*
X58547000Y-57465152D01*
X58547000Y-56698132D01*
X64713873Y-56698132D01*
X64812536Y-56964987D01*
X65422261Y-57191508D01*
X66072260Y-57167456D01*
X66561064Y-56964987D01*
X66659727Y-56698132D01*
X71213873Y-56698132D01*
X71312536Y-56964987D01*
X71922261Y-57191508D01*
X72572260Y-57167456D01*
X73061064Y-56964987D01*
X73159727Y-56698132D01*
X74772273Y-56698132D01*
X74870936Y-56964987D01*
X75480661Y-57191508D01*
X76130660Y-57167456D01*
X76619464Y-56964987D01*
X76718127Y-56698132D01*
X81272273Y-56698132D01*
X81370936Y-56964987D01*
X81980661Y-57191508D01*
X82630660Y-57167456D01*
X83119464Y-56964987D01*
X83218127Y-56698132D01*
X84525873Y-56698132D01*
X84624536Y-56964987D01*
X85234261Y-57191508D01*
X85884260Y-57167456D01*
X86373064Y-56964987D01*
X86471727Y-56698132D01*
X91025873Y-56698132D01*
X91124536Y-56964987D01*
X91734261Y-57191508D01*
X92384260Y-57167456D01*
X92873064Y-56964987D01*
X92971727Y-56698132D01*
X94381073Y-56698132D01*
X94479736Y-56964987D01*
X95089461Y-57191508D01*
X95739460Y-57167456D01*
X96228264Y-56964987D01*
X96326927Y-56698132D01*
X100881073Y-56698132D01*
X100979736Y-56964987D01*
X101589461Y-57191508D01*
X102239460Y-57167456D01*
X102728264Y-56964987D01*
X102826927Y-56698132D01*
X102735043Y-56606248D01*
X108966000Y-56606248D01*
X108966000Y-57465152D01*
X109294688Y-58258675D01*
X109902025Y-58866012D01*
X110695548Y-59194700D01*
X111554452Y-59194700D01*
X112347975Y-58866012D01*
X112955312Y-58258675D01*
X113284000Y-57465152D01*
X113284000Y-56606248D01*
X112955312Y-55812725D01*
X112347975Y-55205388D01*
X111554452Y-54876700D01*
X110695548Y-54876700D01*
X109902025Y-55205388D01*
X109294688Y-55812725D01*
X108966000Y-56606248D01*
X102735043Y-56606248D01*
X101854000Y-55725205D01*
X100881073Y-56698132D01*
X96326927Y-56698132D01*
X95354000Y-55725205D01*
X94381073Y-56698132D01*
X92971727Y-56698132D01*
X91998800Y-55725205D01*
X91025873Y-56698132D01*
X86471727Y-56698132D01*
X85498800Y-55725205D01*
X84525873Y-56698132D01*
X83218127Y-56698132D01*
X82245200Y-55725205D01*
X81272273Y-56698132D01*
X76718127Y-56698132D01*
X75745200Y-55725205D01*
X74772273Y-56698132D01*
X73159727Y-56698132D01*
X72186800Y-55725205D01*
X71213873Y-56698132D01*
X66659727Y-56698132D01*
X65686800Y-55725205D01*
X64713873Y-56698132D01*
X58547000Y-56698132D01*
X58547000Y-56606248D01*
X58218312Y-55812725D01*
X57610975Y-55205388D01*
X56817452Y-54876700D01*
X55958548Y-54876700D01*
X55165025Y-55205388D01*
X54557688Y-55812725D01*
X54229000Y-56606248D01*
X47954000Y-56606248D01*
X47954000Y-54558000D01*
X64519592Y-54558000D01*
X64534266Y-54572674D01*
X64534266Y-54572674D01*
G37*
X64534266Y-54572674D02*
X64267413Y-54671336D01*
X64040892Y-55281061D01*
X64064944Y-55931060D01*
X64267413Y-56419864D01*
X64534268Y-56518527D01*
X65507195Y-55545600D01*
X65493053Y-55531458D01*
X65672658Y-55351853D01*
X65686800Y-55365995D01*
X65700943Y-55351853D01*
X65880548Y-55531458D01*
X65866405Y-55545600D01*
X66839332Y-56518527D01*
X67106187Y-56419864D01*
X67332708Y-55810139D01*
X67308656Y-55160140D01*
X67106187Y-54671336D01*
X66839334Y-54572674D01*
X66854008Y-54558000D01*
X71019592Y-54558000D01*
X71034266Y-54572674D01*
X70767413Y-54671336D01*
X70540892Y-55281061D01*
X70564944Y-55931060D01*
X70767413Y-56419864D01*
X71034268Y-56518527D01*
X72007195Y-55545600D01*
X71993053Y-55531458D01*
X72172658Y-55351853D01*
X72186800Y-55365995D01*
X72200943Y-55351853D01*
X72380548Y-55531458D01*
X72366405Y-55545600D01*
X73339332Y-56518527D01*
X73606187Y-56419864D01*
X73832708Y-55810139D01*
X73808656Y-55160140D01*
X73606187Y-54671336D01*
X73339334Y-54572674D01*
X73354008Y-54558000D01*
X74577992Y-54558000D01*
X74592666Y-54572674D01*
X74325813Y-54671336D01*
X74099292Y-55281061D01*
X74123344Y-55931060D01*
X74325813Y-56419864D01*
X74592668Y-56518527D01*
X75565595Y-55545600D01*
X75551453Y-55531458D01*
X75731058Y-55351853D01*
X75745200Y-55365995D01*
X75759343Y-55351853D01*
X75938948Y-55531458D01*
X75924805Y-55545600D01*
X76897732Y-56518527D01*
X77164587Y-56419864D01*
X77391108Y-55810139D01*
X77367056Y-55160140D01*
X77164587Y-54671336D01*
X76897734Y-54572674D01*
X76912408Y-54558000D01*
X81077992Y-54558000D01*
X81092666Y-54572674D01*
X80825813Y-54671336D01*
X80599292Y-55281061D01*
X80623344Y-55931060D01*
X80825813Y-56419864D01*
X81092668Y-56518527D01*
X82065595Y-55545600D01*
X82051453Y-55531458D01*
X82231058Y-55351853D01*
X82245200Y-55365995D01*
X82259343Y-55351853D01*
X82438948Y-55531458D01*
X82424805Y-55545600D01*
X83397732Y-56518527D01*
X83664587Y-56419864D01*
X83874158Y-55855764D01*
X83876944Y-55931060D01*
X84079413Y-56419864D01*
X84346268Y-56518527D01*
X85319195Y-55545600D01*
X85305053Y-55531458D01*
X85484658Y-55351853D01*
X85498800Y-55365995D01*
X85512943Y-55351853D01*
X85692548Y-55531458D01*
X85678405Y-55545600D01*
X86651332Y-56518527D01*
X86918187Y-56419864D01*
X87144708Y-55810139D01*
X87120656Y-55160140D01*
X86918187Y-54671336D01*
X86651334Y-54572674D01*
X86666008Y-54558000D01*
X90831592Y-54558000D01*
X90846266Y-54572674D01*
X90579413Y-54671336D01*
X90352892Y-55281061D01*
X90376944Y-55931060D01*
X90579413Y-56419864D01*
X90846268Y-56518527D01*
X91819195Y-55545600D01*
X91805053Y-55531458D01*
X91984658Y-55351853D01*
X91998800Y-55365995D01*
X92012943Y-55351853D01*
X92192548Y-55531458D01*
X92178405Y-55545600D01*
X93151332Y-56518527D01*
X93418187Y-56419864D01*
X93644708Y-55810139D01*
X93620656Y-55160140D01*
X93418187Y-54671336D01*
X93151334Y-54572674D01*
X93166008Y-54558000D01*
X94186792Y-54558000D01*
X94201466Y-54572674D01*
X93934613Y-54671336D01*
X93708092Y-55281061D01*
X93732144Y-55931060D01*
X93934613Y-56419864D01*
X94201468Y-56518527D01*
X95174395Y-55545600D01*
X95160253Y-55531458D01*
X95339858Y-55351853D01*
X95354000Y-55365995D01*
X95368143Y-55351853D01*
X95547748Y-55531458D01*
X95533605Y-55545600D01*
X96506532Y-56518527D01*
X96773387Y-56419864D01*
X96999908Y-55810139D01*
X96975856Y-55160140D01*
X96773387Y-54671336D01*
X96506534Y-54572674D01*
X96521208Y-54558000D01*
X100686792Y-54558000D01*
X100701466Y-54572674D01*
X100434613Y-54671336D01*
X100208092Y-55281061D01*
X100232144Y-55931060D01*
X100434613Y-56419864D01*
X100701468Y-56518527D01*
X101674395Y-55545600D01*
X101660253Y-55531458D01*
X101839858Y-55351853D01*
X101854000Y-55365995D01*
X101868143Y-55351853D01*
X102047748Y-55531458D01*
X102033605Y-55545600D01*
X103006532Y-56518527D01*
X103273387Y-56419864D01*
X103499908Y-55810139D01*
X103475856Y-55160140D01*
X103273387Y-54671336D01*
X103006534Y-54572674D01*
X103021208Y-54558000D01*
X119381201Y-54558000D01*
X119381200Y-107240000D01*
X47954000Y-107240000D01*
X47954000Y-87376000D01*
X50352708Y-87376000D01*
X50467961Y-87955418D01*
X50796175Y-88446625D01*
X50814419Y-88458816D01*
X50769035Y-88467843D01*
X50558991Y-88608191D01*
X50418643Y-88818235D01*
X50369360Y-89066000D01*
X50369360Y-90766000D01*
X50418643Y-91013765D01*
X50558991Y-91223809D01*
X50769035Y-91364157D01*
X51016800Y-91413440D01*
X51342224Y-91413440D01*
X51354055Y-91431146D01*
X51413434Y-91470822D01*
X51695387Y-91752775D01*
X51735065Y-91812157D01*
X51970315Y-91969347D01*
X52177765Y-92010611D01*
X52177769Y-92010611D01*
X52247811Y-92024543D01*
X52317853Y-92010611D01*
X53260423Y-92010611D01*
X54821591Y-93571779D01*
X54090617Y-93269000D01*
X52999383Y-93269000D01*
X51991215Y-93686597D01*
X51219597Y-94458215D01*
X50802000Y-95466383D01*
X50802000Y-96557617D01*
X51219597Y-97565785D01*
X51991215Y-98337403D01*
X52999383Y-98755000D01*
X54090617Y-98755000D01*
X55098785Y-98337403D01*
X55870403Y-97565785D01*
X56288000Y-96557617D01*
X56288000Y-95466383D01*
X55985221Y-94735409D01*
X56629300Y-95379489D01*
X56629300Y-95546116D01*
X56778177Y-95905536D01*
X57053264Y-96180623D01*
X57412684Y-96329500D01*
X57801716Y-96329500D01*
X58161136Y-96180623D01*
X58436223Y-95905536D01*
X58585100Y-95546116D01*
X58585100Y-95157084D01*
X58436223Y-94797664D01*
X58161136Y-94522577D01*
X57801716Y-94373700D01*
X57635089Y-94373700D01*
X55271999Y-92010611D01*
X60450401Y-92010611D01*
X60046634Y-92414378D01*
X59987254Y-92454055D01*
X59947578Y-92513434D01*
X59947576Y-92513436D01*
X59902367Y-92581096D01*
X59830064Y-92689305D01*
X59788800Y-92896755D01*
X59788800Y-92896759D01*
X59774868Y-92966800D01*
X59788800Y-93036842D01*
X59788800Y-93391992D01*
X59548235Y-93439843D01*
X59338191Y-93580191D01*
X59197843Y-93790235D01*
X59148560Y-94038000D01*
X59148560Y-95446000D01*
X59197843Y-95693765D01*
X59338191Y-95903809D01*
X59548235Y-96044157D01*
X59796000Y-96093440D01*
X61173800Y-96093440D01*
X61173800Y-96127265D01*
X61126517Y-96146850D01*
X60749850Y-96523517D01*
X60546000Y-97015656D01*
X60546000Y-97548344D01*
X60749850Y-98040483D01*
X61126517Y-98417150D01*
X61618656Y-98621000D01*
X62151344Y-98621000D01*
X62643483Y-98417150D01*
X63020150Y-98040483D01*
X63224000Y-97548344D01*
X63224000Y-97015656D01*
X63316000Y-97015656D01*
X63316000Y-97548344D01*
X63519850Y-98040483D01*
X63896517Y-98417150D01*
X64388656Y-98621000D01*
X64921344Y-98621000D01*
X65413483Y-98417150D01*
X65610458Y-98220175D01*
X66666430Y-98220175D01*
X66728761Y-98456356D01*
X67231166Y-98633402D01*
X67763079Y-98604710D01*
X68121239Y-98456356D01*
X68183570Y-98220175D01*
X67425000Y-97461605D01*
X66666430Y-98220175D01*
X65610458Y-98220175D01*
X65790150Y-98040483D01*
X65994000Y-97548344D01*
X65994000Y-97088166D01*
X66073598Y-97088166D01*
X66102290Y-97620079D01*
X66250644Y-97978239D01*
X66486825Y-98040570D01*
X67245395Y-97282000D01*
X67604605Y-97282000D01*
X68363175Y-98040570D01*
X68599356Y-97978239D01*
X68776402Y-97475834D01*
X68751580Y-97015656D01*
X68856000Y-97015656D01*
X68856000Y-97548344D01*
X69059850Y-98040483D01*
X69436517Y-98417150D01*
X69928656Y-98621000D01*
X70461344Y-98621000D01*
X70953483Y-98417150D01*
X71330150Y-98040483D01*
X71534000Y-97548344D01*
X71534000Y-97015656D01*
X71330150Y-96523517D01*
X70953483Y-96146850D01*
X70461344Y-95943000D01*
X69928656Y-95943000D01*
X69436517Y-96146850D01*
X69059850Y-96523517D01*
X68856000Y-97015656D01*
X68751580Y-97015656D01*
X68747710Y-96943921D01*
X68599356Y-96585761D01*
X68363175Y-96523430D01*
X67604605Y-97282000D01*
X67245395Y-97282000D01*
X66486825Y-96523430D01*
X66250644Y-96585761D01*
X66073598Y-97088166D01*
X65994000Y-97088166D01*
X65994000Y-97015656D01*
X65790150Y-96523517D01*
X65610458Y-96343825D01*
X66666430Y-96343825D01*
X67425000Y-97102395D01*
X68183570Y-96343825D01*
X68121239Y-96107644D01*
X67618834Y-95930598D01*
X67086921Y-95959290D01*
X66728761Y-96107644D01*
X66666430Y-96343825D01*
X65610458Y-96343825D01*
X65413483Y-96146850D01*
X64921344Y-95943000D01*
X64388656Y-95943000D01*
X63896517Y-96146850D01*
X63519850Y-96523517D01*
X63316000Y-97015656D01*
X63224000Y-97015656D01*
X63020150Y-96523517D01*
X62643483Y-96146850D01*
X62596200Y-96127265D01*
X62596200Y-95912227D01*
X63003656Y-96081000D01*
X63536344Y-96081000D01*
X64028483Y-95877150D01*
X64405150Y-95500483D01*
X64609000Y-95008344D01*
X64609000Y-94475656D01*
X64589415Y-94428373D01*
X64813336Y-94204453D01*
X64701000Y-94475656D01*
X64701000Y-95008344D01*
X64904850Y-95500483D01*
X65281517Y-95877150D01*
X65773656Y-96081000D01*
X66306344Y-96081000D01*
X66798483Y-95877150D01*
X67175150Y-95500483D01*
X67379000Y-95008344D01*
X67379000Y-94475656D01*
X67359415Y-94428373D01*
X67583336Y-94204453D01*
X67471000Y-94475656D01*
X67471000Y-95008344D01*
X67674850Y-95500483D01*
X68051517Y-95877150D01*
X68543656Y-96081000D01*
X69076344Y-96081000D01*
X69568483Y-95877150D01*
X69945150Y-95500483D01*
X70149000Y-95008344D01*
X70149000Y-94475656D01*
X70129415Y-94428373D01*
X70353336Y-94204453D01*
X70241000Y-94475656D01*
X70241000Y-95008344D01*
X70444850Y-95500483D01*
X70821517Y-95877150D01*
X71313656Y-96081000D01*
X71846344Y-96081000D01*
X72338483Y-95877150D01*
X72715150Y-95500483D01*
X72729274Y-95466383D01*
X75792000Y-95466383D01*
X75792000Y-96557617D01*
X76209597Y-97565785D01*
X76981215Y-98337403D01*
X77989383Y-98755000D01*
X79080617Y-98755000D01*
X80088785Y-98337403D01*
X80860403Y-97565785D01*
X81278000Y-96557617D01*
X81278000Y-95466383D01*
X81256958Y-95415583D01*
X86514400Y-95415583D01*
X86514400Y-96506817D01*
X86931997Y-97514985D01*
X87703615Y-98286603D01*
X88711783Y-98704200D01*
X89803017Y-98704200D01*
X90811185Y-98286603D01*
X91582803Y-97514985D01*
X92000400Y-96506817D01*
X92000400Y-95415583D01*
X91582803Y-94407415D01*
X90811185Y-93635797D01*
X89803017Y-93218200D01*
X88711783Y-93218200D01*
X87703615Y-93635797D01*
X86931997Y-94407415D01*
X86514400Y-95415583D01*
X81256958Y-95415583D01*
X80860403Y-94458215D01*
X80088785Y-93686597D01*
X79080617Y-93269000D01*
X77989383Y-93269000D01*
X76981215Y-93686597D01*
X76209597Y-94458215D01*
X75792000Y-95466383D01*
X72729274Y-95466383D01*
X72919000Y-95008344D01*
X72919000Y-94475656D01*
X72715150Y-93983517D01*
X72338483Y-93606850D01*
X71846344Y-93403000D01*
X71313656Y-93403000D01*
X71042453Y-93515335D01*
X71230468Y-93327321D01*
X71289847Y-93287645D01*
X71329523Y-93228266D01*
X71329525Y-93228264D01*
X71447036Y-93052396D01*
X71447037Y-93052395D01*
X71488301Y-92844945D01*
X71488301Y-92844941D01*
X71502233Y-92774899D01*
X71488301Y-92704857D01*
X71488301Y-89002890D01*
X72409024Y-89002890D01*
X72578855Y-89412924D01*
X72969142Y-89841183D01*
X73493608Y-90087486D01*
X73723500Y-89966819D01*
X73723500Y-88773000D01*
X73977500Y-88773000D01*
X73977500Y-89966819D01*
X74207392Y-90087486D01*
X74731858Y-89841183D01*
X75122145Y-89412924D01*
X75291976Y-89002890D01*
X75170655Y-88773000D01*
X73977500Y-88773000D01*
X73723500Y-88773000D01*
X72530345Y-88773000D01*
X72409024Y-89002890D01*
X71488301Y-89002890D01*
X71488301Y-83223100D01*
X71670116Y-83223100D01*
X72029536Y-83074223D01*
X72147359Y-82956400D01*
X72471828Y-82956400D01*
X72451661Y-82986582D01*
X72336408Y-83566000D01*
X72451661Y-84145418D01*
X72779875Y-84636625D01*
X73078261Y-84836000D01*
X72779875Y-85035375D01*
X72451661Y-85526582D01*
X72336408Y-86106000D01*
X72451661Y-86685418D01*
X72779875Y-87176625D01*
X73098978Y-87389843D01*
X72969142Y-87450817D01*
X72578855Y-87879076D01*
X72409024Y-88289110D01*
X72530345Y-88519000D01*
X73723500Y-88519000D01*
X73723500Y-88499000D01*
X73977500Y-88499000D01*
X73977500Y-88519000D01*
X75170655Y-88519000D01*
X75291976Y-88289110D01*
X75122145Y-87879076D01*
X74731858Y-87450817D01*
X74602022Y-87389843D01*
X74921125Y-87176625D01*
X75249339Y-86685418D01*
X75364592Y-86106000D01*
X75249339Y-85526582D01*
X74921125Y-85035375D01*
X74622739Y-84836000D01*
X74921125Y-84636625D01*
X75249339Y-84145418D01*
X75364592Y-83566000D01*
X75249339Y-82986582D01*
X75229172Y-82956400D01*
X76087041Y-82956400D01*
X76204864Y-83074223D01*
X76564284Y-83223100D01*
X76953316Y-83223100D01*
X77312736Y-83074223D01*
X77587823Y-82799136D01*
X77736700Y-82439716D01*
X77736700Y-82050684D01*
X77587823Y-81691264D01*
X77312736Y-81416177D01*
X76953316Y-81267300D01*
X76564284Y-81267300D01*
X76204864Y-81416177D01*
X76087041Y-81534000D01*
X75263545Y-81534000D01*
X75364592Y-81026000D01*
X75249339Y-80446582D01*
X74921125Y-79955375D01*
X74622739Y-79756000D01*
X74921125Y-79556625D01*
X75249339Y-79065418D01*
X75364592Y-78486000D01*
X75249339Y-77906582D01*
X74921125Y-77415375D01*
X74622739Y-77216000D01*
X74921125Y-77016625D01*
X75249339Y-76525418D01*
X75364592Y-75946000D01*
X75249339Y-75366582D01*
X74921125Y-74875375D01*
X74622739Y-74676000D01*
X74921125Y-74476625D01*
X75249339Y-73985418D01*
X75364592Y-73406000D01*
X75249339Y-72826582D01*
X74921125Y-72335375D01*
X74622739Y-72136000D01*
X74921125Y-71936625D01*
X75249339Y-71445418D01*
X75364592Y-70866000D01*
X75249339Y-70286582D01*
X74921125Y-69795375D01*
X74902881Y-69783184D01*
X74948265Y-69774157D01*
X75158309Y-69633809D01*
X75298657Y-69423765D01*
X75347940Y-69176000D01*
X75347940Y-67476000D01*
X75298657Y-67228235D01*
X75158309Y-67018191D01*
X74948265Y-66877843D01*
X74700500Y-66828560D01*
X73000500Y-66828560D01*
X72752735Y-66877843D01*
X72542691Y-67018191D01*
X72402343Y-67228235D01*
X72353060Y-67476000D01*
X72353060Y-69176000D01*
X72402343Y-69423765D01*
X72542691Y-69633809D01*
X72752735Y-69774157D01*
X72798119Y-69783184D01*
X72779875Y-69795375D01*
X72451661Y-70286582D01*
X72336408Y-70866000D01*
X72451661Y-71445418D01*
X72779875Y-71936625D01*
X73078261Y-72136000D01*
X72779875Y-72335375D01*
X72451661Y-72826582D01*
X72336408Y-73406000D01*
X72451661Y-73985418D01*
X72779875Y-74476625D01*
X73078261Y-74676000D01*
X72779875Y-74875375D01*
X72451661Y-75366582D01*
X72336408Y-75946000D01*
X72451661Y-76525418D01*
X72779875Y-77016625D01*
X73078261Y-77216000D01*
X72779875Y-77415375D01*
X72451661Y-77906582D01*
X72336408Y-78486000D01*
X72451661Y-79065418D01*
X72779875Y-79556625D01*
X73078261Y-79756000D01*
X72779875Y-79955375D01*
X72451661Y-80446582D01*
X72336408Y-81026000D01*
X72437455Y-81534000D01*
X72147359Y-81534000D01*
X72029536Y-81416177D01*
X71962677Y-81388483D01*
X72177624Y-81173536D01*
X72326501Y-80814116D01*
X72326501Y-80425084D01*
X72177624Y-80065664D01*
X71932800Y-79820840D01*
X71932800Y-66719641D01*
X71946732Y-66649599D01*
X71932800Y-66579555D01*
X71932800Y-66579554D01*
X71891536Y-66372104D01*
X71885198Y-66362618D01*
X71774024Y-66196235D01*
X71774020Y-66196231D01*
X71734345Y-66136854D01*
X71674969Y-66097180D01*
X70815200Y-65237412D01*
X70815200Y-62328588D01*
X71579874Y-61563914D01*
X71861578Y-61680600D01*
X72512022Y-61680600D01*
X73112953Y-61431686D01*
X73572886Y-60971753D01*
X73821800Y-60370822D01*
X73821800Y-59720378D01*
X74110200Y-59720378D01*
X74110200Y-60370822D01*
X74359114Y-60971753D01*
X74819047Y-61431686D01*
X75419978Y-61680600D01*
X76070422Y-61680600D01*
X76285375Y-61591564D01*
X76827201Y-62133390D01*
X76827200Y-65631958D01*
X76813268Y-65702000D01*
X76827200Y-65772041D01*
X76827200Y-65772045D01*
X76868464Y-65979495D01*
X76868465Y-65979496D01*
X76985976Y-66155364D01*
X76985978Y-66155366D01*
X77025654Y-66214745D01*
X77085034Y-66254422D01*
X80302100Y-69471489D01*
X80302100Y-69638116D01*
X80450977Y-69997536D01*
X80726064Y-70272623D01*
X81085484Y-70421500D01*
X81153000Y-70421500D01*
X81153000Y-77049907D01*
X80820680Y-77382227D01*
X80619600Y-77867677D01*
X80619600Y-78393123D01*
X80820680Y-78878573D01*
X81192227Y-79250120D01*
X81677677Y-79451200D01*
X82203123Y-79451200D01*
X82688573Y-79250120D01*
X83060120Y-78878573D01*
X83188418Y-78568833D01*
X83194177Y-78582736D01*
X83340996Y-78729555D01*
X83353264Y-78791229D01*
X83407311Y-78872115D01*
X83470776Y-78967097D01*
X83470778Y-78967099D01*
X83510455Y-79026479D01*
X83569834Y-79066155D01*
X88950800Y-84447122D01*
X88950801Y-89902738D01*
X88836500Y-90178684D01*
X88836500Y-90567716D01*
X88985377Y-90927136D01*
X89260464Y-91202223D01*
X89619884Y-91351100D01*
X90008916Y-91351100D01*
X90368336Y-91202223D01*
X90614785Y-90955774D01*
X94803578Y-95144567D01*
X94843254Y-95203946D01*
X94860960Y-95215777D01*
X94860960Y-95395200D01*
X94910243Y-95642965D01*
X95050591Y-95853009D01*
X95260635Y-95993357D01*
X95508400Y-96042640D01*
X96886201Y-96042640D01*
X96886201Y-96076465D01*
X96838917Y-96096050D01*
X96462250Y-96472717D01*
X96258400Y-96964856D01*
X96258400Y-97497544D01*
X96462250Y-97989683D01*
X96838917Y-98366350D01*
X97331056Y-98570200D01*
X97863744Y-98570200D01*
X98355883Y-98366350D01*
X98732550Y-97989683D01*
X98936400Y-97497544D01*
X98936400Y-96964856D01*
X99028400Y-96964856D01*
X99028400Y-97497544D01*
X99232250Y-97989683D01*
X99608917Y-98366350D01*
X100101056Y-98570200D01*
X100633744Y-98570200D01*
X101125883Y-98366350D01*
X101322858Y-98169375D01*
X102378830Y-98169375D01*
X102441161Y-98405556D01*
X102943566Y-98582602D01*
X103475479Y-98553910D01*
X103833639Y-98405556D01*
X103895970Y-98169375D01*
X103137400Y-97410805D01*
X102378830Y-98169375D01*
X101322858Y-98169375D01*
X101502550Y-97989683D01*
X101706400Y-97497544D01*
X101706400Y-97037366D01*
X101785998Y-97037366D01*
X101814690Y-97569279D01*
X101963044Y-97927439D01*
X102199225Y-97989770D01*
X102957795Y-97231200D01*
X103317005Y-97231200D01*
X104075575Y-97989770D01*
X104311756Y-97927439D01*
X104488802Y-97425034D01*
X104463980Y-96964856D01*
X104568400Y-96964856D01*
X104568400Y-97497544D01*
X104772250Y-97989683D01*
X105148917Y-98366350D01*
X105641056Y-98570200D01*
X106173744Y-98570200D01*
X106665883Y-98366350D01*
X107042550Y-97989683D01*
X107246400Y-97497544D01*
X107246400Y-96964856D01*
X107042550Y-96472717D01*
X106665883Y-96096050D01*
X106173744Y-95892200D01*
X105641056Y-95892200D01*
X105148917Y-96096050D01*
X104772250Y-96472717D01*
X104568400Y-96964856D01*
X104463980Y-96964856D01*
X104460110Y-96893121D01*
X104311756Y-96534961D01*
X104075575Y-96472630D01*
X103317005Y-97231200D01*
X102957795Y-97231200D01*
X102199225Y-96472630D01*
X101963044Y-96534961D01*
X101785998Y-97037366D01*
X101706400Y-97037366D01*
X101706400Y-96964856D01*
X101502550Y-96472717D01*
X101322858Y-96293025D01*
X102378830Y-96293025D01*
X103137400Y-97051595D01*
X103895970Y-96293025D01*
X103833639Y-96056844D01*
X103331234Y-95879798D01*
X102799321Y-95908490D01*
X102441161Y-96056844D01*
X102378830Y-96293025D01*
X101322858Y-96293025D01*
X101125883Y-96096050D01*
X100633744Y-95892200D01*
X100101056Y-95892200D01*
X99608917Y-96096050D01*
X99232250Y-96472717D01*
X99028400Y-96964856D01*
X98936400Y-96964856D01*
X98732550Y-96472717D01*
X98355883Y-96096050D01*
X98308600Y-96076465D01*
X98308600Y-95861427D01*
X98716056Y-96030200D01*
X99248744Y-96030200D01*
X99740883Y-95826350D01*
X100117550Y-95449683D01*
X100321400Y-94957544D01*
X100321400Y-94424856D01*
X100209064Y-94153653D01*
X100432985Y-94377574D01*
X100413400Y-94424856D01*
X100413400Y-94957544D01*
X100617250Y-95449683D01*
X100993917Y-95826350D01*
X101486056Y-96030200D01*
X102018744Y-96030200D01*
X102510883Y-95826350D01*
X102887550Y-95449683D01*
X103091400Y-94957544D01*
X103091400Y-94424856D01*
X102979064Y-94153653D01*
X103202985Y-94377574D01*
X103183400Y-94424856D01*
X103183400Y-94957544D01*
X103387250Y-95449683D01*
X103763917Y-95826350D01*
X104256056Y-96030200D01*
X104788744Y-96030200D01*
X105280883Y-95826350D01*
X105657550Y-95449683D01*
X105861400Y-94957544D01*
X105861400Y-94424856D01*
X105953400Y-94424856D01*
X105953400Y-94957544D01*
X106157250Y-95449683D01*
X106533917Y-95826350D01*
X107026056Y-96030200D01*
X107558744Y-96030200D01*
X108050883Y-95826350D01*
X108427550Y-95449683D01*
X108441674Y-95415583D01*
X111504400Y-95415583D01*
X111504400Y-96506817D01*
X111921997Y-97514985D01*
X112693615Y-98286603D01*
X113701783Y-98704200D01*
X114793017Y-98704200D01*
X115801185Y-98286603D01*
X116572803Y-97514985D01*
X116990400Y-96506817D01*
X116990400Y-95415583D01*
X116572803Y-94407415D01*
X115801185Y-93635797D01*
X114793017Y-93218200D01*
X113701783Y-93218200D01*
X112693615Y-93635797D01*
X111921997Y-94407415D01*
X111504400Y-95415583D01*
X108441674Y-95415583D01*
X108631400Y-94957544D01*
X108631400Y-94424856D01*
X108427550Y-93932717D01*
X108050883Y-93556050D01*
X107558744Y-93352200D01*
X107026056Y-93352200D01*
X106533917Y-93556050D01*
X106157250Y-93932717D01*
X105953400Y-94424856D01*
X105861400Y-94424856D01*
X105657550Y-93932717D01*
X105280883Y-93556050D01*
X104788744Y-93352200D01*
X104256056Y-93352200D01*
X104208774Y-93371785D01*
X101925223Y-91088235D01*
X101885546Y-91028854D01*
X101650296Y-90871664D01*
X101442846Y-90830400D01*
X101442841Y-90830400D01*
X101372800Y-90816468D01*
X101302759Y-90830400D01*
X97170189Y-90830400D01*
X96424861Y-90085072D01*
X96621309Y-89953809D01*
X96761657Y-89743765D01*
X96810940Y-89496000D01*
X96810940Y-87796000D01*
X96761657Y-87548235D01*
X96621309Y-87338191D01*
X96411265Y-87197843D01*
X96365881Y-87188816D01*
X96384125Y-87176625D01*
X96712339Y-86685418D01*
X96827592Y-86106000D01*
X96712339Y-85526582D01*
X96384125Y-85035375D01*
X96085739Y-84836000D01*
X96384125Y-84636625D01*
X96712339Y-84145418D01*
X96827592Y-83566000D01*
X96712339Y-82986582D01*
X96384125Y-82495375D01*
X96085739Y-82296000D01*
X96384125Y-82096625D01*
X96712339Y-81605418D01*
X96713446Y-81599848D01*
X108966000Y-81599848D01*
X108966000Y-82458752D01*
X109294688Y-83252275D01*
X109902025Y-83859612D01*
X110695548Y-84188300D01*
X111554452Y-84188300D01*
X112347975Y-83859612D01*
X112955312Y-83252275D01*
X113284000Y-82458752D01*
X113284000Y-81599848D01*
X112955312Y-80806325D01*
X112347975Y-80198988D01*
X111554452Y-79870300D01*
X110695548Y-79870300D01*
X109902025Y-80198988D01*
X109294688Y-80806325D01*
X108966000Y-81599848D01*
X96713446Y-81599848D01*
X96827592Y-81026000D01*
X96712339Y-80446582D01*
X96384125Y-79955375D01*
X96085739Y-79756000D01*
X96384125Y-79556625D01*
X96712339Y-79065418D01*
X96827592Y-78486000D01*
X96712339Y-77906582D01*
X96384125Y-77415375D01*
X96085739Y-77216000D01*
X96384125Y-77016625D01*
X96712339Y-76525418D01*
X96827592Y-75946000D01*
X96765229Y-75632477D01*
X96926400Y-75632477D01*
X96926400Y-76157923D01*
X97127480Y-76643373D01*
X97499027Y-77014920D01*
X97984477Y-77216000D01*
X98509923Y-77216000D01*
X98995373Y-77014920D01*
X99366920Y-76643373D01*
X99568000Y-76157923D01*
X99568000Y-75676338D01*
X99674714Y-75516629D01*
X99680368Y-75488205D01*
X106921299Y-68247275D01*
X106921300Y-76472853D01*
X106907367Y-76542899D01*
X106962564Y-76820395D01*
X107080075Y-76996263D01*
X107080078Y-76996266D01*
X107119754Y-77055645D01*
X107124500Y-77058816D01*
X107124500Y-77207316D01*
X107273377Y-77566736D01*
X107548464Y-77841823D01*
X107907884Y-77990700D01*
X108296916Y-77990700D01*
X108656336Y-77841823D01*
X108931423Y-77566736D01*
X109080300Y-77207316D01*
X109080300Y-76818284D01*
X108931423Y-76458864D01*
X108656336Y-76183777D01*
X108343699Y-76054278D01*
X108343699Y-75221840D01*
X109308900Y-75221840D01*
X109556665Y-75172557D01*
X109766100Y-75032616D01*
X109766100Y-75263802D01*
X109972981Y-75763255D01*
X110355245Y-76145519D01*
X110854698Y-76352400D01*
X111395302Y-76352400D01*
X111894755Y-76145519D01*
X112277019Y-75763255D01*
X112483900Y-75263802D01*
X112483900Y-74723198D01*
X112277019Y-74223745D01*
X111903774Y-73850500D01*
X112277019Y-73477255D01*
X112483900Y-72977802D01*
X112483900Y-72437198D01*
X112277019Y-71937745D01*
X111903774Y-71564500D01*
X112277019Y-71191255D01*
X112483900Y-70691802D01*
X112483900Y-70151198D01*
X112277019Y-69651745D01*
X111903774Y-69278500D01*
X112277019Y-68905255D01*
X112483900Y-68405802D01*
X112483900Y-67865198D01*
X112277019Y-67365745D01*
X111894755Y-66983481D01*
X111853341Y-66966327D01*
X111897996Y-66802101D01*
X111125000Y-66029105D01*
X111110858Y-66043248D01*
X110931253Y-65863643D01*
X110945395Y-65849500D01*
X111304605Y-65849500D01*
X112077601Y-66622496D01*
X112315841Y-66557716D01*
X112496216Y-66048091D01*
X112467836Y-65508233D01*
X112315841Y-65141284D01*
X112077601Y-65076504D01*
X111304605Y-65849500D01*
X110945395Y-65849500D01*
X110172399Y-65076504D01*
X109934159Y-65141284D01*
X109786632Y-65558102D01*
X109690393Y-65461864D01*
X109676871Y-65441627D01*
X109775841Y-65414716D01*
X109956216Y-64905091D01*
X109955786Y-64896899D01*
X110352004Y-64896899D01*
X111125000Y-65669895D01*
X111897996Y-64896899D01*
X111833216Y-64658659D01*
X111323591Y-64478284D01*
X110783733Y-64506664D01*
X110416784Y-64658659D01*
X110352004Y-64896899D01*
X109955786Y-64896899D01*
X109931567Y-64436198D01*
X112306100Y-64436198D01*
X112306100Y-64976802D01*
X112512981Y-65476255D01*
X112886226Y-65849500D01*
X112512981Y-66222745D01*
X112306100Y-66722198D01*
X112306100Y-67262802D01*
X112512981Y-67762255D01*
X112886226Y-68135500D01*
X112512981Y-68508745D01*
X112306100Y-69008198D01*
X112306100Y-69548802D01*
X112512981Y-70048255D01*
X112886226Y-70421500D01*
X112512981Y-70794745D01*
X112306100Y-71294198D01*
X112306100Y-71834802D01*
X112512981Y-72334255D01*
X112886226Y-72707500D01*
X112512981Y-73080745D01*
X112306100Y-73580198D01*
X112306100Y-74120802D01*
X112512981Y-74620255D01*
X112895245Y-75002519D01*
X113394698Y-75209400D01*
X113935302Y-75209400D01*
X114434755Y-75002519D01*
X114817019Y-74620255D01*
X115023900Y-74120802D01*
X115023900Y-73580198D01*
X114817019Y-73080745D01*
X114443774Y-72707500D01*
X114817019Y-72334255D01*
X115023900Y-71834802D01*
X115023900Y-71294198D01*
X114817019Y-70794745D01*
X114443774Y-70421500D01*
X114817019Y-70048255D01*
X115023900Y-69548802D01*
X115023900Y-69008198D01*
X114817019Y-68508745D01*
X114443774Y-68135500D01*
X114817019Y-67762255D01*
X115023900Y-67262802D01*
X115023900Y-66722198D01*
X114817019Y-66222745D01*
X114443774Y-65849500D01*
X114817019Y-65476255D01*
X115023900Y-64976802D01*
X115023900Y-64436198D01*
X114817019Y-63936745D01*
X114434755Y-63554481D01*
X113935302Y-63347600D01*
X113394698Y-63347600D01*
X112895245Y-63554481D01*
X112512981Y-63936745D01*
X112306100Y-64436198D01*
X109931567Y-64436198D01*
X109927836Y-64365233D01*
X109775841Y-63998284D01*
X109537601Y-63933504D01*
X108764605Y-64706500D01*
X108778748Y-64720643D01*
X108599143Y-64900248D01*
X108585000Y-64886105D01*
X108570858Y-64900248D01*
X108391253Y-64720643D01*
X108405395Y-64706500D01*
X107632399Y-63933504D01*
X107394159Y-63998284D01*
X107295609Y-64276724D01*
X106772784Y-63753899D01*
X107812004Y-63753899D01*
X108585000Y-64526895D01*
X109357996Y-63753899D01*
X109293216Y-63515659D01*
X108783591Y-63335284D01*
X108243733Y-63363664D01*
X107876784Y-63515659D01*
X107812004Y-63753899D01*
X106772784Y-63753899D01*
X106466589Y-63447704D01*
X106580520Y-63333773D01*
X106781600Y-62848323D01*
X106781600Y-62322877D01*
X106580520Y-61837427D01*
X106208973Y-61465880D01*
X105723523Y-61264800D01*
X105198077Y-61264800D01*
X104712627Y-61465880D01*
X104341080Y-61837427D01*
X104140000Y-62322877D01*
X104140000Y-62848323D01*
X104341080Y-63333773D01*
X104681613Y-63674306D01*
X104687782Y-63705320D01*
X104719086Y-63862695D01*
X104893117Y-64123151D01*
X104958863Y-64167081D01*
X106866626Y-66074844D01*
X98431064Y-74510407D01*
X98365315Y-74554339D01*
X98351911Y-74574400D01*
X97984477Y-74574400D01*
X97499027Y-74775480D01*
X97127480Y-75147027D01*
X96926400Y-75632477D01*
X96765229Y-75632477D01*
X96743259Y-75522029D01*
X98002069Y-74263220D01*
X98061445Y-74223546D01*
X98101120Y-74164169D01*
X98101124Y-74164165D01*
X98218635Y-73988298D01*
X98218635Y-73988297D01*
X98218636Y-73988296D01*
X98259900Y-73780846D01*
X98259900Y-73780843D01*
X98273832Y-73710801D01*
X98259900Y-73640759D01*
X98259900Y-62310342D01*
X98273832Y-62240300D01*
X98259900Y-62170258D01*
X98259900Y-62170254D01*
X98218636Y-61962804D01*
X98061446Y-61727554D01*
X98002064Y-61687876D01*
X96899963Y-60585775D01*
X96989000Y-60370822D01*
X96989000Y-59720378D01*
X100219000Y-59720378D01*
X100219000Y-60370822D01*
X100467914Y-60971753D01*
X100927847Y-61431686D01*
X101528778Y-61680600D01*
X102179222Y-61680600D01*
X102780153Y-61431686D01*
X103240086Y-60971753D01*
X103489000Y-60370822D01*
X103489000Y-59720378D01*
X103240086Y-59119447D01*
X102780153Y-58659514D01*
X102179222Y-58410600D01*
X101528778Y-58410600D01*
X100927847Y-58659514D01*
X100467914Y-59119447D01*
X100219000Y-59720378D01*
X96989000Y-59720378D01*
X96740086Y-59119447D01*
X96280153Y-58659514D01*
X95679222Y-58410600D01*
X95028778Y-58410600D01*
X94427847Y-58659514D01*
X93967914Y-59119447D01*
X93719000Y-59720378D01*
X93719000Y-60370822D01*
X93967914Y-60971753D01*
X94427847Y-61431686D01*
X95028778Y-61680600D01*
X95679222Y-61680600D01*
X95894175Y-61591563D01*
X96837501Y-62534889D01*
X96837500Y-72298947D01*
X96833434Y-72278505D01*
X96676245Y-72043255D01*
X96440995Y-71886066D01*
X96420616Y-71882012D01*
X96712339Y-71445418D01*
X96827592Y-70866000D01*
X96712339Y-70286582D01*
X96384125Y-69795375D01*
X96065022Y-69582157D01*
X96194858Y-69521183D01*
X96585145Y-69092924D01*
X96754976Y-68682890D01*
X96633655Y-68453000D01*
X95440500Y-68453000D01*
X95440500Y-68473000D01*
X95186500Y-68473000D01*
X95186500Y-68453000D01*
X93993345Y-68453000D01*
X93872024Y-68682890D01*
X94041855Y-69092924D01*
X94432142Y-69521183D01*
X94561978Y-69582157D01*
X94242875Y-69795375D01*
X93914661Y-70286582D01*
X93799408Y-70866000D01*
X93804404Y-70891115D01*
X92710000Y-69796712D01*
X92710000Y-67969110D01*
X93872024Y-67969110D01*
X93993345Y-68199000D01*
X95186500Y-68199000D01*
X95186500Y-67005181D01*
X95440500Y-67005181D01*
X95440500Y-68199000D01*
X96633655Y-68199000D01*
X96754976Y-67969110D01*
X96585145Y-67559076D01*
X96194858Y-67130817D01*
X95670392Y-66884514D01*
X95440500Y-67005181D01*
X95186500Y-67005181D01*
X94956608Y-66884514D01*
X94432142Y-67130817D01*
X94041855Y-67559076D01*
X93872024Y-67969110D01*
X92710000Y-67969110D01*
X92710000Y-61520723D01*
X92924953Y-61431686D01*
X93384886Y-60971753D01*
X93633800Y-60370822D01*
X93633800Y-59720378D01*
X93384886Y-59119447D01*
X92924953Y-58659514D01*
X92324022Y-58410600D01*
X91673578Y-58410600D01*
X91072647Y-58659514D01*
X90612714Y-59119447D01*
X90363800Y-59720378D01*
X90363800Y-60370822D01*
X90612714Y-60971753D01*
X91072647Y-61431686D01*
X91287601Y-61520723D01*
X91287600Y-70021259D01*
X91273668Y-70091300D01*
X91287600Y-70161341D01*
X91287600Y-70161345D01*
X91328864Y-70368795D01*
X91328865Y-70368796D01*
X91446376Y-70544664D01*
X91446378Y-70544666D01*
X91486054Y-70604045D01*
X91545434Y-70643722D01*
X93883741Y-72982029D01*
X93799408Y-73406000D01*
X93914661Y-73985418D01*
X94242875Y-74476625D01*
X94541261Y-74676000D01*
X94242875Y-74875375D01*
X93914661Y-75366582D01*
X93799408Y-75946000D01*
X93914661Y-76525418D01*
X94242875Y-77016625D01*
X94541261Y-77216000D01*
X94242875Y-77415375D01*
X93914661Y-77906582D01*
X93799408Y-78486000D01*
X93883741Y-78909971D01*
X90275434Y-82518278D01*
X90216055Y-82557954D01*
X90176379Y-82617333D01*
X90176376Y-82617336D01*
X90058865Y-82793204D01*
X90003668Y-83070700D01*
X90017601Y-83140746D01*
X90017601Y-83502345D01*
X84924207Y-78408952D01*
X85001100Y-78223316D01*
X85001100Y-77834284D01*
X84852223Y-77474864D01*
X84577136Y-77199777D01*
X84217716Y-77050900D01*
X83828684Y-77050900D01*
X83469264Y-77199777D01*
X83194177Y-77474864D01*
X83146334Y-77590366D01*
X83060120Y-77382227D01*
X82727800Y-77049907D01*
X82727800Y-63666093D01*
X83060120Y-63333773D01*
X83261200Y-62848323D01*
X83261200Y-62322877D01*
X83060120Y-61837427D01*
X82805797Y-61583104D01*
X83171353Y-61431686D01*
X83631286Y-60971753D01*
X83872000Y-60390619D01*
X84112714Y-60971753D01*
X84572647Y-61431686D01*
X85173578Y-61680600D01*
X85824022Y-61680600D01*
X86424953Y-61431686D01*
X86884886Y-60971753D01*
X87133800Y-60370822D01*
X87133800Y-59720378D01*
X86884886Y-59119447D01*
X86424953Y-58659514D01*
X85824022Y-58410600D01*
X85173578Y-58410600D01*
X84572647Y-58659514D01*
X84112714Y-59119447D01*
X83872000Y-59700581D01*
X83631286Y-59119447D01*
X83171353Y-58659514D01*
X82570422Y-58410600D01*
X81919978Y-58410600D01*
X81319047Y-58659514D01*
X80859114Y-59119447D01*
X80610200Y-59720378D01*
X80610200Y-60370822D01*
X80859114Y-60971753D01*
X81306081Y-61418720D01*
X81192227Y-61465880D01*
X80820680Y-61837427D01*
X80619600Y-62322877D01*
X80619600Y-62848323D01*
X80820680Y-63333773D01*
X81153001Y-63666094D01*
X81153001Y-68310812D01*
X78249600Y-65407412D01*
X78249600Y-61908842D01*
X78263532Y-61838800D01*
X78249600Y-61768758D01*
X78249600Y-61768754D01*
X78208336Y-61561304D01*
X78168133Y-61501136D01*
X78090824Y-61385435D01*
X78090822Y-61385433D01*
X78051146Y-61326054D01*
X77991767Y-61286378D01*
X77291164Y-60585775D01*
X77380200Y-60370822D01*
X77380200Y-59720378D01*
X77131286Y-59119447D01*
X76671353Y-58659514D01*
X76070422Y-58410600D01*
X75419978Y-58410600D01*
X74819047Y-58659514D01*
X74359114Y-59119447D01*
X74110200Y-59720378D01*
X73821800Y-59720378D01*
X73572886Y-59119447D01*
X73112953Y-58659514D01*
X72512022Y-58410600D01*
X71861578Y-58410600D01*
X71260647Y-58659514D01*
X70800714Y-59119447D01*
X70551800Y-59720378D01*
X70551800Y-60370822D01*
X70613187Y-60519024D01*
X69650634Y-61481578D01*
X69591255Y-61521254D01*
X69551579Y-61580633D01*
X69551576Y-61580636D01*
X69434065Y-61756504D01*
X69378868Y-62034000D01*
X69392801Y-62104046D01*
X69392800Y-65461958D01*
X69378868Y-65532000D01*
X69392800Y-65602041D01*
X69392800Y-65602045D01*
X69434064Y-65809495D01*
X69434065Y-65809496D01*
X69551576Y-65985364D01*
X69551578Y-65985366D01*
X69591254Y-66044745D01*
X69650634Y-66084422D01*
X70510400Y-66944189D01*
X70510400Y-67805300D01*
X70366684Y-67805300D01*
X70007264Y-67954177D01*
X69732177Y-68229264D01*
X69583300Y-68588684D01*
X69583300Y-68977716D01*
X69732177Y-69337136D01*
X69878996Y-69483955D01*
X69891264Y-69545629D01*
X69958878Y-69646819D01*
X70008776Y-69721497D01*
X70008778Y-69721499D01*
X70048455Y-69780879D01*
X70065901Y-69792536D01*
X70065901Y-71615300D01*
X70011084Y-71615300D01*
X69651664Y-71764177D01*
X69376577Y-72039264D01*
X69227700Y-72398684D01*
X69227700Y-72787716D01*
X69376577Y-73147136D01*
X69494401Y-73264960D01*
X69494401Y-75046588D01*
X69429172Y-75046588D01*
X69069752Y-75195465D01*
X68794665Y-75470552D01*
X68645788Y-75829972D01*
X68645788Y-76219004D01*
X68721653Y-76402159D01*
X68635664Y-76437777D01*
X68360577Y-76712864D01*
X68211700Y-77072284D01*
X68211700Y-77461316D01*
X68261130Y-77580651D01*
X68076864Y-77656977D01*
X67958031Y-77775810D01*
X67989476Y-77699890D01*
X67868155Y-77470000D01*
X66675000Y-77470000D01*
X66675000Y-77490000D01*
X66421000Y-77490000D01*
X66421000Y-77470000D01*
X65227845Y-77470000D01*
X65106524Y-77699890D01*
X65276355Y-78109924D01*
X65355528Y-78196800D01*
X61800044Y-78196800D01*
X61730002Y-78182868D01*
X61659960Y-78196800D01*
X61659956Y-78196800D01*
X61452506Y-78238064D01*
X61452504Y-78238065D01*
X61452505Y-78238065D01*
X61276637Y-78355576D01*
X61276635Y-78355578D01*
X61217256Y-78395254D01*
X61177580Y-78454633D01*
X60537513Y-79094701D01*
X60370885Y-79094701D01*
X60011465Y-79243578D01*
X59736378Y-79518665D01*
X59587501Y-79878085D01*
X59587501Y-80267117D01*
X59736378Y-80626537D01*
X60011465Y-80901624D01*
X60020143Y-80905219D01*
X59907804Y-80927564D01*
X59907803Y-80927565D01*
X59907802Y-80927565D01*
X59731935Y-81045076D01*
X59731933Y-81045078D01*
X59672554Y-81084754D01*
X59632878Y-81144133D01*
X58547000Y-82230012D01*
X58547000Y-81599848D01*
X58218312Y-80806325D01*
X57610975Y-80198988D01*
X56817452Y-79870300D01*
X55958548Y-79870300D01*
X55165025Y-80198988D01*
X54557688Y-80806325D01*
X54229000Y-81599848D01*
X54229000Y-82458752D01*
X54557688Y-83252275D01*
X55165025Y-83859612D01*
X55958548Y-84188300D01*
X56817452Y-84188300D01*
X57314202Y-83982539D01*
X57314202Y-85934988D01*
X57093056Y-85891000D01*
X56800544Y-85891000D01*
X56367382Y-85977161D01*
X55876175Y-86305375D01*
X55676800Y-86603761D01*
X55477425Y-86305375D01*
X54986218Y-85977161D01*
X54553056Y-85891000D01*
X54260544Y-85891000D01*
X53827382Y-85977161D01*
X53336175Y-86305375D01*
X53136800Y-86603761D01*
X52937425Y-86305375D01*
X52446218Y-85977161D01*
X52013056Y-85891000D01*
X51720544Y-85891000D01*
X51287382Y-85977161D01*
X50796175Y-86305375D01*
X50467961Y-86796582D01*
X50352708Y-87376000D01*
X47954000Y-87376000D01*
X47954000Y-77377084D01*
X51904900Y-77377084D01*
X51904900Y-77766116D01*
X52053777Y-78125536D01*
X52328864Y-78400623D01*
X52688284Y-78549500D01*
X53077316Y-78549500D01*
X53436736Y-78400623D01*
X53711823Y-78125536D01*
X53860700Y-77766116D01*
X53860700Y-77377084D01*
X53783807Y-77191448D01*
X53989145Y-76986110D01*
X65106524Y-76986110D01*
X65227845Y-77216000D01*
X66421000Y-77216000D01*
X66421000Y-76022181D01*
X66675000Y-76022181D01*
X66675000Y-77216000D01*
X67868155Y-77216000D01*
X67989476Y-76986110D01*
X67819645Y-76576076D01*
X67429358Y-76147817D01*
X66904892Y-75901514D01*
X66675000Y-76022181D01*
X66421000Y-76022181D01*
X66191108Y-75901514D01*
X65666642Y-76147817D01*
X65276355Y-76576076D01*
X65106524Y-76986110D01*
X53989145Y-76986110D01*
X55228957Y-75746298D01*
X55235981Y-75763255D01*
X55618245Y-76145519D01*
X56117698Y-76352400D01*
X56658302Y-76352400D01*
X57157755Y-76145519D01*
X57540019Y-75763255D01*
X57746900Y-75263802D01*
X57746900Y-75032616D01*
X57956335Y-75172557D01*
X58204100Y-75221840D01*
X59651900Y-75221840D01*
X59899665Y-75172557D01*
X60109709Y-75032209D01*
X60250057Y-74822165D01*
X60299340Y-74574400D01*
X60299340Y-73126600D01*
X60250057Y-72878835D01*
X60109709Y-72668791D01*
X59899665Y-72528443D01*
X59888126Y-72526148D01*
X60080019Y-72334255D01*
X60286900Y-71834802D01*
X60286900Y-71294198D01*
X60080019Y-70794745D01*
X59706774Y-70421500D01*
X60080019Y-70048255D01*
X60286900Y-69548802D01*
X60286900Y-69008198D01*
X60080019Y-68508745D01*
X59706774Y-68135500D01*
X60080019Y-67762255D01*
X60286900Y-67262802D01*
X60286900Y-66722198D01*
X60080019Y-66222745D01*
X59697755Y-65840481D01*
X59656341Y-65823327D01*
X59700996Y-65659101D01*
X58928000Y-64886105D01*
X58913858Y-64900248D01*
X58734253Y-64720643D01*
X58748395Y-64706500D01*
X59107605Y-64706500D01*
X59880601Y-65479496D01*
X60118841Y-65414716D01*
X60299216Y-64905091D01*
X60270836Y-64365233D01*
X60118841Y-63998284D01*
X59880601Y-63933504D01*
X59107605Y-64706500D01*
X58748395Y-64706500D01*
X58734253Y-64692358D01*
X58913858Y-64512753D01*
X58928000Y-64526895D01*
X59700996Y-63753899D01*
X59651971Y-63573602D01*
X59852574Y-63373000D01*
X60844707Y-63373000D01*
X61126227Y-63654520D01*
X61611677Y-63855600D01*
X62137123Y-63855600D01*
X62622573Y-63654520D01*
X62994120Y-63282973D01*
X63195200Y-62797523D01*
X63195200Y-62272077D01*
X62994120Y-61786627D01*
X62622573Y-61415080D01*
X62137123Y-61214000D01*
X61611677Y-61214000D01*
X61126227Y-61415080D01*
X60754680Y-61786627D01*
X60749886Y-61798200D01*
X59603972Y-61798200D01*
X59526421Y-61782774D01*
X59448870Y-61798200D01*
X59219194Y-61843885D01*
X58958738Y-62017916D01*
X58914808Y-62083662D01*
X57397362Y-63601109D01*
X57331616Y-63645039D01*
X57287686Y-63710785D01*
X57157585Y-63905495D01*
X57096473Y-64212723D01*
X57111900Y-64290279D01*
X57111900Y-64716339D01*
X57096216Y-64658659D01*
X56586591Y-64478284D01*
X56046733Y-64506664D01*
X55679784Y-64658659D01*
X55615004Y-64896899D01*
X56388000Y-65669895D01*
X56402143Y-65655753D01*
X56581748Y-65835358D01*
X56567605Y-65849500D01*
X56581748Y-65863643D01*
X56402143Y-66043248D01*
X56388000Y-66029105D01*
X55615004Y-66802101D01*
X55659659Y-66966327D01*
X55618245Y-66983481D01*
X55235981Y-67365745D01*
X55029100Y-67865198D01*
X55029100Y-68405802D01*
X55198425Y-68814587D01*
X55147710Y-68865301D01*
X55000019Y-68508745D01*
X54626774Y-68135500D01*
X55000019Y-67762255D01*
X55206900Y-67262802D01*
X55206900Y-66722198D01*
X55000019Y-66222745D01*
X54626774Y-65849500D01*
X54825365Y-65650909D01*
X55016784Y-65650909D01*
X55045164Y-66190767D01*
X55197159Y-66557716D01*
X55435399Y-66622496D01*
X56208395Y-65849500D01*
X55435399Y-65076504D01*
X55197159Y-65141284D01*
X55016784Y-65650909D01*
X54825365Y-65650909D01*
X55000019Y-65476255D01*
X55206900Y-64976802D01*
X55206900Y-64436198D01*
X55000019Y-63936745D01*
X54617755Y-63554481D01*
X54118302Y-63347600D01*
X53577698Y-63347600D01*
X53078245Y-63554481D01*
X52695981Y-63936745D01*
X52489100Y-64436198D01*
X52489100Y-64976802D01*
X52695981Y-65476255D01*
X53069226Y-65849500D01*
X52695981Y-66222745D01*
X52489100Y-66722198D01*
X52489100Y-67262802D01*
X52695981Y-67762255D01*
X53069226Y-68135500D01*
X52695981Y-68508745D01*
X52489100Y-69008198D01*
X52489100Y-69548802D01*
X52695981Y-70048255D01*
X53069226Y-70421500D01*
X52695981Y-70794745D01*
X52489100Y-71294198D01*
X52489100Y-71834802D01*
X52695981Y-72334255D01*
X53069226Y-72707500D01*
X52695981Y-73080745D01*
X52489100Y-73580198D01*
X52489100Y-74120802D01*
X52695981Y-74620255D01*
X53078245Y-75002519D01*
X53577698Y-75209400D01*
X53754278Y-75209400D01*
X52429434Y-76534245D01*
X52370055Y-76573921D01*
X52330378Y-76633301D01*
X52330376Y-76633303D01*
X52305100Y-76671132D01*
X52212864Y-76809171D01*
X52200596Y-76870845D01*
X52053777Y-77017664D01*
X51904900Y-77377084D01*
X47954000Y-77377084D01*
X47954000Y-59720378D01*
X64051800Y-59720378D01*
X64051800Y-60370822D01*
X64300714Y-60971753D01*
X64760647Y-61431686D01*
X65361578Y-61680600D01*
X66012022Y-61680600D01*
X66612953Y-61431686D01*
X67072886Y-60971753D01*
X67321800Y-60370822D01*
X67321800Y-59720378D01*
X67072886Y-59119447D01*
X66612953Y-58659514D01*
X66012022Y-58410600D01*
X65361578Y-58410600D01*
X64760647Y-58659514D01*
X64300714Y-59119447D01*
X64051800Y-59720378D01*
X47954000Y-59720378D01*
X47954000Y-56606248D01*
X54229000Y-56606248D01*
X54229000Y-57465152D01*
X54557688Y-58258675D01*
X55165025Y-58866012D01*
X55958548Y-59194700D01*
X56817452Y-59194700D01*
X57610975Y-58866012D01*
X58218312Y-58258675D01*
X58547000Y-57465152D01*
X58547000Y-56698132D01*
X64713873Y-56698132D01*
X64812536Y-56964987D01*
X65422261Y-57191508D01*
X66072260Y-57167456D01*
X66561064Y-56964987D01*
X66659727Y-56698132D01*
X71213873Y-56698132D01*
X71312536Y-56964987D01*
X71922261Y-57191508D01*
X72572260Y-57167456D01*
X73061064Y-56964987D01*
X73159727Y-56698132D01*
X74772273Y-56698132D01*
X74870936Y-56964987D01*
X75480661Y-57191508D01*
X76130660Y-57167456D01*
X76619464Y-56964987D01*
X76718127Y-56698132D01*
X81272273Y-56698132D01*
X81370936Y-56964987D01*
X81980661Y-57191508D01*
X82630660Y-57167456D01*
X83119464Y-56964987D01*
X83218127Y-56698132D01*
X84525873Y-56698132D01*
X84624536Y-56964987D01*
X85234261Y-57191508D01*
X85884260Y-57167456D01*
X86373064Y-56964987D01*
X86471727Y-56698132D01*
X91025873Y-56698132D01*
X91124536Y-56964987D01*
X91734261Y-57191508D01*
X92384260Y-57167456D01*
X92873064Y-56964987D01*
X92971727Y-56698132D01*
X94381073Y-56698132D01*
X94479736Y-56964987D01*
X95089461Y-57191508D01*
X95739460Y-57167456D01*
X96228264Y-56964987D01*
X96326927Y-56698132D01*
X100881073Y-56698132D01*
X100979736Y-56964987D01*
X101589461Y-57191508D01*
X102239460Y-57167456D01*
X102728264Y-56964987D01*
X102826927Y-56698132D01*
X102735043Y-56606248D01*
X108966000Y-56606248D01*
X108966000Y-57465152D01*
X109294688Y-58258675D01*
X109902025Y-58866012D01*
X110695548Y-59194700D01*
X111554452Y-59194700D01*
X112347975Y-58866012D01*
X112955312Y-58258675D01*
X113284000Y-57465152D01*
X113284000Y-56606248D01*
X112955312Y-55812725D01*
X112347975Y-55205388D01*
X111554452Y-54876700D01*
X110695548Y-54876700D01*
X109902025Y-55205388D01*
X109294688Y-55812725D01*
X108966000Y-56606248D01*
X102735043Y-56606248D01*
X101854000Y-55725205D01*
X100881073Y-56698132D01*
X96326927Y-56698132D01*
X95354000Y-55725205D01*
X94381073Y-56698132D01*
X92971727Y-56698132D01*
X91998800Y-55725205D01*
X91025873Y-56698132D01*
X86471727Y-56698132D01*
X85498800Y-55725205D01*
X84525873Y-56698132D01*
X83218127Y-56698132D01*
X82245200Y-55725205D01*
X81272273Y-56698132D01*
X76718127Y-56698132D01*
X75745200Y-55725205D01*
X74772273Y-56698132D01*
X73159727Y-56698132D01*
X72186800Y-55725205D01*
X71213873Y-56698132D01*
X66659727Y-56698132D01*
X65686800Y-55725205D01*
X64713873Y-56698132D01*
X58547000Y-56698132D01*
X58547000Y-56606248D01*
X58218312Y-55812725D01*
X57610975Y-55205388D01*
X56817452Y-54876700D01*
X55958548Y-54876700D01*
X55165025Y-55205388D01*
X54557688Y-55812725D01*
X54229000Y-56606248D01*
X47954000Y-56606248D01*
X47954000Y-54558000D01*
X64519592Y-54558000D01*
X64534266Y-54572674D01*
M02*
