M48
;DRILL file {KiCad (5.0.1-3-g963ef8bb5)} date Friday, January 11, 2019 at 12:28:58 AM
;FORMAT={-:-/ absolute / inch / decimal}
FMAT,2
INCH,TZ
T1C0.0130
T2C0.0270
T3C0.0354
T4C0.0370
T5C0.0394
T6C0.0433
T7C0.1260
%
G90
G05
M72
T1
X2.082Y-3.054
X2.268Y-3.754
X2.3845Y-3.1525
X2.702Y-3.09
X2.724Y-3.042
X2.7411Y-2.9931
X2.764Y-2.858
X2.778Y-2.708
X2.809Y-3.174
X2.814Y-3.238
X3.022Y-3.238
X3.2Y-2.734
X3.308Y-3.072
X3.536Y-3.558
X4.256Y-3.032
T2
X2.436Y-2.462
X3.034Y-3.16
X3.138Y-3.51
X3.226Y-2.464
X3.226Y-3.076
X3.392Y-3.296
X3.868Y-2.988
X4.152Y-2.464
X4.444Y-3.596
T3
X2.3819Y-3.73
X2.4364Y-3.83
X2.4909Y-3.73
X2.5455Y-3.83
X2.6Y-3.73
X2.6545Y-3.83
X2.7091Y-3.73
X2.7636Y-3.83
X2.8181Y-3.73
X3.7879Y-3.728
X3.8424Y-3.828
X3.8969Y-3.728
X3.9515Y-3.828
X4.006Y-3.728
X4.0605Y-3.828
X4.1151Y-3.728
X4.1696Y-3.828
X4.2241Y-3.728
T4
X4.275Y-2.5475
X4.275Y-2.6375
X4.275Y-2.7275
X4.275Y-2.8175
X4.275Y-2.9075
X4.375Y-2.5925
X4.375Y-2.6825
X4.375Y-2.7725
X4.375Y-2.8625
X4.375Y-2.9525
X4.475Y-2.5475
X4.475Y-2.6375
X4.475Y-2.7275
X4.475Y-2.8175
X4.475Y-2.9075
X2.12Y-2.5475
X2.12Y-2.6375
X2.12Y-2.7275
X2.12Y-2.8175
X2.12Y-2.9075
X2.22Y-2.5925
X2.22Y-2.6825
X2.22Y-2.7725
X2.22Y-2.8625
X2.22Y-2.9525
X2.32Y-2.5475
X2.32Y-2.6375
X2.32Y-2.7275
X2.32Y-2.8175
X2.32Y-2.9075
T5
X2.042Y-3.44
X2.042Y-3.54
X2.142Y-3.44
X2.142Y-3.54
X2.242Y-3.44
X2.242Y-3.54
X2.342Y-3.44
X2.342Y-3.54
X2.9075Y-2.69
X2.9075Y-2.79
X2.9075Y-2.89
X2.9075Y-2.99
X2.9075Y-3.09
X2.9075Y-3.19
X2.9075Y-3.29
X2.9075Y-3.39
X2.9075Y-3.49
X2.62Y-3.045
X2.62Y-3.145
X2.62Y-3.245
X2.62Y-3.345
X2.62Y-3.445
X2.62Y-3.545
X3.7525Y-2.69
X3.7525Y-2.79
X3.7525Y-2.89
X3.7525Y-2.99
X3.7525Y-3.09
X3.7525Y-3.19
X3.7525Y-3.29
X3.7525Y-3.39
X3.7525Y-3.49
T6
X2.9821Y-2.1868
X2.9821Y-2.364
X3.238Y-2.1868
X3.238Y-2.364
X3.7541Y-2.1868
X3.7541Y-2.364
X4.01Y-2.1868
X4.01Y-2.364
X3.3661Y-2.1868
X3.3661Y-2.364
X3.622Y-2.1868
X3.622Y-2.364
X2.5861Y-2.1868
X2.5861Y-2.364
X2.842Y-2.1868
X2.842Y-2.364
T7
X2.1081Y-3.78
X3.0919Y-3.78
X3.5141Y-3.778
X4.4979Y-3.778
T0
M30
