%TF.GenerationSoftware,KiCad,Pcbnew,(5.0.1-3-g963ef8bb5)*%
%TF.CreationDate,2019-01-11T00:28:31-08:00*%
%TF.ProjectId,vga_i2c,7667615F6932632E6B696361645F7063,rev?*%
%TF.SameCoordinates,Original*%
%TF.FileFunction,Soldermask,Bot*%
%TF.FilePolarity,Negative*%
%FSLAX46Y46*%
G04 Gerber Fmt 4.6, Leading zero omitted, Abs format (unit mm)*
G04 Created by KiCad (PCBNEW (5.0.1-3-g963ef8bb5)) date Friday, January 11, 2019 at 12:28:31 AM*
%MOMM*%
%LPD*%
G01*
G04 APERTURE LIST*
%ADD10C,0.100000*%
G04 APERTURE END LIST*
D10*
G36*
X78909308Y-93885361D02*
X79164699Y-93936161D01*
X79557575Y-94098896D01*
X79911155Y-94335150D01*
X80211850Y-94635845D01*
X80448104Y-94989425D01*
X80610839Y-95382301D01*
X80623509Y-95446000D01*
X80683696Y-95748577D01*
X80693800Y-95799377D01*
X80693800Y-96224623D01*
X80610839Y-96641699D01*
X80448104Y-97034575D01*
X80211850Y-97388155D01*
X79911155Y-97688850D01*
X79557575Y-97925104D01*
X79164699Y-98087839D01*
X78914453Y-98137616D01*
X78747625Y-98170800D01*
X78322375Y-98170800D01*
X78155547Y-98137616D01*
X77905301Y-98087839D01*
X77512425Y-97925104D01*
X77158845Y-97688850D01*
X76858150Y-97388155D01*
X76621896Y-97034575D01*
X76459161Y-96641699D01*
X76376200Y-96224623D01*
X76376200Y-95799377D01*
X76386305Y-95748577D01*
X76446491Y-95446000D01*
X76459161Y-95382301D01*
X76621896Y-94989425D01*
X76858150Y-94635845D01*
X77158845Y-94335150D01*
X77512425Y-94098896D01*
X77905301Y-93936161D01*
X78160692Y-93885361D01*
X78322375Y-93853200D01*
X78747625Y-93853200D01*
X78909308Y-93885361D01*
X78909308Y-93885361D01*
G37*
G36*
X53919308Y-93885361D02*
X54174699Y-93936161D01*
X54567575Y-94098896D01*
X54921155Y-94335150D01*
X55221850Y-94635845D01*
X55458104Y-94989425D01*
X55620839Y-95382301D01*
X55633509Y-95446000D01*
X55693696Y-95748577D01*
X55703800Y-95799377D01*
X55703800Y-96224623D01*
X55620839Y-96641699D01*
X55458104Y-97034575D01*
X55221850Y-97388155D01*
X54921155Y-97688850D01*
X54567575Y-97925104D01*
X54174699Y-98087839D01*
X53924453Y-98137616D01*
X53757625Y-98170800D01*
X53332375Y-98170800D01*
X53165547Y-98137616D01*
X52915301Y-98087839D01*
X52522425Y-97925104D01*
X52168845Y-97688850D01*
X51868150Y-97388155D01*
X51631896Y-97034575D01*
X51469161Y-96641699D01*
X51386200Y-96224623D01*
X51386200Y-95799377D01*
X51396305Y-95748577D01*
X51456491Y-95446000D01*
X51469161Y-95382301D01*
X51631896Y-94989425D01*
X51868150Y-94635845D01*
X52168845Y-94335150D01*
X52522425Y-94098896D01*
X52915301Y-93936161D01*
X53170692Y-93885361D01*
X53332375Y-93853200D01*
X53757625Y-93853200D01*
X53919308Y-93885361D01*
X53919308Y-93885361D01*
G37*
G36*
X114626853Y-93835584D02*
X114877099Y-93885361D01*
X115269975Y-94048096D01*
X115623555Y-94284350D01*
X115924250Y-94585045D01*
X116160504Y-94938625D01*
X116323239Y-95331501D01*
X116333344Y-95382304D01*
X116406200Y-95748575D01*
X116406200Y-96173825D01*
X116396095Y-96224625D01*
X116323239Y-96590899D01*
X116160504Y-96983775D01*
X115924250Y-97337355D01*
X115623555Y-97638050D01*
X115269975Y-97874304D01*
X114877099Y-98037039D01*
X114626853Y-98086816D01*
X114460025Y-98120000D01*
X114034775Y-98120000D01*
X113867947Y-98086816D01*
X113617701Y-98037039D01*
X113224825Y-97874304D01*
X112871245Y-97638050D01*
X112570550Y-97337355D01*
X112334296Y-96983775D01*
X112171561Y-96590899D01*
X112098705Y-96224625D01*
X112088600Y-96173825D01*
X112088600Y-95748575D01*
X112161456Y-95382304D01*
X112171561Y-95331501D01*
X112334296Y-94938625D01*
X112570550Y-94585045D01*
X112871245Y-94284350D01*
X113224825Y-94048096D01*
X113617701Y-93885361D01*
X113867947Y-93835584D01*
X114034775Y-93802400D01*
X114460025Y-93802400D01*
X114626853Y-93835584D01*
X114626853Y-93835584D01*
G37*
G36*
X89636853Y-93835584D02*
X89887099Y-93885361D01*
X90279975Y-94048096D01*
X90633555Y-94284350D01*
X90934250Y-94585045D01*
X91170504Y-94938625D01*
X91333239Y-95331501D01*
X91343344Y-95382304D01*
X91416200Y-95748575D01*
X91416200Y-96173825D01*
X91406095Y-96224625D01*
X91333239Y-96590899D01*
X91170504Y-96983775D01*
X90934250Y-97337355D01*
X90633555Y-97638050D01*
X90279975Y-97874304D01*
X89887099Y-98037039D01*
X89636853Y-98086816D01*
X89470025Y-98120000D01*
X89044775Y-98120000D01*
X88877947Y-98086816D01*
X88627701Y-98037039D01*
X88234825Y-97874304D01*
X87881245Y-97638050D01*
X87580550Y-97337355D01*
X87344296Y-96983775D01*
X87181561Y-96590899D01*
X87108705Y-96224625D01*
X87098600Y-96173825D01*
X87098600Y-95748575D01*
X87171456Y-95382304D01*
X87181561Y-95331501D01*
X87344296Y-94938625D01*
X87580550Y-94585045D01*
X87881245Y-94284350D01*
X88234825Y-94048096D01*
X88627701Y-93885361D01*
X88877947Y-93835584D01*
X89044775Y-93802400D01*
X89470025Y-93802400D01*
X89636853Y-93835584D01*
X89636853Y-93835584D01*
G37*
G36*
X70415167Y-96556206D02*
X70552533Y-96613105D01*
X70676158Y-96695709D01*
X70781291Y-96800842D01*
X70863895Y-96924467D01*
X70920794Y-97061833D01*
X70949800Y-97207657D01*
X70949800Y-97356343D01*
X70920794Y-97502167D01*
X70863895Y-97639533D01*
X70781291Y-97763158D01*
X70676158Y-97868291D01*
X70552533Y-97950895D01*
X70415167Y-98007794D01*
X70269343Y-98036800D01*
X70120657Y-98036800D01*
X69974833Y-98007794D01*
X69837467Y-97950895D01*
X69713842Y-97868291D01*
X69608709Y-97763158D01*
X69526105Y-97639533D01*
X69469206Y-97502167D01*
X69440200Y-97356343D01*
X69440200Y-97207657D01*
X69469206Y-97061833D01*
X69526105Y-96924467D01*
X69608709Y-96800842D01*
X69713842Y-96695709D01*
X69837467Y-96613105D01*
X69974833Y-96556206D01*
X70120657Y-96527200D01*
X70269343Y-96527200D01*
X70415167Y-96556206D01*
X70415167Y-96556206D01*
G37*
G36*
X67645167Y-96556206D02*
X67782533Y-96613105D01*
X67906158Y-96695709D01*
X68011291Y-96800842D01*
X68093895Y-96924467D01*
X68150794Y-97061833D01*
X68179800Y-97207657D01*
X68179800Y-97356343D01*
X68150794Y-97502167D01*
X68093895Y-97639533D01*
X68011291Y-97763158D01*
X67906158Y-97868291D01*
X67782533Y-97950895D01*
X67645167Y-98007794D01*
X67499343Y-98036800D01*
X67350657Y-98036800D01*
X67204833Y-98007794D01*
X67067467Y-97950895D01*
X66943842Y-97868291D01*
X66838709Y-97763158D01*
X66756105Y-97639533D01*
X66699206Y-97502167D01*
X66670200Y-97356343D01*
X66670200Y-97207657D01*
X66699206Y-97061833D01*
X66756105Y-96924467D01*
X66838709Y-96800842D01*
X66943842Y-96695709D01*
X67067467Y-96613105D01*
X67204833Y-96556206D01*
X67350657Y-96527200D01*
X67499343Y-96527200D01*
X67645167Y-96556206D01*
X67645167Y-96556206D01*
G37*
G36*
X64875167Y-96556206D02*
X65012533Y-96613105D01*
X65136158Y-96695709D01*
X65241291Y-96800842D01*
X65323895Y-96924467D01*
X65380794Y-97061833D01*
X65409800Y-97207657D01*
X65409800Y-97356343D01*
X65380794Y-97502167D01*
X65323895Y-97639533D01*
X65241291Y-97763158D01*
X65136158Y-97868291D01*
X65012533Y-97950895D01*
X64875167Y-98007794D01*
X64729343Y-98036800D01*
X64580657Y-98036800D01*
X64434833Y-98007794D01*
X64297467Y-97950895D01*
X64173842Y-97868291D01*
X64068709Y-97763158D01*
X63986105Y-97639533D01*
X63929206Y-97502167D01*
X63900200Y-97356343D01*
X63900200Y-97207657D01*
X63929206Y-97061833D01*
X63986105Y-96924467D01*
X64068709Y-96800842D01*
X64173842Y-96695709D01*
X64297467Y-96613105D01*
X64434833Y-96556206D01*
X64580657Y-96527200D01*
X64729343Y-96527200D01*
X64875167Y-96556206D01*
X64875167Y-96556206D01*
G37*
G36*
X62105167Y-96556206D02*
X62242533Y-96613105D01*
X62366158Y-96695709D01*
X62471291Y-96800842D01*
X62553895Y-96924467D01*
X62610794Y-97061833D01*
X62639800Y-97207657D01*
X62639800Y-97356343D01*
X62610794Y-97502167D01*
X62553895Y-97639533D01*
X62471291Y-97763158D01*
X62366158Y-97868291D01*
X62242533Y-97950895D01*
X62105167Y-98007794D01*
X61959343Y-98036800D01*
X61810657Y-98036800D01*
X61664833Y-98007794D01*
X61527467Y-97950895D01*
X61403842Y-97868291D01*
X61298709Y-97763158D01*
X61216105Y-97639533D01*
X61159206Y-97502167D01*
X61130200Y-97356343D01*
X61130200Y-97207657D01*
X61159206Y-97061833D01*
X61216105Y-96924467D01*
X61298709Y-96800842D01*
X61403842Y-96695709D01*
X61527467Y-96613105D01*
X61664833Y-96556206D01*
X61810657Y-96527200D01*
X61959343Y-96527200D01*
X62105167Y-96556206D01*
X62105167Y-96556206D01*
G37*
G36*
X106127567Y-96505406D02*
X106264933Y-96562305D01*
X106388558Y-96644909D01*
X106493691Y-96750042D01*
X106576295Y-96873667D01*
X106633194Y-97011033D01*
X106662200Y-97156857D01*
X106662200Y-97305543D01*
X106633194Y-97451367D01*
X106576295Y-97588733D01*
X106493691Y-97712358D01*
X106388558Y-97817491D01*
X106264933Y-97900095D01*
X106127567Y-97956994D01*
X105981743Y-97986000D01*
X105833057Y-97986000D01*
X105687233Y-97956994D01*
X105549867Y-97900095D01*
X105426242Y-97817491D01*
X105321109Y-97712358D01*
X105238505Y-97588733D01*
X105181606Y-97451367D01*
X105152600Y-97305543D01*
X105152600Y-97156857D01*
X105181606Y-97011033D01*
X105238505Y-96873667D01*
X105321109Y-96750042D01*
X105426242Y-96644909D01*
X105549867Y-96562305D01*
X105687233Y-96505406D01*
X105833057Y-96476400D01*
X105981743Y-96476400D01*
X106127567Y-96505406D01*
X106127567Y-96505406D01*
G37*
G36*
X103357567Y-96505406D02*
X103494933Y-96562305D01*
X103618558Y-96644909D01*
X103723691Y-96750042D01*
X103806295Y-96873667D01*
X103863194Y-97011033D01*
X103892200Y-97156857D01*
X103892200Y-97305543D01*
X103863194Y-97451367D01*
X103806295Y-97588733D01*
X103723691Y-97712358D01*
X103618558Y-97817491D01*
X103494933Y-97900095D01*
X103357567Y-97956994D01*
X103211743Y-97986000D01*
X103063057Y-97986000D01*
X102917233Y-97956994D01*
X102779867Y-97900095D01*
X102656242Y-97817491D01*
X102551109Y-97712358D01*
X102468505Y-97588733D01*
X102411606Y-97451367D01*
X102382600Y-97305543D01*
X102382600Y-97156857D01*
X102411606Y-97011033D01*
X102468505Y-96873667D01*
X102551109Y-96750042D01*
X102656242Y-96644909D01*
X102779867Y-96562305D01*
X102917233Y-96505406D01*
X103063057Y-96476400D01*
X103211743Y-96476400D01*
X103357567Y-96505406D01*
X103357567Y-96505406D01*
G37*
G36*
X100587567Y-96505406D02*
X100724933Y-96562305D01*
X100848558Y-96644909D01*
X100953691Y-96750042D01*
X101036295Y-96873667D01*
X101093194Y-97011033D01*
X101122200Y-97156857D01*
X101122200Y-97305543D01*
X101093194Y-97451367D01*
X101036295Y-97588733D01*
X100953691Y-97712358D01*
X100848558Y-97817491D01*
X100724933Y-97900095D01*
X100587567Y-97956994D01*
X100441743Y-97986000D01*
X100293057Y-97986000D01*
X100147233Y-97956994D01*
X100009867Y-97900095D01*
X99886242Y-97817491D01*
X99781109Y-97712358D01*
X99698505Y-97588733D01*
X99641606Y-97451367D01*
X99612600Y-97305543D01*
X99612600Y-97156857D01*
X99641606Y-97011033D01*
X99698505Y-96873667D01*
X99781109Y-96750042D01*
X99886242Y-96644909D01*
X100009867Y-96562305D01*
X100147233Y-96505406D01*
X100293057Y-96476400D01*
X100441743Y-96476400D01*
X100587567Y-96505406D01*
X100587567Y-96505406D01*
G37*
G36*
X97817567Y-96505406D02*
X97954933Y-96562305D01*
X98078558Y-96644909D01*
X98183691Y-96750042D01*
X98266295Y-96873667D01*
X98323194Y-97011033D01*
X98352200Y-97156857D01*
X98352200Y-97305543D01*
X98323194Y-97451367D01*
X98266295Y-97588733D01*
X98183691Y-97712358D01*
X98078558Y-97817491D01*
X97954933Y-97900095D01*
X97817567Y-97956994D01*
X97671743Y-97986000D01*
X97523057Y-97986000D01*
X97377233Y-97956994D01*
X97239867Y-97900095D01*
X97116242Y-97817491D01*
X97011109Y-97712358D01*
X96928505Y-97588733D01*
X96871606Y-97451367D01*
X96842600Y-97305543D01*
X96842600Y-97156857D01*
X96871606Y-97011033D01*
X96928505Y-96873667D01*
X97011109Y-96750042D01*
X97116242Y-96644909D01*
X97239867Y-96562305D01*
X97377233Y-96505406D01*
X97523057Y-96476400D01*
X97671743Y-96476400D01*
X97817567Y-96505406D01*
X97817567Y-96505406D01*
G37*
G36*
X71800167Y-94016206D02*
X71937533Y-94073105D01*
X72061158Y-94155709D01*
X72166291Y-94260842D01*
X72248895Y-94384467D01*
X72305794Y-94521833D01*
X72334800Y-94667657D01*
X72334800Y-94816343D01*
X72305794Y-94962167D01*
X72248895Y-95099533D01*
X72166291Y-95223158D01*
X72061158Y-95328291D01*
X71937533Y-95410895D01*
X71800167Y-95467794D01*
X71654343Y-95496800D01*
X71505657Y-95496800D01*
X71359833Y-95467794D01*
X71222467Y-95410895D01*
X71098842Y-95328291D01*
X70993709Y-95223158D01*
X70911105Y-95099533D01*
X70854206Y-94962167D01*
X70825200Y-94816343D01*
X70825200Y-94667657D01*
X70854206Y-94521833D01*
X70911105Y-94384467D01*
X70993709Y-94260842D01*
X71098842Y-94155709D01*
X71222467Y-94073105D01*
X71359833Y-94016206D01*
X71505657Y-93987200D01*
X71654343Y-93987200D01*
X71800167Y-94016206D01*
X71800167Y-94016206D01*
G37*
G36*
X69030167Y-94016206D02*
X69167533Y-94073105D01*
X69291158Y-94155709D01*
X69396291Y-94260842D01*
X69478895Y-94384467D01*
X69535794Y-94521833D01*
X69564800Y-94667657D01*
X69564800Y-94816343D01*
X69535794Y-94962167D01*
X69478895Y-95099533D01*
X69396291Y-95223158D01*
X69291158Y-95328291D01*
X69167533Y-95410895D01*
X69030167Y-95467794D01*
X68884343Y-95496800D01*
X68735657Y-95496800D01*
X68589833Y-95467794D01*
X68452467Y-95410895D01*
X68328842Y-95328291D01*
X68223709Y-95223158D01*
X68141105Y-95099533D01*
X68084206Y-94962167D01*
X68055200Y-94816343D01*
X68055200Y-94667657D01*
X68084206Y-94521833D01*
X68141105Y-94384467D01*
X68223709Y-94260842D01*
X68328842Y-94155709D01*
X68452467Y-94073105D01*
X68589833Y-94016206D01*
X68735657Y-93987200D01*
X68884343Y-93987200D01*
X69030167Y-94016206D01*
X69030167Y-94016206D01*
G37*
G36*
X66260167Y-94016206D02*
X66397533Y-94073105D01*
X66521158Y-94155709D01*
X66626291Y-94260842D01*
X66708895Y-94384467D01*
X66765794Y-94521833D01*
X66794800Y-94667657D01*
X66794800Y-94816343D01*
X66765794Y-94962167D01*
X66708895Y-95099533D01*
X66626291Y-95223158D01*
X66521158Y-95328291D01*
X66397533Y-95410895D01*
X66260167Y-95467794D01*
X66114343Y-95496800D01*
X65965657Y-95496800D01*
X65819833Y-95467794D01*
X65682467Y-95410895D01*
X65558842Y-95328291D01*
X65453709Y-95223158D01*
X65371105Y-95099533D01*
X65314206Y-94962167D01*
X65285200Y-94816343D01*
X65285200Y-94667657D01*
X65314206Y-94521833D01*
X65371105Y-94384467D01*
X65453709Y-94260842D01*
X65558842Y-94155709D01*
X65682467Y-94073105D01*
X65819833Y-94016206D01*
X65965657Y-93987200D01*
X66114343Y-93987200D01*
X66260167Y-94016206D01*
X66260167Y-94016206D01*
G37*
G36*
X63490167Y-94016206D02*
X63627533Y-94073105D01*
X63751158Y-94155709D01*
X63856291Y-94260842D01*
X63938895Y-94384467D01*
X63995794Y-94521833D01*
X64024800Y-94667657D01*
X64024800Y-94816343D01*
X63995794Y-94962167D01*
X63938895Y-95099533D01*
X63856291Y-95223158D01*
X63751158Y-95328291D01*
X63627533Y-95410895D01*
X63490167Y-95467794D01*
X63344343Y-95496800D01*
X63195657Y-95496800D01*
X63049833Y-95467794D01*
X62912467Y-95410895D01*
X62788842Y-95328291D01*
X62683709Y-95223158D01*
X62601105Y-95099533D01*
X62544206Y-94962167D01*
X62515200Y-94816343D01*
X62515200Y-94667657D01*
X62544206Y-94521833D01*
X62601105Y-94384467D01*
X62683709Y-94260842D01*
X62788842Y-94155709D01*
X62912467Y-94073105D01*
X63049833Y-94016206D01*
X63195657Y-93987200D01*
X63344343Y-93987200D01*
X63490167Y-94016206D01*
X63490167Y-94016206D01*
G37*
G36*
X61254800Y-95496800D02*
X59745200Y-95496800D01*
X59745200Y-93987200D01*
X61254800Y-93987200D01*
X61254800Y-95496800D01*
X61254800Y-95496800D01*
G37*
G36*
X107512567Y-93965406D02*
X107649933Y-94022305D01*
X107773558Y-94104909D01*
X107878691Y-94210042D01*
X107961295Y-94333667D01*
X108018194Y-94471033D01*
X108047200Y-94616857D01*
X108047200Y-94765543D01*
X108018194Y-94911367D01*
X107961295Y-95048733D01*
X107878691Y-95172358D01*
X107773558Y-95277491D01*
X107649933Y-95360095D01*
X107512567Y-95416994D01*
X107366743Y-95446000D01*
X107218057Y-95446000D01*
X107072233Y-95416994D01*
X106934867Y-95360095D01*
X106811242Y-95277491D01*
X106706109Y-95172358D01*
X106623505Y-95048733D01*
X106566606Y-94911367D01*
X106537600Y-94765543D01*
X106537600Y-94616857D01*
X106566606Y-94471033D01*
X106623505Y-94333667D01*
X106706109Y-94210042D01*
X106811242Y-94104909D01*
X106934867Y-94022305D01*
X107072233Y-93965406D01*
X107218057Y-93936400D01*
X107366743Y-93936400D01*
X107512567Y-93965406D01*
X107512567Y-93965406D01*
G37*
G36*
X96967200Y-95446000D02*
X95457600Y-95446000D01*
X95457600Y-93936400D01*
X96967200Y-93936400D01*
X96967200Y-95446000D01*
X96967200Y-95446000D01*
G37*
G36*
X99202567Y-93965406D02*
X99339933Y-94022305D01*
X99463558Y-94104909D01*
X99568691Y-94210042D01*
X99651295Y-94333667D01*
X99708194Y-94471033D01*
X99737200Y-94616857D01*
X99737200Y-94765543D01*
X99708194Y-94911367D01*
X99651295Y-95048733D01*
X99568691Y-95172358D01*
X99463558Y-95277491D01*
X99339933Y-95360095D01*
X99202567Y-95416994D01*
X99056743Y-95446000D01*
X98908057Y-95446000D01*
X98762233Y-95416994D01*
X98624867Y-95360095D01*
X98501242Y-95277491D01*
X98396109Y-95172358D01*
X98313505Y-95048733D01*
X98256606Y-94911367D01*
X98227600Y-94765543D01*
X98227600Y-94616857D01*
X98256606Y-94471033D01*
X98313505Y-94333667D01*
X98396109Y-94210042D01*
X98501242Y-94104909D01*
X98624867Y-94022305D01*
X98762233Y-93965406D01*
X98908057Y-93936400D01*
X99056743Y-93936400D01*
X99202567Y-93965406D01*
X99202567Y-93965406D01*
G37*
G36*
X101972567Y-93965406D02*
X102109933Y-94022305D01*
X102233558Y-94104909D01*
X102338691Y-94210042D01*
X102421295Y-94333667D01*
X102478194Y-94471033D01*
X102507200Y-94616857D01*
X102507200Y-94765543D01*
X102478194Y-94911367D01*
X102421295Y-95048733D01*
X102338691Y-95172358D01*
X102233558Y-95277491D01*
X102109933Y-95360095D01*
X101972567Y-95416994D01*
X101826743Y-95446000D01*
X101678057Y-95446000D01*
X101532233Y-95416994D01*
X101394867Y-95360095D01*
X101271242Y-95277491D01*
X101166109Y-95172358D01*
X101083505Y-95048733D01*
X101026606Y-94911367D01*
X100997600Y-94765543D01*
X100997600Y-94616857D01*
X101026606Y-94471033D01*
X101083505Y-94333667D01*
X101166109Y-94210042D01*
X101271242Y-94104909D01*
X101394867Y-94022305D01*
X101532233Y-93965406D01*
X101678057Y-93936400D01*
X101826743Y-93936400D01*
X101972567Y-93965406D01*
X101972567Y-93965406D01*
G37*
G36*
X104742567Y-93965406D02*
X104879933Y-94022305D01*
X105003558Y-94104909D01*
X105108691Y-94210042D01*
X105191295Y-94333667D01*
X105248194Y-94471033D01*
X105277200Y-94616857D01*
X105277200Y-94765543D01*
X105248194Y-94911367D01*
X105191295Y-95048733D01*
X105108691Y-95172358D01*
X105003558Y-95277491D01*
X104879933Y-95360095D01*
X104742567Y-95416994D01*
X104596743Y-95446000D01*
X104448057Y-95446000D01*
X104302233Y-95416994D01*
X104164867Y-95360095D01*
X104041242Y-95277491D01*
X103936109Y-95172358D01*
X103853505Y-95048733D01*
X103796606Y-94911367D01*
X103767600Y-94765543D01*
X103767600Y-94616857D01*
X103796606Y-94471033D01*
X103853505Y-94333667D01*
X103936109Y-94210042D01*
X104041242Y-94104909D01*
X104164867Y-94022305D01*
X104302233Y-93965406D01*
X104448057Y-93936400D01*
X104596743Y-93936400D01*
X104742567Y-93965406D01*
X104742567Y-93965406D01*
G37*
G36*
X67448800Y-90943800D02*
X65647200Y-90943800D01*
X65647200Y-89142200D01*
X67448800Y-89142200D01*
X67448800Y-90943800D01*
X67448800Y-90943800D01*
G37*
G36*
X54495162Y-89019545D02*
X54583388Y-89028234D01*
X54696589Y-89062573D01*
X54753190Y-89079743D01*
X54870037Y-89142200D01*
X54909679Y-89163389D01*
X54945409Y-89192712D01*
X55046844Y-89275956D01*
X55130088Y-89377391D01*
X55159411Y-89413121D01*
X55159412Y-89413123D01*
X55243057Y-89569610D01*
X55243057Y-89569611D01*
X55294566Y-89739412D01*
X55311958Y-89916000D01*
X55294566Y-90092588D01*
X55260227Y-90205789D01*
X55243057Y-90262390D01*
X55168978Y-90400980D01*
X55159411Y-90418879D01*
X55130088Y-90454609D01*
X55046844Y-90556044D01*
X54945409Y-90639288D01*
X54909679Y-90668611D01*
X54909677Y-90668612D01*
X54753190Y-90752257D01*
X54696589Y-90769427D01*
X54583388Y-90803766D01*
X54495162Y-90812455D01*
X54451050Y-90816800D01*
X54362550Y-90816800D01*
X54318438Y-90812455D01*
X54230212Y-90803766D01*
X54117011Y-90769427D01*
X54060410Y-90752257D01*
X53903923Y-90668612D01*
X53903921Y-90668611D01*
X53868191Y-90639288D01*
X53766756Y-90556044D01*
X53683512Y-90454609D01*
X53654189Y-90418879D01*
X53644622Y-90400980D01*
X53570543Y-90262390D01*
X53553373Y-90205789D01*
X53519034Y-90092588D01*
X53501642Y-89916000D01*
X53519034Y-89739412D01*
X53570543Y-89569611D01*
X53570543Y-89569610D01*
X53654188Y-89413123D01*
X53654189Y-89413121D01*
X53683512Y-89377391D01*
X53766756Y-89275956D01*
X53868191Y-89192712D01*
X53903921Y-89163389D01*
X53943563Y-89142200D01*
X54060410Y-89079743D01*
X54117011Y-89062573D01*
X54230212Y-89028234D01*
X54318438Y-89019545D01*
X54362550Y-89015200D01*
X54451050Y-89015200D01*
X54495162Y-89019545D01*
X54495162Y-89019545D01*
G37*
G36*
X59575162Y-89019545D02*
X59663388Y-89028234D01*
X59776589Y-89062573D01*
X59833190Y-89079743D01*
X59950037Y-89142200D01*
X59989679Y-89163389D01*
X60025409Y-89192712D01*
X60126844Y-89275956D01*
X60210088Y-89377391D01*
X60239411Y-89413121D01*
X60239412Y-89413123D01*
X60323057Y-89569610D01*
X60323057Y-89569611D01*
X60374566Y-89739412D01*
X60391958Y-89916000D01*
X60374566Y-90092588D01*
X60340227Y-90205789D01*
X60323057Y-90262390D01*
X60248978Y-90400980D01*
X60239411Y-90418879D01*
X60210088Y-90454609D01*
X60126844Y-90556044D01*
X60025409Y-90639288D01*
X59989679Y-90668611D01*
X59989677Y-90668612D01*
X59833190Y-90752257D01*
X59776589Y-90769427D01*
X59663388Y-90803766D01*
X59575162Y-90812455D01*
X59531050Y-90816800D01*
X59442550Y-90816800D01*
X59398438Y-90812455D01*
X59310212Y-90803766D01*
X59197011Y-90769427D01*
X59140410Y-90752257D01*
X58983923Y-90668612D01*
X58983921Y-90668611D01*
X58948191Y-90639288D01*
X58846756Y-90556044D01*
X58763512Y-90454609D01*
X58734189Y-90418879D01*
X58724622Y-90400980D01*
X58650543Y-90262390D01*
X58633373Y-90205789D01*
X58599034Y-90092588D01*
X58581642Y-89916000D01*
X58599034Y-89739412D01*
X58650543Y-89569611D01*
X58650543Y-89569610D01*
X58734188Y-89413123D01*
X58734189Y-89413121D01*
X58763512Y-89377391D01*
X58846756Y-89275956D01*
X58948191Y-89192712D01*
X58983921Y-89163389D01*
X59023563Y-89142200D01*
X59140410Y-89079743D01*
X59197011Y-89062573D01*
X59310212Y-89028234D01*
X59398438Y-89019545D01*
X59442550Y-89015200D01*
X59531050Y-89015200D01*
X59575162Y-89019545D01*
X59575162Y-89019545D01*
G37*
G36*
X57035162Y-89019545D02*
X57123388Y-89028234D01*
X57236589Y-89062573D01*
X57293190Y-89079743D01*
X57410037Y-89142200D01*
X57449679Y-89163389D01*
X57485409Y-89192712D01*
X57586844Y-89275956D01*
X57670088Y-89377391D01*
X57699411Y-89413121D01*
X57699412Y-89413123D01*
X57783057Y-89569610D01*
X57783057Y-89569611D01*
X57834566Y-89739412D01*
X57851958Y-89916000D01*
X57834566Y-90092588D01*
X57800227Y-90205789D01*
X57783057Y-90262390D01*
X57708978Y-90400980D01*
X57699411Y-90418879D01*
X57670088Y-90454609D01*
X57586844Y-90556044D01*
X57485409Y-90639288D01*
X57449679Y-90668611D01*
X57449677Y-90668612D01*
X57293190Y-90752257D01*
X57236589Y-90769427D01*
X57123388Y-90803766D01*
X57035162Y-90812455D01*
X56991050Y-90816800D01*
X56902550Y-90816800D01*
X56858438Y-90812455D01*
X56770212Y-90803766D01*
X56657011Y-90769427D01*
X56600410Y-90752257D01*
X56443923Y-90668612D01*
X56443921Y-90668611D01*
X56408191Y-90639288D01*
X56306756Y-90556044D01*
X56223512Y-90454609D01*
X56194189Y-90418879D01*
X56184622Y-90400980D01*
X56110543Y-90262390D01*
X56093373Y-90205789D01*
X56059034Y-90092588D01*
X56041642Y-89916000D01*
X56059034Y-89739412D01*
X56110543Y-89569611D01*
X56110543Y-89569610D01*
X56194188Y-89413123D01*
X56194189Y-89413121D01*
X56223512Y-89377391D01*
X56306756Y-89275956D01*
X56408191Y-89192712D01*
X56443921Y-89163389D01*
X56483563Y-89142200D01*
X56600410Y-89079743D01*
X56657011Y-89062573D01*
X56770212Y-89028234D01*
X56858438Y-89019545D01*
X56902550Y-89015200D01*
X56991050Y-89015200D01*
X57035162Y-89019545D01*
X57035162Y-89019545D01*
G37*
G36*
X52767600Y-90816800D02*
X50966000Y-90816800D01*
X50966000Y-89015200D01*
X52767600Y-89015200D01*
X52767600Y-90816800D01*
X52767600Y-90816800D01*
G37*
G36*
X73938862Y-87749545D02*
X74027088Y-87758234D01*
X74140289Y-87792573D01*
X74196890Y-87809743D01*
X74271063Y-87849390D01*
X74353379Y-87893389D01*
X74389109Y-87922712D01*
X74490544Y-88005956D01*
X74573788Y-88107391D01*
X74603111Y-88143121D01*
X74603112Y-88143123D01*
X74686757Y-88299610D01*
X74686757Y-88299611D01*
X74738266Y-88469412D01*
X74755658Y-88646000D01*
X74738266Y-88822588D01*
X74703927Y-88935789D01*
X74686757Y-88992390D01*
X74640065Y-89079743D01*
X74603111Y-89148879D01*
X74591203Y-89163389D01*
X74490544Y-89286044D01*
X74389109Y-89369288D01*
X74353379Y-89398611D01*
X74353377Y-89398612D01*
X74196890Y-89482257D01*
X74140289Y-89499427D01*
X74027088Y-89533766D01*
X73938862Y-89542455D01*
X73894750Y-89546800D01*
X73806250Y-89546800D01*
X73762138Y-89542455D01*
X73673912Y-89533766D01*
X73560711Y-89499427D01*
X73504110Y-89482257D01*
X73347623Y-89398612D01*
X73347621Y-89398611D01*
X73311891Y-89369288D01*
X73210456Y-89286044D01*
X73109797Y-89163389D01*
X73097889Y-89148879D01*
X73060935Y-89079743D01*
X73014243Y-88992390D01*
X72997073Y-88935789D01*
X72962734Y-88822588D01*
X72945342Y-88646000D01*
X72962734Y-88469412D01*
X73014243Y-88299611D01*
X73014243Y-88299610D01*
X73097888Y-88143123D01*
X73097889Y-88143121D01*
X73127212Y-88107391D01*
X73210456Y-88005956D01*
X73311891Y-87922712D01*
X73347621Y-87893389D01*
X73429937Y-87849390D01*
X73504110Y-87809743D01*
X73560711Y-87792573D01*
X73673912Y-87758234D01*
X73762138Y-87749545D01*
X73806250Y-87745200D01*
X73894750Y-87745200D01*
X73938862Y-87749545D01*
X73938862Y-87749545D01*
G37*
G36*
X96214300Y-89546800D02*
X94412700Y-89546800D01*
X94412700Y-87745200D01*
X96214300Y-87745200D01*
X96214300Y-89546800D01*
X96214300Y-89546800D01*
G37*
G36*
X66636362Y-86606545D02*
X66724588Y-86615234D01*
X66837789Y-86649573D01*
X66894390Y-86666743D01*
X67023877Y-86735956D01*
X67050879Y-86750389D01*
X67086609Y-86779712D01*
X67188044Y-86862956D01*
X67253123Y-86942257D01*
X67300611Y-87000121D01*
X67300612Y-87000123D01*
X67384257Y-87156610D01*
X67384257Y-87156611D01*
X67435766Y-87326412D01*
X67453158Y-87503000D01*
X67435766Y-87679588D01*
X67411909Y-87758234D01*
X67384257Y-87849390D01*
X67310178Y-87987980D01*
X67300611Y-88005879D01*
X67271288Y-88041609D01*
X67188044Y-88143044D01*
X67103706Y-88212257D01*
X67050879Y-88255611D01*
X67050877Y-88255612D01*
X66894390Y-88339257D01*
X66837789Y-88356427D01*
X66724588Y-88390766D01*
X66636362Y-88399455D01*
X66592250Y-88403800D01*
X66503750Y-88403800D01*
X66459638Y-88399455D01*
X66371412Y-88390766D01*
X66258211Y-88356427D01*
X66201610Y-88339257D01*
X66045123Y-88255612D01*
X66045121Y-88255611D01*
X65992294Y-88212257D01*
X65907956Y-88143044D01*
X65824712Y-88041609D01*
X65795389Y-88005879D01*
X65785822Y-87987980D01*
X65711743Y-87849390D01*
X65684091Y-87758234D01*
X65660234Y-87679588D01*
X65642842Y-87503000D01*
X65660234Y-87326412D01*
X65711743Y-87156611D01*
X65711743Y-87156610D01*
X65795388Y-87000123D01*
X65795389Y-87000121D01*
X65842877Y-86942257D01*
X65907956Y-86862956D01*
X66009391Y-86779712D01*
X66045121Y-86750389D01*
X66072123Y-86735956D01*
X66201610Y-86666743D01*
X66258211Y-86649573D01*
X66371412Y-86615234D01*
X66459638Y-86606545D01*
X66503750Y-86602200D01*
X66592250Y-86602200D01*
X66636362Y-86606545D01*
X66636362Y-86606545D01*
G37*
G36*
X59575162Y-86479545D02*
X59663388Y-86488234D01*
X59776589Y-86522573D01*
X59833190Y-86539743D01*
X59950037Y-86602200D01*
X59989679Y-86623389D01*
X60025409Y-86652712D01*
X60126844Y-86735956D01*
X60210088Y-86837391D01*
X60239411Y-86873121D01*
X60239412Y-86873123D01*
X60323057Y-87029610D01*
X60323057Y-87029611D01*
X60374566Y-87199412D01*
X60391958Y-87376000D01*
X60374566Y-87552588D01*
X60340227Y-87665789D01*
X60323057Y-87722390D01*
X60276365Y-87809743D01*
X60239411Y-87878879D01*
X60227503Y-87893389D01*
X60126844Y-88016044D01*
X60025409Y-88099288D01*
X59989679Y-88128611D01*
X59989677Y-88128612D01*
X59833190Y-88212257D01*
X59776589Y-88229427D01*
X59663388Y-88263766D01*
X59575162Y-88272455D01*
X59531050Y-88276800D01*
X59442550Y-88276800D01*
X59398438Y-88272455D01*
X59310212Y-88263766D01*
X59197011Y-88229427D01*
X59140410Y-88212257D01*
X58983923Y-88128612D01*
X58983921Y-88128611D01*
X58948191Y-88099288D01*
X58846756Y-88016044D01*
X58746097Y-87893389D01*
X58734189Y-87878879D01*
X58697235Y-87809743D01*
X58650543Y-87722390D01*
X58633373Y-87665789D01*
X58599034Y-87552588D01*
X58581642Y-87376000D01*
X58599034Y-87199412D01*
X58650543Y-87029611D01*
X58650543Y-87029610D01*
X58734188Y-86873123D01*
X58734189Y-86873121D01*
X58763512Y-86837391D01*
X58846756Y-86735956D01*
X58948191Y-86652712D01*
X58983921Y-86623389D01*
X59023563Y-86602200D01*
X59140410Y-86539743D01*
X59197011Y-86522573D01*
X59310212Y-86488234D01*
X59398438Y-86479545D01*
X59442550Y-86475200D01*
X59531050Y-86475200D01*
X59575162Y-86479545D01*
X59575162Y-86479545D01*
G37*
G36*
X54495162Y-86479545D02*
X54583388Y-86488234D01*
X54696589Y-86522573D01*
X54753190Y-86539743D01*
X54870037Y-86602200D01*
X54909679Y-86623389D01*
X54945409Y-86652712D01*
X55046844Y-86735956D01*
X55130088Y-86837391D01*
X55159411Y-86873121D01*
X55159412Y-86873123D01*
X55243057Y-87029610D01*
X55243057Y-87029611D01*
X55294566Y-87199412D01*
X55311958Y-87376000D01*
X55294566Y-87552588D01*
X55260227Y-87665789D01*
X55243057Y-87722390D01*
X55196365Y-87809743D01*
X55159411Y-87878879D01*
X55147503Y-87893389D01*
X55046844Y-88016044D01*
X54945409Y-88099288D01*
X54909679Y-88128611D01*
X54909677Y-88128612D01*
X54753190Y-88212257D01*
X54696589Y-88229427D01*
X54583388Y-88263766D01*
X54495162Y-88272455D01*
X54451050Y-88276800D01*
X54362550Y-88276800D01*
X54318438Y-88272455D01*
X54230212Y-88263766D01*
X54117011Y-88229427D01*
X54060410Y-88212257D01*
X53903923Y-88128612D01*
X53903921Y-88128611D01*
X53868191Y-88099288D01*
X53766756Y-88016044D01*
X53666097Y-87893389D01*
X53654189Y-87878879D01*
X53617235Y-87809743D01*
X53570543Y-87722390D01*
X53553373Y-87665789D01*
X53519034Y-87552588D01*
X53501642Y-87376000D01*
X53519034Y-87199412D01*
X53570543Y-87029611D01*
X53570543Y-87029610D01*
X53654188Y-86873123D01*
X53654189Y-86873121D01*
X53683512Y-86837391D01*
X53766756Y-86735956D01*
X53868191Y-86652712D01*
X53903921Y-86623389D01*
X53943563Y-86602200D01*
X54060410Y-86539743D01*
X54117011Y-86522573D01*
X54230212Y-86488234D01*
X54318438Y-86479545D01*
X54362550Y-86475200D01*
X54451050Y-86475200D01*
X54495162Y-86479545D01*
X54495162Y-86479545D01*
G37*
G36*
X51955162Y-86479545D02*
X52043388Y-86488234D01*
X52156589Y-86522573D01*
X52213190Y-86539743D01*
X52330037Y-86602200D01*
X52369679Y-86623389D01*
X52405409Y-86652712D01*
X52506844Y-86735956D01*
X52590088Y-86837391D01*
X52619411Y-86873121D01*
X52619412Y-86873123D01*
X52703057Y-87029610D01*
X52703057Y-87029611D01*
X52754566Y-87199412D01*
X52771958Y-87376000D01*
X52754566Y-87552588D01*
X52720227Y-87665789D01*
X52703057Y-87722390D01*
X52656365Y-87809743D01*
X52619411Y-87878879D01*
X52607503Y-87893389D01*
X52506844Y-88016044D01*
X52405409Y-88099288D01*
X52369679Y-88128611D01*
X52369677Y-88128612D01*
X52213190Y-88212257D01*
X52156589Y-88229427D01*
X52043388Y-88263766D01*
X51955162Y-88272455D01*
X51911050Y-88276800D01*
X51822550Y-88276800D01*
X51778438Y-88272455D01*
X51690212Y-88263766D01*
X51577011Y-88229427D01*
X51520410Y-88212257D01*
X51363923Y-88128612D01*
X51363921Y-88128611D01*
X51328191Y-88099288D01*
X51226756Y-88016044D01*
X51126097Y-87893389D01*
X51114189Y-87878879D01*
X51077235Y-87809743D01*
X51030543Y-87722390D01*
X51013373Y-87665789D01*
X50979034Y-87552588D01*
X50961642Y-87376000D01*
X50979034Y-87199412D01*
X51030543Y-87029611D01*
X51030543Y-87029610D01*
X51114188Y-86873123D01*
X51114189Y-86873121D01*
X51143512Y-86837391D01*
X51226756Y-86735956D01*
X51328191Y-86652712D01*
X51363921Y-86623389D01*
X51403563Y-86602200D01*
X51520410Y-86539743D01*
X51577011Y-86522573D01*
X51690212Y-86488234D01*
X51778438Y-86479545D01*
X51822550Y-86475200D01*
X51911050Y-86475200D01*
X51955162Y-86479545D01*
X51955162Y-86479545D01*
G37*
G36*
X57035162Y-86479545D02*
X57123388Y-86488234D01*
X57236589Y-86522573D01*
X57293190Y-86539743D01*
X57410037Y-86602200D01*
X57449679Y-86623389D01*
X57485409Y-86652712D01*
X57586844Y-86735956D01*
X57670088Y-86837391D01*
X57699411Y-86873121D01*
X57699412Y-86873123D01*
X57783057Y-87029610D01*
X57783057Y-87029611D01*
X57834566Y-87199412D01*
X57851958Y-87376000D01*
X57834566Y-87552588D01*
X57800227Y-87665789D01*
X57783057Y-87722390D01*
X57736365Y-87809743D01*
X57699411Y-87878879D01*
X57687503Y-87893389D01*
X57586844Y-88016044D01*
X57485409Y-88099288D01*
X57449679Y-88128611D01*
X57449677Y-88128612D01*
X57293190Y-88212257D01*
X57236589Y-88229427D01*
X57123388Y-88263766D01*
X57035162Y-88272455D01*
X56991050Y-88276800D01*
X56902550Y-88276800D01*
X56858438Y-88272455D01*
X56770212Y-88263766D01*
X56657011Y-88229427D01*
X56600410Y-88212257D01*
X56443923Y-88128612D01*
X56443921Y-88128611D01*
X56408191Y-88099288D01*
X56306756Y-88016044D01*
X56206097Y-87893389D01*
X56194189Y-87878879D01*
X56157235Y-87809743D01*
X56110543Y-87722390D01*
X56093373Y-87665789D01*
X56059034Y-87552588D01*
X56041642Y-87376000D01*
X56059034Y-87199412D01*
X56110543Y-87029611D01*
X56110543Y-87029610D01*
X56194188Y-86873123D01*
X56194189Y-86873121D01*
X56223512Y-86837391D01*
X56306756Y-86735956D01*
X56408191Y-86652712D01*
X56443921Y-86623389D01*
X56483563Y-86602200D01*
X56600410Y-86539743D01*
X56657011Y-86522573D01*
X56770212Y-86488234D01*
X56858438Y-86479545D01*
X56902550Y-86475200D01*
X56991050Y-86475200D01*
X57035162Y-86479545D01*
X57035162Y-86479545D01*
G37*
G36*
X95401862Y-85209545D02*
X95490088Y-85218234D01*
X95603289Y-85252573D01*
X95659890Y-85269743D01*
X95734063Y-85309390D01*
X95816379Y-85353389D01*
X95852109Y-85382712D01*
X95953544Y-85465956D01*
X96036788Y-85567391D01*
X96066111Y-85603121D01*
X96066112Y-85603123D01*
X96149757Y-85759610D01*
X96149757Y-85759611D01*
X96201266Y-85929412D01*
X96218658Y-86106000D01*
X96201266Y-86282588D01*
X96166927Y-86395789D01*
X96149757Y-86452390D01*
X96103065Y-86539743D01*
X96066111Y-86608879D01*
X96054203Y-86623389D01*
X95953544Y-86746044D01*
X95852109Y-86829288D01*
X95816379Y-86858611D01*
X95816377Y-86858612D01*
X95659890Y-86942257D01*
X95603289Y-86959427D01*
X95490088Y-86993766D01*
X95425563Y-87000121D01*
X95357750Y-87006800D01*
X95269250Y-87006800D01*
X95201437Y-87000121D01*
X95136912Y-86993766D01*
X95023711Y-86959427D01*
X94967110Y-86942257D01*
X94810623Y-86858612D01*
X94810621Y-86858611D01*
X94774891Y-86829288D01*
X94673456Y-86746044D01*
X94572797Y-86623389D01*
X94560889Y-86608879D01*
X94523935Y-86539743D01*
X94477243Y-86452390D01*
X94460073Y-86395789D01*
X94425734Y-86282588D01*
X94408342Y-86106000D01*
X94425734Y-85929412D01*
X94477243Y-85759611D01*
X94477243Y-85759610D01*
X94560888Y-85603123D01*
X94560889Y-85603121D01*
X94590212Y-85567391D01*
X94673456Y-85465956D01*
X94774891Y-85382712D01*
X94810621Y-85353389D01*
X94892937Y-85309390D01*
X94967110Y-85269743D01*
X95023711Y-85252573D01*
X95136912Y-85218234D01*
X95225138Y-85209545D01*
X95269250Y-85205200D01*
X95357750Y-85205200D01*
X95401862Y-85209545D01*
X95401862Y-85209545D01*
G37*
G36*
X73938862Y-85209545D02*
X74027088Y-85218234D01*
X74140289Y-85252573D01*
X74196890Y-85269743D01*
X74271063Y-85309390D01*
X74353379Y-85353389D01*
X74389109Y-85382712D01*
X74490544Y-85465956D01*
X74573788Y-85567391D01*
X74603111Y-85603121D01*
X74603112Y-85603123D01*
X74686757Y-85759610D01*
X74686757Y-85759611D01*
X74738266Y-85929412D01*
X74755658Y-86106000D01*
X74738266Y-86282588D01*
X74703927Y-86395789D01*
X74686757Y-86452390D01*
X74640065Y-86539743D01*
X74603111Y-86608879D01*
X74591203Y-86623389D01*
X74490544Y-86746044D01*
X74389109Y-86829288D01*
X74353379Y-86858611D01*
X74353377Y-86858612D01*
X74196890Y-86942257D01*
X74140289Y-86959427D01*
X74027088Y-86993766D01*
X73962563Y-87000121D01*
X73894750Y-87006800D01*
X73806250Y-87006800D01*
X73738437Y-87000121D01*
X73673912Y-86993766D01*
X73560711Y-86959427D01*
X73504110Y-86942257D01*
X73347623Y-86858612D01*
X73347621Y-86858611D01*
X73311891Y-86829288D01*
X73210456Y-86746044D01*
X73109797Y-86623389D01*
X73097889Y-86608879D01*
X73060935Y-86539743D01*
X73014243Y-86452390D01*
X72997073Y-86395789D01*
X72962734Y-86282588D01*
X72945342Y-86106000D01*
X72962734Y-85929412D01*
X73014243Y-85759611D01*
X73014243Y-85759610D01*
X73097888Y-85603123D01*
X73097889Y-85603121D01*
X73127212Y-85567391D01*
X73210456Y-85465956D01*
X73311891Y-85382712D01*
X73347621Y-85353389D01*
X73429937Y-85309390D01*
X73504110Y-85269743D01*
X73560711Y-85252573D01*
X73673912Y-85218234D01*
X73762138Y-85209545D01*
X73806250Y-85205200D01*
X73894750Y-85205200D01*
X73938862Y-85209545D01*
X73938862Y-85209545D01*
G37*
G36*
X66636362Y-84066545D02*
X66724588Y-84075234D01*
X66837789Y-84109573D01*
X66894390Y-84126743D01*
X67032980Y-84200822D01*
X67050879Y-84210389D01*
X67086609Y-84239712D01*
X67188044Y-84322956D01*
X67253123Y-84402257D01*
X67300611Y-84460121D01*
X67300612Y-84460123D01*
X67384257Y-84616610D01*
X67384257Y-84616611D01*
X67435766Y-84786412D01*
X67453158Y-84963000D01*
X67435766Y-85139588D01*
X67411909Y-85218234D01*
X67384257Y-85309390D01*
X67310178Y-85447980D01*
X67300611Y-85465879D01*
X67271288Y-85501609D01*
X67188044Y-85603044D01*
X67086609Y-85686288D01*
X67050879Y-85715611D01*
X67050877Y-85715612D01*
X66894390Y-85799257D01*
X66837789Y-85816427D01*
X66724588Y-85850766D01*
X66636362Y-85859455D01*
X66592250Y-85863800D01*
X66503750Y-85863800D01*
X66459638Y-85859455D01*
X66371412Y-85850766D01*
X66258211Y-85816427D01*
X66201610Y-85799257D01*
X66045123Y-85715612D01*
X66045121Y-85715611D01*
X66009391Y-85686288D01*
X65907956Y-85603044D01*
X65824712Y-85501609D01*
X65795389Y-85465879D01*
X65785822Y-85447980D01*
X65711743Y-85309390D01*
X65684091Y-85218234D01*
X65660234Y-85139588D01*
X65642842Y-84963000D01*
X65660234Y-84786412D01*
X65711743Y-84616611D01*
X65711743Y-84616610D01*
X65795388Y-84460123D01*
X65795389Y-84460121D01*
X65842877Y-84402257D01*
X65907956Y-84322956D01*
X66009391Y-84239712D01*
X66045121Y-84210389D01*
X66063020Y-84200822D01*
X66201610Y-84126743D01*
X66258211Y-84109573D01*
X66371412Y-84075234D01*
X66459638Y-84066545D01*
X66503750Y-84062200D01*
X66592250Y-84062200D01*
X66636362Y-84066545D01*
X66636362Y-84066545D01*
G37*
G36*
X95401862Y-82669545D02*
X95490088Y-82678234D01*
X95603289Y-82712573D01*
X95659890Y-82729743D01*
X95734063Y-82769390D01*
X95816379Y-82813389D01*
X95852109Y-82842712D01*
X95953544Y-82925956D01*
X96036788Y-83027391D01*
X96066111Y-83063121D01*
X96066112Y-83063123D01*
X96149757Y-83219610D01*
X96159742Y-83252527D01*
X96201266Y-83389412D01*
X96218658Y-83566000D01*
X96201266Y-83742588D01*
X96166927Y-83855789D01*
X96149757Y-83912390D01*
X96075678Y-84050980D01*
X96066111Y-84068879D01*
X96036788Y-84104609D01*
X95953544Y-84206044D01*
X95852109Y-84289288D01*
X95816379Y-84318611D01*
X95816377Y-84318612D01*
X95659890Y-84402257D01*
X95603289Y-84419427D01*
X95490088Y-84453766D01*
X95425563Y-84460121D01*
X95357750Y-84466800D01*
X95269250Y-84466800D01*
X95201437Y-84460121D01*
X95136912Y-84453766D01*
X95023711Y-84419427D01*
X94967110Y-84402257D01*
X94810623Y-84318612D01*
X94810621Y-84318611D01*
X94774891Y-84289288D01*
X94673456Y-84206044D01*
X94590212Y-84104609D01*
X94560889Y-84068879D01*
X94551322Y-84050980D01*
X94477243Y-83912390D01*
X94460073Y-83855789D01*
X94425734Y-83742588D01*
X94408342Y-83566000D01*
X94425734Y-83389412D01*
X94467258Y-83252527D01*
X94477243Y-83219610D01*
X94560888Y-83063123D01*
X94560889Y-83063121D01*
X94590212Y-83027391D01*
X94673456Y-82925956D01*
X94774891Y-82842712D01*
X94810621Y-82813389D01*
X94892937Y-82769390D01*
X94967110Y-82729743D01*
X95023711Y-82712573D01*
X95136912Y-82678234D01*
X95225138Y-82669545D01*
X95269250Y-82665200D01*
X95357750Y-82665200D01*
X95401862Y-82669545D01*
X95401862Y-82669545D01*
G37*
G36*
X73938862Y-82669545D02*
X74027088Y-82678234D01*
X74140289Y-82712573D01*
X74196890Y-82729743D01*
X74271063Y-82769390D01*
X74353379Y-82813389D01*
X74389109Y-82842712D01*
X74490544Y-82925956D01*
X74573788Y-83027391D01*
X74603111Y-83063121D01*
X74603112Y-83063123D01*
X74686757Y-83219610D01*
X74696742Y-83252527D01*
X74738266Y-83389412D01*
X74755658Y-83566000D01*
X74738266Y-83742588D01*
X74703927Y-83855789D01*
X74686757Y-83912390D01*
X74612678Y-84050980D01*
X74603111Y-84068879D01*
X74573788Y-84104609D01*
X74490544Y-84206044D01*
X74389109Y-84289288D01*
X74353379Y-84318611D01*
X74353377Y-84318612D01*
X74196890Y-84402257D01*
X74140289Y-84419427D01*
X74027088Y-84453766D01*
X73962563Y-84460121D01*
X73894750Y-84466800D01*
X73806250Y-84466800D01*
X73738437Y-84460121D01*
X73673912Y-84453766D01*
X73560711Y-84419427D01*
X73504110Y-84402257D01*
X73347623Y-84318612D01*
X73347621Y-84318611D01*
X73311891Y-84289288D01*
X73210456Y-84206044D01*
X73127212Y-84104609D01*
X73097889Y-84068879D01*
X73088322Y-84050980D01*
X73014243Y-83912390D01*
X72997073Y-83855789D01*
X72962734Y-83742588D01*
X72945342Y-83566000D01*
X72962734Y-83389412D01*
X73004258Y-83252527D01*
X73014243Y-83219610D01*
X73097888Y-83063123D01*
X73097889Y-83063121D01*
X73127212Y-83027391D01*
X73210456Y-82925956D01*
X73311891Y-82842712D01*
X73347621Y-82813389D01*
X73429937Y-82769390D01*
X73504110Y-82729743D01*
X73560711Y-82712573D01*
X73673912Y-82678234D01*
X73762138Y-82669545D01*
X73806250Y-82665200D01*
X73894750Y-82665200D01*
X73938862Y-82669545D01*
X73938862Y-82669545D01*
G37*
G36*
X111584352Y-80515018D02*
X111870948Y-80633730D01*
X111998948Y-80719257D01*
X112128880Y-80806075D01*
X112348225Y-81025420D01*
X112520571Y-81283354D01*
X112639282Y-81569948D01*
X112699800Y-81874194D01*
X112699800Y-82184406D01*
X112639282Y-82488652D01*
X112522997Y-82769390D01*
X112520570Y-82775248D01*
X112495085Y-82813389D01*
X112348225Y-83033180D01*
X112128880Y-83252525D01*
X112128877Y-83252527D01*
X111870948Y-83424870D01*
X111870947Y-83424871D01*
X111870946Y-83424871D01*
X111584352Y-83543582D01*
X111280106Y-83604100D01*
X110969894Y-83604100D01*
X110665648Y-83543582D01*
X110379054Y-83424871D01*
X110379053Y-83424871D01*
X110379052Y-83424870D01*
X110121123Y-83252527D01*
X110121120Y-83252525D01*
X109901775Y-83033180D01*
X109754915Y-82813389D01*
X109729430Y-82775248D01*
X109727004Y-82769390D01*
X109610718Y-82488652D01*
X109550200Y-82184406D01*
X109550200Y-81874194D01*
X109610718Y-81569948D01*
X109729429Y-81283354D01*
X109901775Y-81025420D01*
X110121120Y-80806075D01*
X110251052Y-80719257D01*
X110379052Y-80633730D01*
X110665648Y-80515018D01*
X110969894Y-80454500D01*
X111280106Y-80454500D01*
X111584352Y-80515018D01*
X111584352Y-80515018D01*
G37*
G36*
X56847352Y-80515018D02*
X57133948Y-80633730D01*
X57261948Y-80719257D01*
X57391880Y-80806075D01*
X57611225Y-81025420D01*
X57783571Y-81283354D01*
X57902282Y-81569948D01*
X57962800Y-81874194D01*
X57962800Y-82184406D01*
X57902282Y-82488652D01*
X57785997Y-82769390D01*
X57783570Y-82775248D01*
X57758085Y-82813389D01*
X57611225Y-83033180D01*
X57391880Y-83252525D01*
X57391877Y-83252527D01*
X57133948Y-83424870D01*
X57133947Y-83424871D01*
X57133946Y-83424871D01*
X56847352Y-83543582D01*
X56543106Y-83604100D01*
X56232894Y-83604100D01*
X55928648Y-83543582D01*
X55642054Y-83424871D01*
X55642053Y-83424871D01*
X55642052Y-83424870D01*
X55384123Y-83252527D01*
X55384120Y-83252525D01*
X55164775Y-83033180D01*
X55017915Y-82813389D01*
X54992430Y-82775248D01*
X54990004Y-82769390D01*
X54873718Y-82488652D01*
X54813200Y-82184406D01*
X54813200Y-81874194D01*
X54873718Y-81569948D01*
X54992429Y-81283354D01*
X55164775Y-81025420D01*
X55384120Y-80806075D01*
X55514052Y-80719257D01*
X55642052Y-80633730D01*
X55928648Y-80515018D01*
X56232894Y-80454500D01*
X56543106Y-80454500D01*
X56847352Y-80515018D01*
X56847352Y-80515018D01*
G37*
G36*
X66636362Y-81526545D02*
X66724588Y-81535234D01*
X66837789Y-81569573D01*
X66894390Y-81586743D01*
X67032980Y-81660822D01*
X67050879Y-81670389D01*
X67086609Y-81699712D01*
X67188044Y-81782956D01*
X67253123Y-81862257D01*
X67300611Y-81920121D01*
X67300612Y-81920123D01*
X67384257Y-82076610D01*
X67384257Y-82076611D01*
X67435766Y-82246412D01*
X67453158Y-82423000D01*
X67435766Y-82599588D01*
X67411909Y-82678234D01*
X67384257Y-82769390D01*
X67310178Y-82907980D01*
X67300611Y-82925879D01*
X67271288Y-82961609D01*
X67188044Y-83063044D01*
X67086609Y-83146288D01*
X67050879Y-83175611D01*
X67050877Y-83175612D01*
X66894390Y-83259257D01*
X66837789Y-83276427D01*
X66724588Y-83310766D01*
X66636362Y-83319455D01*
X66592250Y-83323800D01*
X66503750Y-83323800D01*
X66459638Y-83319455D01*
X66371412Y-83310766D01*
X66258211Y-83276427D01*
X66201610Y-83259257D01*
X66045123Y-83175612D01*
X66045121Y-83175611D01*
X66009391Y-83146288D01*
X65907956Y-83063044D01*
X65824712Y-82961609D01*
X65795389Y-82925879D01*
X65785822Y-82907980D01*
X65711743Y-82769390D01*
X65684091Y-82678234D01*
X65660234Y-82599588D01*
X65642842Y-82423000D01*
X65660234Y-82246412D01*
X65711743Y-82076611D01*
X65711743Y-82076610D01*
X65795388Y-81920123D01*
X65795389Y-81920121D01*
X65842877Y-81862257D01*
X65907956Y-81782956D01*
X66009391Y-81699712D01*
X66045121Y-81670389D01*
X66063020Y-81660822D01*
X66201610Y-81586743D01*
X66258211Y-81569573D01*
X66371412Y-81535234D01*
X66459638Y-81526545D01*
X66503750Y-81522200D01*
X66592250Y-81522200D01*
X66636362Y-81526545D01*
X66636362Y-81526545D01*
G37*
G36*
X73938862Y-80129545D02*
X74027088Y-80138234D01*
X74140289Y-80172573D01*
X74196890Y-80189743D01*
X74271063Y-80229390D01*
X74353379Y-80273389D01*
X74389109Y-80302712D01*
X74490544Y-80385956D01*
X74573788Y-80487391D01*
X74603111Y-80523121D01*
X74603112Y-80523123D01*
X74686757Y-80679610D01*
X74686757Y-80679611D01*
X74738266Y-80849412D01*
X74755658Y-81026000D01*
X74738266Y-81202588D01*
X74713766Y-81283352D01*
X74686757Y-81372390D01*
X74612678Y-81510980D01*
X74603111Y-81528879D01*
X74573788Y-81564609D01*
X74490544Y-81666044D01*
X74389109Y-81749288D01*
X74353379Y-81778611D01*
X74353377Y-81778612D01*
X74196890Y-81862257D01*
X74157532Y-81874196D01*
X74027088Y-81913766D01*
X73962563Y-81920121D01*
X73894750Y-81926800D01*
X73806250Y-81926800D01*
X73738437Y-81920121D01*
X73673912Y-81913766D01*
X73543468Y-81874196D01*
X73504110Y-81862257D01*
X73347623Y-81778612D01*
X73347621Y-81778611D01*
X73311891Y-81749288D01*
X73210456Y-81666044D01*
X73127212Y-81564609D01*
X73097889Y-81528879D01*
X73088322Y-81510980D01*
X73014243Y-81372390D01*
X72987234Y-81283352D01*
X72962734Y-81202588D01*
X72945342Y-81026000D01*
X72962734Y-80849412D01*
X73014243Y-80679611D01*
X73014243Y-80679610D01*
X73097888Y-80523123D01*
X73097889Y-80523121D01*
X73127212Y-80487391D01*
X73210456Y-80385956D01*
X73311891Y-80302712D01*
X73347621Y-80273389D01*
X73429937Y-80229390D01*
X73504110Y-80189743D01*
X73560711Y-80172573D01*
X73673912Y-80138234D01*
X73762138Y-80129545D01*
X73806250Y-80125200D01*
X73894750Y-80125200D01*
X73938862Y-80129545D01*
X73938862Y-80129545D01*
G37*
G36*
X95401862Y-80129545D02*
X95490088Y-80138234D01*
X95603289Y-80172573D01*
X95659890Y-80189743D01*
X95734063Y-80229390D01*
X95816379Y-80273389D01*
X95852109Y-80302712D01*
X95953544Y-80385956D01*
X96036788Y-80487391D01*
X96066111Y-80523121D01*
X96066112Y-80523123D01*
X96149757Y-80679610D01*
X96149757Y-80679611D01*
X96201266Y-80849412D01*
X96218658Y-81026000D01*
X96201266Y-81202588D01*
X96176766Y-81283352D01*
X96149757Y-81372390D01*
X96075678Y-81510980D01*
X96066111Y-81528879D01*
X96036788Y-81564609D01*
X95953544Y-81666044D01*
X95852109Y-81749288D01*
X95816379Y-81778611D01*
X95816377Y-81778612D01*
X95659890Y-81862257D01*
X95620532Y-81874196D01*
X95490088Y-81913766D01*
X95425563Y-81920121D01*
X95357750Y-81926800D01*
X95269250Y-81926800D01*
X95201437Y-81920121D01*
X95136912Y-81913766D01*
X95006468Y-81874196D01*
X94967110Y-81862257D01*
X94810623Y-81778612D01*
X94810621Y-81778611D01*
X94774891Y-81749288D01*
X94673456Y-81666044D01*
X94590212Y-81564609D01*
X94560889Y-81528879D01*
X94551322Y-81510980D01*
X94477243Y-81372390D01*
X94450234Y-81283352D01*
X94425734Y-81202588D01*
X94408342Y-81026000D01*
X94425734Y-80849412D01*
X94477243Y-80679611D01*
X94477243Y-80679610D01*
X94560888Y-80523123D01*
X94560889Y-80523121D01*
X94590212Y-80487391D01*
X94673456Y-80385956D01*
X94774891Y-80302712D01*
X94810621Y-80273389D01*
X94892937Y-80229390D01*
X94967110Y-80189743D01*
X95023711Y-80172573D01*
X95136912Y-80138234D01*
X95225138Y-80129545D01*
X95269250Y-80125200D01*
X95357750Y-80125200D01*
X95401862Y-80129545D01*
X95401862Y-80129545D01*
G37*
G36*
X66636362Y-78986545D02*
X66724588Y-78995234D01*
X66837789Y-79029573D01*
X66894390Y-79046743D01*
X67032980Y-79120822D01*
X67050879Y-79130389D01*
X67086609Y-79159712D01*
X67188044Y-79242956D01*
X67253123Y-79322257D01*
X67300611Y-79380121D01*
X67300612Y-79380123D01*
X67384257Y-79536610D01*
X67384257Y-79536611D01*
X67435766Y-79706412D01*
X67453158Y-79883000D01*
X67435766Y-80059588D01*
X67411909Y-80138234D01*
X67384257Y-80229390D01*
X67310178Y-80367980D01*
X67300611Y-80385879D01*
X67271288Y-80421609D01*
X67188044Y-80523044D01*
X67086609Y-80606288D01*
X67050879Y-80635611D01*
X67050877Y-80635612D01*
X66894390Y-80719257D01*
X66837789Y-80736427D01*
X66724588Y-80770766D01*
X66636362Y-80779455D01*
X66592250Y-80783800D01*
X66503750Y-80783800D01*
X66459638Y-80779455D01*
X66371412Y-80770766D01*
X66258211Y-80736427D01*
X66201610Y-80719257D01*
X66045123Y-80635612D01*
X66045121Y-80635611D01*
X66009391Y-80606288D01*
X65907956Y-80523044D01*
X65824712Y-80421609D01*
X65795389Y-80385879D01*
X65785822Y-80367980D01*
X65711743Y-80229390D01*
X65684091Y-80138234D01*
X65660234Y-80059588D01*
X65642842Y-79883000D01*
X65660234Y-79706412D01*
X65711743Y-79536611D01*
X65711743Y-79536610D01*
X65795388Y-79380123D01*
X65795389Y-79380121D01*
X65842877Y-79322257D01*
X65907956Y-79242956D01*
X66009391Y-79159712D01*
X66045121Y-79130389D01*
X66063020Y-79120822D01*
X66201610Y-79046743D01*
X66258211Y-79029573D01*
X66371412Y-78995234D01*
X66459638Y-78986545D01*
X66503750Y-78982200D01*
X66592250Y-78982200D01*
X66636362Y-78986545D01*
X66636362Y-78986545D01*
G37*
G36*
X73938862Y-77589545D02*
X74027088Y-77598234D01*
X74140289Y-77632573D01*
X74196890Y-77649743D01*
X74271063Y-77689390D01*
X74353379Y-77733389D01*
X74389109Y-77762712D01*
X74490544Y-77845956D01*
X74573788Y-77947391D01*
X74603111Y-77983121D01*
X74603112Y-77983123D01*
X74686757Y-78139610D01*
X74686757Y-78139611D01*
X74738266Y-78309412D01*
X74755658Y-78486000D01*
X74738266Y-78662588D01*
X74703927Y-78775789D01*
X74686757Y-78832390D01*
X74612678Y-78970980D01*
X74603111Y-78988879D01*
X74573788Y-79024609D01*
X74490544Y-79126044D01*
X74389109Y-79209288D01*
X74353379Y-79238611D01*
X74353377Y-79238612D01*
X74196890Y-79322257D01*
X74140289Y-79339427D01*
X74027088Y-79373766D01*
X73962563Y-79380121D01*
X73894750Y-79386800D01*
X73806250Y-79386800D01*
X73738437Y-79380121D01*
X73673912Y-79373766D01*
X73560711Y-79339427D01*
X73504110Y-79322257D01*
X73347623Y-79238612D01*
X73347621Y-79238611D01*
X73311891Y-79209288D01*
X73210456Y-79126044D01*
X73127212Y-79024609D01*
X73097889Y-78988879D01*
X73088322Y-78970980D01*
X73014243Y-78832390D01*
X72997073Y-78775789D01*
X72962734Y-78662588D01*
X72945342Y-78486000D01*
X72962734Y-78309412D01*
X73014243Y-78139611D01*
X73014243Y-78139610D01*
X73097888Y-77983123D01*
X73097889Y-77983121D01*
X73127212Y-77947391D01*
X73210456Y-77845956D01*
X73311891Y-77762712D01*
X73347621Y-77733389D01*
X73429937Y-77689390D01*
X73504110Y-77649743D01*
X73560711Y-77632573D01*
X73673912Y-77598234D01*
X73762138Y-77589545D01*
X73806250Y-77585200D01*
X73894750Y-77585200D01*
X73938862Y-77589545D01*
X73938862Y-77589545D01*
G37*
G36*
X95401862Y-77589545D02*
X95490088Y-77598234D01*
X95603289Y-77632573D01*
X95659890Y-77649743D01*
X95734063Y-77689390D01*
X95816379Y-77733389D01*
X95852109Y-77762712D01*
X95953544Y-77845956D01*
X96036788Y-77947391D01*
X96066111Y-77983121D01*
X96066112Y-77983123D01*
X96149757Y-78139610D01*
X96149757Y-78139611D01*
X96201266Y-78309412D01*
X96218658Y-78486000D01*
X96201266Y-78662588D01*
X96166927Y-78775789D01*
X96149757Y-78832390D01*
X96075678Y-78970980D01*
X96066111Y-78988879D01*
X96036788Y-79024609D01*
X95953544Y-79126044D01*
X95852109Y-79209288D01*
X95816379Y-79238611D01*
X95816377Y-79238612D01*
X95659890Y-79322257D01*
X95603289Y-79339427D01*
X95490088Y-79373766D01*
X95425563Y-79380121D01*
X95357750Y-79386800D01*
X95269250Y-79386800D01*
X95201437Y-79380121D01*
X95136912Y-79373766D01*
X95023711Y-79339427D01*
X94967110Y-79322257D01*
X94810623Y-79238612D01*
X94810621Y-79238611D01*
X94774891Y-79209288D01*
X94673456Y-79126044D01*
X94590212Y-79024609D01*
X94560889Y-78988879D01*
X94551322Y-78970980D01*
X94477243Y-78832390D01*
X94460073Y-78775789D01*
X94425734Y-78662588D01*
X94408342Y-78486000D01*
X94425734Y-78309412D01*
X94477243Y-78139611D01*
X94477243Y-78139610D01*
X94560888Y-77983123D01*
X94560889Y-77983121D01*
X94590212Y-77947391D01*
X94673456Y-77845956D01*
X94774891Y-77762712D01*
X94810621Y-77733389D01*
X94892937Y-77689390D01*
X94967110Y-77649743D01*
X95023711Y-77632573D01*
X95136912Y-77598234D01*
X95225138Y-77589545D01*
X95269250Y-77585200D01*
X95357750Y-77585200D01*
X95401862Y-77589545D01*
X95401862Y-77589545D01*
G37*
G36*
X66636362Y-76446545D02*
X66724588Y-76455234D01*
X66837789Y-76489573D01*
X66894390Y-76506743D01*
X67032980Y-76580822D01*
X67050879Y-76590389D01*
X67086609Y-76619712D01*
X67188044Y-76702956D01*
X67253123Y-76782257D01*
X67300611Y-76840121D01*
X67300612Y-76840123D01*
X67384257Y-76996610D01*
X67384257Y-76996611D01*
X67435766Y-77166412D01*
X67453158Y-77343000D01*
X67435766Y-77519588D01*
X67411909Y-77598234D01*
X67384257Y-77689390D01*
X67310178Y-77827980D01*
X67300611Y-77845879D01*
X67271288Y-77881609D01*
X67188044Y-77983044D01*
X67086609Y-78066288D01*
X67050879Y-78095611D01*
X67050877Y-78095612D01*
X66894390Y-78179257D01*
X66837789Y-78196427D01*
X66724588Y-78230766D01*
X66636362Y-78239455D01*
X66592250Y-78243800D01*
X66503750Y-78243800D01*
X66459638Y-78239455D01*
X66371412Y-78230766D01*
X66258211Y-78196427D01*
X66201610Y-78179257D01*
X66045123Y-78095612D01*
X66045121Y-78095611D01*
X66009391Y-78066288D01*
X65907956Y-77983044D01*
X65824712Y-77881609D01*
X65795389Y-77845879D01*
X65785822Y-77827980D01*
X65711743Y-77689390D01*
X65684091Y-77598234D01*
X65660234Y-77519588D01*
X65642842Y-77343000D01*
X65660234Y-77166412D01*
X65711743Y-76996611D01*
X65711743Y-76996610D01*
X65795388Y-76840123D01*
X65795389Y-76840121D01*
X65842877Y-76782257D01*
X65907956Y-76702956D01*
X66009391Y-76619712D01*
X66045121Y-76590389D01*
X66063020Y-76580822D01*
X66201610Y-76506743D01*
X66258211Y-76489573D01*
X66371412Y-76455234D01*
X66459638Y-76446545D01*
X66503750Y-76442200D01*
X66592250Y-76442200D01*
X66636362Y-76446545D01*
X66636362Y-76446545D01*
G37*
G36*
X73938862Y-75049545D02*
X74027088Y-75058234D01*
X74140289Y-75092573D01*
X74196890Y-75109743D01*
X74335480Y-75183822D01*
X74353379Y-75193389D01*
X74385160Y-75219471D01*
X74490544Y-75305956D01*
X74573788Y-75407391D01*
X74603111Y-75443121D01*
X74603112Y-75443123D01*
X74686757Y-75599610D01*
X74686757Y-75599611D01*
X74738266Y-75769412D01*
X74755658Y-75946000D01*
X74738266Y-76122588D01*
X74703927Y-76235789D01*
X74686757Y-76292390D01*
X74612678Y-76430980D01*
X74603111Y-76448879D01*
X74573788Y-76484609D01*
X74490544Y-76586044D01*
X74389109Y-76669288D01*
X74353379Y-76698611D01*
X74353377Y-76698612D01*
X74196890Y-76782257D01*
X74140289Y-76799427D01*
X74027088Y-76833766D01*
X73962563Y-76840121D01*
X73894750Y-76846800D01*
X73806250Y-76846800D01*
X73738437Y-76840121D01*
X73673912Y-76833766D01*
X73560711Y-76799427D01*
X73504110Y-76782257D01*
X73347623Y-76698612D01*
X73347621Y-76698611D01*
X73311891Y-76669288D01*
X73210456Y-76586044D01*
X73127212Y-76484609D01*
X73097889Y-76448879D01*
X73088322Y-76430980D01*
X73014243Y-76292390D01*
X72997073Y-76235789D01*
X72962734Y-76122588D01*
X72945342Y-75946000D01*
X72962734Y-75769412D01*
X73014243Y-75599611D01*
X73014243Y-75599610D01*
X73097888Y-75443123D01*
X73097889Y-75443121D01*
X73127212Y-75407391D01*
X73210456Y-75305956D01*
X73315840Y-75219471D01*
X73347621Y-75193389D01*
X73365520Y-75183822D01*
X73504110Y-75109743D01*
X73560711Y-75092573D01*
X73673912Y-75058234D01*
X73762138Y-75049545D01*
X73806250Y-75045200D01*
X73894750Y-75045200D01*
X73938862Y-75049545D01*
X73938862Y-75049545D01*
G37*
G36*
X95401862Y-75049545D02*
X95490088Y-75058234D01*
X95603289Y-75092573D01*
X95659890Y-75109743D01*
X95798480Y-75183822D01*
X95816379Y-75193389D01*
X95848160Y-75219471D01*
X95953544Y-75305956D01*
X96036788Y-75407391D01*
X96066111Y-75443121D01*
X96066112Y-75443123D01*
X96149757Y-75599610D01*
X96149757Y-75599611D01*
X96201266Y-75769412D01*
X96218658Y-75946000D01*
X96201266Y-76122588D01*
X96166927Y-76235789D01*
X96149757Y-76292390D01*
X96075678Y-76430980D01*
X96066111Y-76448879D01*
X96036788Y-76484609D01*
X95953544Y-76586044D01*
X95852109Y-76669288D01*
X95816379Y-76698611D01*
X95816377Y-76698612D01*
X95659890Y-76782257D01*
X95603289Y-76799427D01*
X95490088Y-76833766D01*
X95425563Y-76840121D01*
X95357750Y-76846800D01*
X95269250Y-76846800D01*
X95201437Y-76840121D01*
X95136912Y-76833766D01*
X95023711Y-76799427D01*
X94967110Y-76782257D01*
X94810623Y-76698612D01*
X94810621Y-76698611D01*
X94774891Y-76669288D01*
X94673456Y-76586044D01*
X94590212Y-76484609D01*
X94560889Y-76448879D01*
X94551322Y-76430980D01*
X94477243Y-76292390D01*
X94460073Y-76235789D01*
X94425734Y-76122588D01*
X94408342Y-75946000D01*
X94425734Y-75769412D01*
X94477243Y-75599611D01*
X94477243Y-75599610D01*
X94560888Y-75443123D01*
X94560889Y-75443121D01*
X94590212Y-75407391D01*
X94673456Y-75305956D01*
X94778840Y-75219471D01*
X94810621Y-75193389D01*
X94828520Y-75183822D01*
X94967110Y-75109743D01*
X95023711Y-75092573D01*
X95136912Y-75058234D01*
X95225138Y-75049545D01*
X95269250Y-75045200D01*
X95357750Y-75045200D01*
X95401862Y-75049545D01*
X95401862Y-75049545D01*
G37*
G36*
X56613971Y-74248571D02*
X56754958Y-74306970D01*
X56881843Y-74391752D01*
X56989748Y-74499657D01*
X57074530Y-74626542D01*
X57132929Y-74767529D01*
X57162700Y-74917197D01*
X57162700Y-75069803D01*
X57132929Y-75219471D01*
X57074530Y-75360458D01*
X56989748Y-75487343D01*
X56881843Y-75595248D01*
X56754958Y-75680030D01*
X56613971Y-75738429D01*
X56464303Y-75768200D01*
X56311697Y-75768200D01*
X56162029Y-75738429D01*
X56021042Y-75680030D01*
X55894157Y-75595248D01*
X55786252Y-75487343D01*
X55701470Y-75360458D01*
X55643071Y-75219471D01*
X55613300Y-75069803D01*
X55613300Y-74917197D01*
X55643071Y-74767529D01*
X55701470Y-74626542D01*
X55786252Y-74499657D01*
X55894157Y-74391752D01*
X56021042Y-74306970D01*
X56162029Y-74248571D01*
X56311697Y-74218800D01*
X56464303Y-74218800D01*
X56613971Y-74248571D01*
X56613971Y-74248571D01*
G37*
G36*
X111350971Y-74248571D02*
X111491958Y-74306970D01*
X111618843Y-74391752D01*
X111726748Y-74499657D01*
X111811530Y-74626542D01*
X111869929Y-74767529D01*
X111899700Y-74917197D01*
X111899700Y-75069803D01*
X111869929Y-75219471D01*
X111811530Y-75360458D01*
X111726748Y-75487343D01*
X111618843Y-75595248D01*
X111491958Y-75680030D01*
X111350971Y-75738429D01*
X111201303Y-75768200D01*
X111048697Y-75768200D01*
X110899029Y-75738429D01*
X110758042Y-75680030D01*
X110631157Y-75595248D01*
X110523252Y-75487343D01*
X110438470Y-75360458D01*
X110380071Y-75219471D01*
X110350300Y-75069803D01*
X110350300Y-74917197D01*
X110380071Y-74767529D01*
X110438470Y-74626542D01*
X110523252Y-74499657D01*
X110631157Y-74391752D01*
X110758042Y-74306970D01*
X110899029Y-74248571D01*
X111048697Y-74218800D01*
X111201303Y-74218800D01*
X111350971Y-74248571D01*
X111350971Y-74248571D01*
G37*
G36*
X113890971Y-73105571D02*
X114031958Y-73163970D01*
X114158843Y-73248752D01*
X114266748Y-73356657D01*
X114351530Y-73483542D01*
X114409929Y-73624529D01*
X114439700Y-73774197D01*
X114439700Y-73926803D01*
X114409929Y-74076471D01*
X114351530Y-74217458D01*
X114266748Y-74344343D01*
X114158843Y-74452248D01*
X114031958Y-74537030D01*
X113890971Y-74595429D01*
X113741303Y-74625200D01*
X113588697Y-74625200D01*
X113439029Y-74595429D01*
X113298042Y-74537030D01*
X113171157Y-74452248D01*
X113063252Y-74344343D01*
X112978470Y-74217458D01*
X112920071Y-74076471D01*
X112890300Y-73926803D01*
X112890300Y-73774197D01*
X112920071Y-73624529D01*
X112978470Y-73483542D01*
X113063252Y-73356657D01*
X113171157Y-73248752D01*
X113298042Y-73163970D01*
X113439029Y-73105571D01*
X113588697Y-73075800D01*
X113741303Y-73075800D01*
X113890971Y-73105571D01*
X113890971Y-73105571D01*
G37*
G36*
X54073971Y-73105571D02*
X54214958Y-73163970D01*
X54341843Y-73248752D01*
X54449748Y-73356657D01*
X54534530Y-73483542D01*
X54592929Y-73624529D01*
X54622700Y-73774197D01*
X54622700Y-73926803D01*
X54592929Y-74076471D01*
X54534530Y-74217458D01*
X54449748Y-74344343D01*
X54341843Y-74452248D01*
X54214958Y-74537030D01*
X54073971Y-74595429D01*
X53924303Y-74625200D01*
X53771697Y-74625200D01*
X53622029Y-74595429D01*
X53481042Y-74537030D01*
X53354157Y-74452248D01*
X53246252Y-74344343D01*
X53161470Y-74217458D01*
X53103071Y-74076471D01*
X53073300Y-73926803D01*
X53073300Y-73774197D01*
X53103071Y-73624529D01*
X53161470Y-73483542D01*
X53246252Y-73356657D01*
X53354157Y-73248752D01*
X53481042Y-73163970D01*
X53622029Y-73105571D01*
X53771697Y-73075800D01*
X53924303Y-73075800D01*
X54073971Y-73105571D01*
X54073971Y-73105571D01*
G37*
G36*
X59702700Y-74625200D02*
X58153300Y-74625200D01*
X58153300Y-73075800D01*
X59702700Y-73075800D01*
X59702700Y-74625200D01*
X59702700Y-74625200D01*
G37*
G36*
X109359700Y-74625200D02*
X107810300Y-74625200D01*
X107810300Y-73075800D01*
X109359700Y-73075800D01*
X109359700Y-74625200D01*
X109359700Y-74625200D01*
G37*
G36*
X95401862Y-72509545D02*
X95490088Y-72518234D01*
X95603289Y-72552573D01*
X95659890Y-72569743D01*
X95774861Y-72631197D01*
X95816379Y-72653389D01*
X95852109Y-72682712D01*
X95953544Y-72765956D01*
X96036788Y-72867391D01*
X96066111Y-72903121D01*
X96066112Y-72903123D01*
X96149757Y-73059610D01*
X96149757Y-73059611D01*
X96201266Y-73229412D01*
X96218658Y-73406000D01*
X96201266Y-73582588D01*
X96188543Y-73624529D01*
X96149757Y-73752390D01*
X96075678Y-73890980D01*
X96066111Y-73908879D01*
X96051401Y-73926803D01*
X95953544Y-74046044D01*
X95852109Y-74129288D01*
X95816379Y-74158611D01*
X95816377Y-74158612D01*
X95659890Y-74242257D01*
X95603289Y-74259427D01*
X95490088Y-74293766D01*
X95401862Y-74302455D01*
X95357750Y-74306800D01*
X95269250Y-74306800D01*
X95225138Y-74302455D01*
X95136912Y-74293766D01*
X95023711Y-74259427D01*
X94967110Y-74242257D01*
X94810623Y-74158612D01*
X94810621Y-74158611D01*
X94774891Y-74129288D01*
X94673456Y-74046044D01*
X94575599Y-73926803D01*
X94560889Y-73908879D01*
X94551322Y-73890980D01*
X94477243Y-73752390D01*
X94438457Y-73624529D01*
X94425734Y-73582588D01*
X94408342Y-73406000D01*
X94425734Y-73229412D01*
X94477243Y-73059611D01*
X94477243Y-73059610D01*
X94560888Y-72903123D01*
X94560889Y-72903121D01*
X94590212Y-72867391D01*
X94673456Y-72765956D01*
X94774891Y-72682712D01*
X94810621Y-72653389D01*
X94852139Y-72631197D01*
X94967110Y-72569743D01*
X95023711Y-72552573D01*
X95136912Y-72518234D01*
X95225138Y-72509545D01*
X95269250Y-72505200D01*
X95357750Y-72505200D01*
X95401862Y-72509545D01*
X95401862Y-72509545D01*
G37*
G36*
X73938862Y-72509545D02*
X74027088Y-72518234D01*
X74140289Y-72552573D01*
X74196890Y-72569743D01*
X74311861Y-72631197D01*
X74353379Y-72653389D01*
X74389109Y-72682712D01*
X74490544Y-72765956D01*
X74573788Y-72867391D01*
X74603111Y-72903121D01*
X74603112Y-72903123D01*
X74686757Y-73059610D01*
X74686757Y-73059611D01*
X74738266Y-73229412D01*
X74755658Y-73406000D01*
X74738266Y-73582588D01*
X74725543Y-73624529D01*
X74686757Y-73752390D01*
X74612678Y-73890980D01*
X74603111Y-73908879D01*
X74588401Y-73926803D01*
X74490544Y-74046044D01*
X74389109Y-74129288D01*
X74353379Y-74158611D01*
X74353377Y-74158612D01*
X74196890Y-74242257D01*
X74140289Y-74259427D01*
X74027088Y-74293766D01*
X73938862Y-74302455D01*
X73894750Y-74306800D01*
X73806250Y-74306800D01*
X73762138Y-74302455D01*
X73673912Y-74293766D01*
X73560711Y-74259427D01*
X73504110Y-74242257D01*
X73347623Y-74158612D01*
X73347621Y-74158611D01*
X73311891Y-74129288D01*
X73210456Y-74046044D01*
X73112599Y-73926803D01*
X73097889Y-73908879D01*
X73088322Y-73890980D01*
X73014243Y-73752390D01*
X72975457Y-73624529D01*
X72962734Y-73582588D01*
X72945342Y-73406000D01*
X72962734Y-73229412D01*
X73014243Y-73059611D01*
X73014243Y-73059610D01*
X73097888Y-72903123D01*
X73097889Y-72903121D01*
X73127212Y-72867391D01*
X73210456Y-72765956D01*
X73311891Y-72682712D01*
X73347621Y-72653389D01*
X73389139Y-72631197D01*
X73504110Y-72569743D01*
X73560711Y-72552573D01*
X73673912Y-72518234D01*
X73762138Y-72509545D01*
X73806250Y-72505200D01*
X73894750Y-72505200D01*
X73938862Y-72509545D01*
X73938862Y-72509545D01*
G37*
G36*
X111350971Y-71962571D02*
X111491958Y-72020970D01*
X111618843Y-72105752D01*
X111726748Y-72213657D01*
X111811530Y-72340542D01*
X111869929Y-72481529D01*
X111899700Y-72631197D01*
X111899700Y-72783803D01*
X111869929Y-72933471D01*
X111811530Y-73074458D01*
X111726748Y-73201343D01*
X111618843Y-73309248D01*
X111491958Y-73394030D01*
X111350971Y-73452429D01*
X111201303Y-73482200D01*
X111048697Y-73482200D01*
X110899029Y-73452429D01*
X110758042Y-73394030D01*
X110631157Y-73309248D01*
X110523252Y-73201343D01*
X110438470Y-73074458D01*
X110380071Y-72933471D01*
X110350300Y-72783803D01*
X110350300Y-72631197D01*
X110380071Y-72481529D01*
X110438470Y-72340542D01*
X110523252Y-72213657D01*
X110631157Y-72105752D01*
X110758042Y-72020970D01*
X110899029Y-71962571D01*
X111048697Y-71932800D01*
X111201303Y-71932800D01*
X111350971Y-71962571D01*
X111350971Y-71962571D01*
G37*
G36*
X56613971Y-71962571D02*
X56754958Y-72020970D01*
X56881843Y-72105752D01*
X56989748Y-72213657D01*
X57074530Y-72340542D01*
X57132929Y-72481529D01*
X57162700Y-72631197D01*
X57162700Y-72783803D01*
X57132929Y-72933471D01*
X57074530Y-73074458D01*
X56989748Y-73201343D01*
X56881843Y-73309248D01*
X56754958Y-73394030D01*
X56613971Y-73452429D01*
X56464303Y-73482200D01*
X56311697Y-73482200D01*
X56162029Y-73452429D01*
X56021042Y-73394030D01*
X55894157Y-73309248D01*
X55786252Y-73201343D01*
X55701470Y-73074458D01*
X55643071Y-72933471D01*
X55613300Y-72783803D01*
X55613300Y-72631197D01*
X55643071Y-72481529D01*
X55701470Y-72340542D01*
X55786252Y-72213657D01*
X55894157Y-72105752D01*
X56021042Y-72020970D01*
X56162029Y-71962571D01*
X56311697Y-71932800D01*
X56464303Y-71932800D01*
X56613971Y-71962571D01*
X56613971Y-71962571D01*
G37*
G36*
X54073971Y-70819571D02*
X54214958Y-70877970D01*
X54341843Y-70962752D01*
X54449748Y-71070657D01*
X54534530Y-71197542D01*
X54592929Y-71338529D01*
X54622700Y-71488197D01*
X54622700Y-71640803D01*
X54592929Y-71790471D01*
X54534530Y-71931458D01*
X54449748Y-72058343D01*
X54341843Y-72166248D01*
X54214958Y-72251030D01*
X54073971Y-72309429D01*
X53924303Y-72339200D01*
X53771697Y-72339200D01*
X53622029Y-72309429D01*
X53481042Y-72251030D01*
X53354157Y-72166248D01*
X53246252Y-72058343D01*
X53161470Y-71931458D01*
X53103071Y-71790471D01*
X53073300Y-71640803D01*
X53073300Y-71488197D01*
X53103071Y-71338529D01*
X53161470Y-71197542D01*
X53246252Y-71070657D01*
X53354157Y-70962752D01*
X53481042Y-70877970D01*
X53622029Y-70819571D01*
X53771697Y-70789800D01*
X53924303Y-70789800D01*
X54073971Y-70819571D01*
X54073971Y-70819571D01*
G37*
G36*
X59153971Y-70819571D02*
X59294958Y-70877970D01*
X59421843Y-70962752D01*
X59529748Y-71070657D01*
X59614530Y-71197542D01*
X59672929Y-71338529D01*
X59702700Y-71488197D01*
X59702700Y-71640803D01*
X59672929Y-71790471D01*
X59614530Y-71931458D01*
X59529748Y-72058343D01*
X59421843Y-72166248D01*
X59294958Y-72251030D01*
X59153971Y-72309429D01*
X59004303Y-72339200D01*
X58851697Y-72339200D01*
X58702029Y-72309429D01*
X58561042Y-72251030D01*
X58434157Y-72166248D01*
X58326252Y-72058343D01*
X58241470Y-71931458D01*
X58183071Y-71790471D01*
X58153300Y-71640803D01*
X58153300Y-71488197D01*
X58183071Y-71338529D01*
X58241470Y-71197542D01*
X58326252Y-71070657D01*
X58434157Y-70962752D01*
X58561042Y-70877970D01*
X58702029Y-70819571D01*
X58851697Y-70789800D01*
X59004303Y-70789800D01*
X59153971Y-70819571D01*
X59153971Y-70819571D01*
G37*
G36*
X113890971Y-70819571D02*
X114031958Y-70877970D01*
X114158843Y-70962752D01*
X114266748Y-71070657D01*
X114351530Y-71197542D01*
X114409929Y-71338529D01*
X114439700Y-71488197D01*
X114439700Y-71640803D01*
X114409929Y-71790471D01*
X114351530Y-71931458D01*
X114266748Y-72058343D01*
X114158843Y-72166248D01*
X114031958Y-72251030D01*
X113890971Y-72309429D01*
X113741303Y-72339200D01*
X113588697Y-72339200D01*
X113439029Y-72309429D01*
X113298042Y-72251030D01*
X113171157Y-72166248D01*
X113063252Y-72058343D01*
X112978470Y-71931458D01*
X112920071Y-71790471D01*
X112890300Y-71640803D01*
X112890300Y-71488197D01*
X112920071Y-71338529D01*
X112978470Y-71197542D01*
X113063252Y-71070657D01*
X113171157Y-70962752D01*
X113298042Y-70877970D01*
X113439029Y-70819571D01*
X113588697Y-70789800D01*
X113741303Y-70789800D01*
X113890971Y-70819571D01*
X113890971Y-70819571D01*
G37*
G36*
X108810971Y-70819571D02*
X108951958Y-70877970D01*
X109078843Y-70962752D01*
X109186748Y-71070657D01*
X109271530Y-71197542D01*
X109329929Y-71338529D01*
X109359700Y-71488197D01*
X109359700Y-71640803D01*
X109329929Y-71790471D01*
X109271530Y-71931458D01*
X109186748Y-72058343D01*
X109078843Y-72166248D01*
X108951958Y-72251030D01*
X108810971Y-72309429D01*
X108661303Y-72339200D01*
X108508697Y-72339200D01*
X108359029Y-72309429D01*
X108218042Y-72251030D01*
X108091157Y-72166248D01*
X107983252Y-72058343D01*
X107898470Y-71931458D01*
X107840071Y-71790471D01*
X107810300Y-71640803D01*
X107810300Y-71488197D01*
X107840071Y-71338529D01*
X107898470Y-71197542D01*
X107983252Y-71070657D01*
X108091157Y-70962752D01*
X108218042Y-70877970D01*
X108359029Y-70819571D01*
X108508697Y-70789800D01*
X108661303Y-70789800D01*
X108810971Y-70819571D01*
X108810971Y-70819571D01*
G37*
G36*
X95401862Y-69969545D02*
X95490088Y-69978234D01*
X95603289Y-70012573D01*
X95659890Y-70029743D01*
X95798480Y-70103822D01*
X95816379Y-70113389D01*
X95852109Y-70142712D01*
X95953544Y-70225956D01*
X96036788Y-70327391D01*
X96066111Y-70363121D01*
X96066112Y-70363123D01*
X96149757Y-70519610D01*
X96149757Y-70519611D01*
X96201266Y-70689412D01*
X96218658Y-70866000D01*
X96201266Y-71042588D01*
X96192751Y-71070657D01*
X96149757Y-71212390D01*
X96075678Y-71350980D01*
X96066111Y-71368879D01*
X96036788Y-71404609D01*
X95953544Y-71506044D01*
X95852109Y-71589288D01*
X95816379Y-71618611D01*
X95816377Y-71618612D01*
X95659890Y-71702257D01*
X95603289Y-71719427D01*
X95490088Y-71753766D01*
X95401862Y-71762455D01*
X95357750Y-71766800D01*
X95269250Y-71766800D01*
X95225138Y-71762455D01*
X95136912Y-71753766D01*
X95023711Y-71719427D01*
X94967110Y-71702257D01*
X94810623Y-71618612D01*
X94810621Y-71618611D01*
X94774891Y-71589288D01*
X94673456Y-71506044D01*
X94590212Y-71404609D01*
X94560889Y-71368879D01*
X94551322Y-71350980D01*
X94477243Y-71212390D01*
X94434249Y-71070657D01*
X94425734Y-71042588D01*
X94408342Y-70866000D01*
X94425734Y-70689412D01*
X94477243Y-70519611D01*
X94477243Y-70519610D01*
X94560888Y-70363123D01*
X94560889Y-70363121D01*
X94590212Y-70327391D01*
X94673456Y-70225956D01*
X94774891Y-70142712D01*
X94810621Y-70113389D01*
X94828520Y-70103822D01*
X94967110Y-70029743D01*
X95023711Y-70012573D01*
X95136912Y-69978234D01*
X95225138Y-69969545D01*
X95269250Y-69965200D01*
X95357750Y-69965200D01*
X95401862Y-69969545D01*
X95401862Y-69969545D01*
G37*
G36*
X73938862Y-69969545D02*
X74027088Y-69978234D01*
X74140289Y-70012573D01*
X74196890Y-70029743D01*
X74335480Y-70103822D01*
X74353379Y-70113389D01*
X74389109Y-70142712D01*
X74490544Y-70225956D01*
X74573788Y-70327391D01*
X74603111Y-70363121D01*
X74603112Y-70363123D01*
X74686757Y-70519610D01*
X74686757Y-70519611D01*
X74738266Y-70689412D01*
X74755658Y-70866000D01*
X74738266Y-71042588D01*
X74729751Y-71070657D01*
X74686757Y-71212390D01*
X74612678Y-71350980D01*
X74603111Y-71368879D01*
X74573788Y-71404609D01*
X74490544Y-71506044D01*
X74389109Y-71589288D01*
X74353379Y-71618611D01*
X74353377Y-71618612D01*
X74196890Y-71702257D01*
X74140289Y-71719427D01*
X74027088Y-71753766D01*
X73938862Y-71762455D01*
X73894750Y-71766800D01*
X73806250Y-71766800D01*
X73762138Y-71762455D01*
X73673912Y-71753766D01*
X73560711Y-71719427D01*
X73504110Y-71702257D01*
X73347623Y-71618612D01*
X73347621Y-71618611D01*
X73311891Y-71589288D01*
X73210456Y-71506044D01*
X73127212Y-71404609D01*
X73097889Y-71368879D01*
X73088322Y-71350980D01*
X73014243Y-71212390D01*
X72971249Y-71070657D01*
X72962734Y-71042588D01*
X72945342Y-70866000D01*
X72962734Y-70689412D01*
X73014243Y-70519611D01*
X73014243Y-70519610D01*
X73097888Y-70363123D01*
X73097889Y-70363121D01*
X73127212Y-70327391D01*
X73210456Y-70225956D01*
X73311891Y-70142712D01*
X73347621Y-70113389D01*
X73365520Y-70103822D01*
X73504110Y-70029743D01*
X73560711Y-70012573D01*
X73673912Y-69978234D01*
X73762138Y-69969545D01*
X73806250Y-69965200D01*
X73894750Y-69965200D01*
X73938862Y-69969545D01*
X73938862Y-69969545D01*
G37*
G36*
X111350971Y-69676571D02*
X111491958Y-69734970D01*
X111618843Y-69819752D01*
X111726748Y-69927657D01*
X111811530Y-70054542D01*
X111869929Y-70195529D01*
X111899700Y-70345197D01*
X111899700Y-70497803D01*
X111869929Y-70647471D01*
X111811530Y-70788458D01*
X111726748Y-70915343D01*
X111618843Y-71023248D01*
X111491958Y-71108030D01*
X111350971Y-71166429D01*
X111201303Y-71196200D01*
X111048697Y-71196200D01*
X110899029Y-71166429D01*
X110758042Y-71108030D01*
X110631157Y-71023248D01*
X110523252Y-70915343D01*
X110438470Y-70788458D01*
X110380071Y-70647471D01*
X110350300Y-70497803D01*
X110350300Y-70345197D01*
X110380071Y-70195529D01*
X110438470Y-70054542D01*
X110523252Y-69927657D01*
X110631157Y-69819752D01*
X110758042Y-69734970D01*
X110899029Y-69676571D01*
X111048697Y-69646800D01*
X111201303Y-69646800D01*
X111350971Y-69676571D01*
X111350971Y-69676571D01*
G37*
G36*
X56613971Y-69676571D02*
X56754958Y-69734970D01*
X56881843Y-69819752D01*
X56989748Y-69927657D01*
X57074530Y-70054542D01*
X57132929Y-70195529D01*
X57162700Y-70345197D01*
X57162700Y-70497803D01*
X57132929Y-70647471D01*
X57074530Y-70788458D01*
X56989748Y-70915343D01*
X56881843Y-71023248D01*
X56754958Y-71108030D01*
X56613971Y-71166429D01*
X56464303Y-71196200D01*
X56311697Y-71196200D01*
X56162029Y-71166429D01*
X56021042Y-71108030D01*
X55894157Y-71023248D01*
X55786252Y-70915343D01*
X55701470Y-70788458D01*
X55643071Y-70647471D01*
X55613300Y-70497803D01*
X55613300Y-70345197D01*
X55643071Y-70195529D01*
X55701470Y-70054542D01*
X55786252Y-69927657D01*
X55894157Y-69819752D01*
X56021042Y-69734970D01*
X56162029Y-69676571D01*
X56311697Y-69646800D01*
X56464303Y-69646800D01*
X56613971Y-69676571D01*
X56613971Y-69676571D01*
G37*
G36*
X113890971Y-68533571D02*
X114031958Y-68591970D01*
X114158843Y-68676752D01*
X114266748Y-68784657D01*
X114351530Y-68911542D01*
X114409929Y-69052529D01*
X114439700Y-69202197D01*
X114439700Y-69354803D01*
X114409929Y-69504471D01*
X114351530Y-69645458D01*
X114266748Y-69772343D01*
X114158843Y-69880248D01*
X114031958Y-69965030D01*
X113890971Y-70023429D01*
X113741303Y-70053200D01*
X113588697Y-70053200D01*
X113439029Y-70023429D01*
X113298042Y-69965030D01*
X113171157Y-69880248D01*
X113063252Y-69772343D01*
X112978470Y-69645458D01*
X112920071Y-69504471D01*
X112890300Y-69354803D01*
X112890300Y-69202197D01*
X112920071Y-69052529D01*
X112978470Y-68911542D01*
X113063252Y-68784657D01*
X113171157Y-68676752D01*
X113298042Y-68591970D01*
X113439029Y-68533571D01*
X113588697Y-68503800D01*
X113741303Y-68503800D01*
X113890971Y-68533571D01*
X113890971Y-68533571D01*
G37*
G36*
X108810971Y-68533571D02*
X108951958Y-68591970D01*
X109078843Y-68676752D01*
X109186748Y-68784657D01*
X109271530Y-68911542D01*
X109329929Y-69052529D01*
X109359700Y-69202197D01*
X109359700Y-69354803D01*
X109329929Y-69504471D01*
X109271530Y-69645458D01*
X109186748Y-69772343D01*
X109078843Y-69880248D01*
X108951958Y-69965030D01*
X108810971Y-70023429D01*
X108661303Y-70053200D01*
X108508697Y-70053200D01*
X108359029Y-70023429D01*
X108218042Y-69965030D01*
X108091157Y-69880248D01*
X107983252Y-69772343D01*
X107898470Y-69645458D01*
X107840071Y-69504471D01*
X107810300Y-69354803D01*
X107810300Y-69202197D01*
X107840071Y-69052529D01*
X107898470Y-68911542D01*
X107983252Y-68784657D01*
X108091157Y-68676752D01*
X108218042Y-68591970D01*
X108359029Y-68533571D01*
X108508697Y-68503800D01*
X108661303Y-68503800D01*
X108810971Y-68533571D01*
X108810971Y-68533571D01*
G37*
G36*
X59153971Y-68533571D02*
X59294958Y-68591970D01*
X59421843Y-68676752D01*
X59529748Y-68784657D01*
X59614530Y-68911542D01*
X59672929Y-69052529D01*
X59702700Y-69202197D01*
X59702700Y-69354803D01*
X59672929Y-69504471D01*
X59614530Y-69645458D01*
X59529748Y-69772343D01*
X59421843Y-69880248D01*
X59294958Y-69965030D01*
X59153971Y-70023429D01*
X59004303Y-70053200D01*
X58851697Y-70053200D01*
X58702029Y-70023429D01*
X58561042Y-69965030D01*
X58434157Y-69880248D01*
X58326252Y-69772343D01*
X58241470Y-69645458D01*
X58183071Y-69504471D01*
X58153300Y-69354803D01*
X58153300Y-69202197D01*
X58183071Y-69052529D01*
X58241470Y-68911542D01*
X58326252Y-68784657D01*
X58434157Y-68676752D01*
X58561042Y-68591970D01*
X58702029Y-68533571D01*
X58851697Y-68503800D01*
X59004303Y-68503800D01*
X59153971Y-68533571D01*
X59153971Y-68533571D01*
G37*
G36*
X54073971Y-68533571D02*
X54214958Y-68591970D01*
X54341843Y-68676752D01*
X54449748Y-68784657D01*
X54534530Y-68911542D01*
X54592929Y-69052529D01*
X54622700Y-69202197D01*
X54622700Y-69354803D01*
X54592929Y-69504471D01*
X54534530Y-69645458D01*
X54449748Y-69772343D01*
X54341843Y-69880248D01*
X54214958Y-69965030D01*
X54073971Y-70023429D01*
X53924303Y-70053200D01*
X53771697Y-70053200D01*
X53622029Y-70023429D01*
X53481042Y-69965030D01*
X53354157Y-69880248D01*
X53246252Y-69772343D01*
X53161470Y-69645458D01*
X53103071Y-69504471D01*
X53073300Y-69354803D01*
X53073300Y-69202197D01*
X53103071Y-69052529D01*
X53161470Y-68911542D01*
X53246252Y-68784657D01*
X53354157Y-68676752D01*
X53481042Y-68591970D01*
X53622029Y-68533571D01*
X53771697Y-68503800D01*
X53924303Y-68503800D01*
X54073971Y-68533571D01*
X54073971Y-68533571D01*
G37*
G36*
X95401862Y-67429545D02*
X95490088Y-67438234D01*
X95603289Y-67472573D01*
X95659890Y-67489743D01*
X95742224Y-67533752D01*
X95816379Y-67573389D01*
X95852109Y-67602712D01*
X95953544Y-67685956D01*
X96020218Y-67767200D01*
X96066111Y-67823121D01*
X96066112Y-67823123D01*
X96149757Y-67979610D01*
X96149757Y-67979611D01*
X96201266Y-68149412D01*
X96218658Y-68326000D01*
X96201266Y-68502588D01*
X96200898Y-68503800D01*
X96149757Y-68672390D01*
X96147425Y-68676752D01*
X96066111Y-68828879D01*
X96036788Y-68864609D01*
X95953544Y-68966044D01*
X95852109Y-69049288D01*
X95816379Y-69078611D01*
X95816377Y-69078612D01*
X95659890Y-69162257D01*
X95603289Y-69179427D01*
X95490088Y-69213766D01*
X95401862Y-69222455D01*
X95357750Y-69226800D01*
X95269250Y-69226800D01*
X95225138Y-69222455D01*
X95136912Y-69213766D01*
X95023711Y-69179427D01*
X94967110Y-69162257D01*
X94810623Y-69078612D01*
X94810621Y-69078611D01*
X94774891Y-69049288D01*
X94673456Y-68966044D01*
X94590212Y-68864609D01*
X94560889Y-68828879D01*
X94479575Y-68676752D01*
X94477243Y-68672390D01*
X94426102Y-68503800D01*
X94425734Y-68502588D01*
X94408342Y-68326000D01*
X94425734Y-68149412D01*
X94477243Y-67979611D01*
X94477243Y-67979610D01*
X94560888Y-67823123D01*
X94560889Y-67823121D01*
X94606782Y-67767200D01*
X94673456Y-67685956D01*
X94774891Y-67602712D01*
X94810621Y-67573389D01*
X94884776Y-67533752D01*
X94967110Y-67489743D01*
X95023711Y-67472573D01*
X95136912Y-67438234D01*
X95225138Y-67429545D01*
X95269250Y-67425200D01*
X95357750Y-67425200D01*
X95401862Y-67429545D01*
X95401862Y-67429545D01*
G37*
G36*
X74751300Y-69226800D02*
X72949700Y-69226800D01*
X72949700Y-67425200D01*
X74751300Y-67425200D01*
X74751300Y-69226800D01*
X74751300Y-69226800D01*
G37*
G36*
X111350971Y-67390571D02*
X111491958Y-67448970D01*
X111618843Y-67533752D01*
X111726748Y-67641657D01*
X111811530Y-67768542D01*
X111869929Y-67909529D01*
X111899700Y-68059197D01*
X111899700Y-68211803D01*
X111869929Y-68361471D01*
X111811530Y-68502458D01*
X111726748Y-68629343D01*
X111618843Y-68737248D01*
X111491958Y-68822030D01*
X111350971Y-68880429D01*
X111201303Y-68910200D01*
X111048697Y-68910200D01*
X110899029Y-68880429D01*
X110758042Y-68822030D01*
X110631157Y-68737248D01*
X110523252Y-68629343D01*
X110438470Y-68502458D01*
X110380071Y-68361471D01*
X110350300Y-68211803D01*
X110350300Y-68059197D01*
X110380071Y-67909529D01*
X110438470Y-67768542D01*
X110523252Y-67641657D01*
X110631157Y-67533752D01*
X110758042Y-67448970D01*
X110899029Y-67390571D01*
X111048697Y-67360800D01*
X111201303Y-67360800D01*
X111350971Y-67390571D01*
X111350971Y-67390571D01*
G37*
G36*
X56613971Y-67390571D02*
X56754958Y-67448970D01*
X56881843Y-67533752D01*
X56989748Y-67641657D01*
X57074530Y-67768542D01*
X57132929Y-67909529D01*
X57162700Y-68059197D01*
X57162700Y-68211803D01*
X57132929Y-68361471D01*
X57074530Y-68502458D01*
X56989748Y-68629343D01*
X56881843Y-68737248D01*
X56754958Y-68822030D01*
X56613971Y-68880429D01*
X56464303Y-68910200D01*
X56311697Y-68910200D01*
X56162029Y-68880429D01*
X56021042Y-68822030D01*
X55894157Y-68737248D01*
X55786252Y-68629343D01*
X55701470Y-68502458D01*
X55643071Y-68361471D01*
X55613300Y-68211803D01*
X55613300Y-68059197D01*
X55643071Y-67909529D01*
X55701470Y-67768542D01*
X55786252Y-67641657D01*
X55894157Y-67533752D01*
X56021042Y-67448970D01*
X56162029Y-67390571D01*
X56311697Y-67360800D01*
X56464303Y-67360800D01*
X56613971Y-67390571D01*
X56613971Y-67390571D01*
G37*
G36*
X108810971Y-66247571D02*
X108951958Y-66305970D01*
X109078843Y-66390752D01*
X109186748Y-66498657D01*
X109271530Y-66625542D01*
X109329929Y-66766529D01*
X109359700Y-66916197D01*
X109359700Y-67068803D01*
X109329929Y-67218471D01*
X109271530Y-67359458D01*
X109186748Y-67486343D01*
X109078843Y-67594248D01*
X108951958Y-67679030D01*
X108810971Y-67737429D01*
X108661303Y-67767200D01*
X108508697Y-67767200D01*
X108359029Y-67737429D01*
X108218042Y-67679030D01*
X108091157Y-67594248D01*
X107983252Y-67486343D01*
X107898470Y-67359458D01*
X107840071Y-67218471D01*
X107810300Y-67068803D01*
X107810300Y-66916197D01*
X107840071Y-66766529D01*
X107898470Y-66625542D01*
X107983252Y-66498657D01*
X108091157Y-66390752D01*
X108218042Y-66305970D01*
X108359029Y-66247571D01*
X108508697Y-66217800D01*
X108661303Y-66217800D01*
X108810971Y-66247571D01*
X108810971Y-66247571D01*
G37*
G36*
X113890971Y-66247571D02*
X114031958Y-66305970D01*
X114158843Y-66390752D01*
X114266748Y-66498657D01*
X114351530Y-66625542D01*
X114409929Y-66766529D01*
X114439700Y-66916197D01*
X114439700Y-67068803D01*
X114409929Y-67218471D01*
X114351530Y-67359458D01*
X114266748Y-67486343D01*
X114158843Y-67594248D01*
X114031958Y-67679030D01*
X113890971Y-67737429D01*
X113741303Y-67767200D01*
X113588697Y-67767200D01*
X113439029Y-67737429D01*
X113298042Y-67679030D01*
X113171157Y-67594248D01*
X113063252Y-67486343D01*
X112978470Y-67359458D01*
X112920071Y-67218471D01*
X112890300Y-67068803D01*
X112890300Y-66916197D01*
X112920071Y-66766529D01*
X112978470Y-66625542D01*
X113063252Y-66498657D01*
X113171157Y-66390752D01*
X113298042Y-66305970D01*
X113439029Y-66247571D01*
X113588697Y-66217800D01*
X113741303Y-66217800D01*
X113890971Y-66247571D01*
X113890971Y-66247571D01*
G37*
G36*
X59153971Y-66247571D02*
X59294958Y-66305970D01*
X59421843Y-66390752D01*
X59529748Y-66498657D01*
X59614530Y-66625542D01*
X59672929Y-66766529D01*
X59702700Y-66916197D01*
X59702700Y-67068803D01*
X59672929Y-67218471D01*
X59614530Y-67359458D01*
X59529748Y-67486343D01*
X59421843Y-67594248D01*
X59294958Y-67679030D01*
X59153971Y-67737429D01*
X59004303Y-67767200D01*
X58851697Y-67767200D01*
X58702029Y-67737429D01*
X58561042Y-67679030D01*
X58434157Y-67594248D01*
X58326252Y-67486343D01*
X58241470Y-67359458D01*
X58183071Y-67218471D01*
X58153300Y-67068803D01*
X58153300Y-66916197D01*
X58183071Y-66766529D01*
X58241470Y-66625542D01*
X58326252Y-66498657D01*
X58434157Y-66390752D01*
X58561042Y-66305970D01*
X58702029Y-66247571D01*
X58851697Y-66217800D01*
X59004303Y-66217800D01*
X59153971Y-66247571D01*
X59153971Y-66247571D01*
G37*
G36*
X54073971Y-66247571D02*
X54214958Y-66305970D01*
X54341843Y-66390752D01*
X54449748Y-66498657D01*
X54534530Y-66625542D01*
X54592929Y-66766529D01*
X54622700Y-66916197D01*
X54622700Y-67068803D01*
X54592929Y-67218471D01*
X54534530Y-67359458D01*
X54449748Y-67486343D01*
X54341843Y-67594248D01*
X54214958Y-67679030D01*
X54073971Y-67737429D01*
X53924303Y-67767200D01*
X53771697Y-67767200D01*
X53622029Y-67737429D01*
X53481042Y-67679030D01*
X53354157Y-67594248D01*
X53246252Y-67486343D01*
X53161470Y-67359458D01*
X53103071Y-67218471D01*
X53073300Y-67068803D01*
X53073300Y-66916197D01*
X53103071Y-66766529D01*
X53161470Y-66625542D01*
X53246252Y-66498657D01*
X53354157Y-66390752D01*
X53481042Y-66305970D01*
X53622029Y-66247571D01*
X53771697Y-66217800D01*
X53924303Y-66217800D01*
X54073971Y-66247571D01*
X54073971Y-66247571D01*
G37*
G36*
X111350971Y-65104571D02*
X111491958Y-65162970D01*
X111618843Y-65247752D01*
X111726748Y-65355657D01*
X111811530Y-65482542D01*
X111869929Y-65623529D01*
X111899700Y-65773197D01*
X111899700Y-65925803D01*
X111869929Y-66075471D01*
X111811530Y-66216458D01*
X111726748Y-66343343D01*
X111618843Y-66451248D01*
X111491958Y-66536030D01*
X111350971Y-66594429D01*
X111201303Y-66624200D01*
X111048697Y-66624200D01*
X110899029Y-66594429D01*
X110758042Y-66536030D01*
X110631157Y-66451248D01*
X110523252Y-66343343D01*
X110438470Y-66216458D01*
X110380071Y-66075471D01*
X110350300Y-65925803D01*
X110350300Y-65773197D01*
X110380071Y-65623529D01*
X110438470Y-65482542D01*
X110523252Y-65355657D01*
X110631157Y-65247752D01*
X110758042Y-65162970D01*
X110899029Y-65104571D01*
X111048697Y-65074800D01*
X111201303Y-65074800D01*
X111350971Y-65104571D01*
X111350971Y-65104571D01*
G37*
G36*
X56613971Y-65104571D02*
X56754958Y-65162970D01*
X56881843Y-65247752D01*
X56989748Y-65355657D01*
X57074530Y-65482542D01*
X57132929Y-65623529D01*
X57162700Y-65773197D01*
X57162700Y-65925803D01*
X57132929Y-66075471D01*
X57074530Y-66216458D01*
X56989748Y-66343343D01*
X56881843Y-66451248D01*
X56754958Y-66536030D01*
X56613971Y-66594429D01*
X56464303Y-66624200D01*
X56311697Y-66624200D01*
X56162029Y-66594429D01*
X56021042Y-66536030D01*
X55894157Y-66451248D01*
X55786252Y-66343343D01*
X55701470Y-66216458D01*
X55643071Y-66075471D01*
X55613300Y-65925803D01*
X55613300Y-65773197D01*
X55643071Y-65623529D01*
X55701470Y-65482542D01*
X55786252Y-65355657D01*
X55894157Y-65247752D01*
X56021042Y-65162970D01*
X56162029Y-65104571D01*
X56311697Y-65074800D01*
X56464303Y-65074800D01*
X56613971Y-65104571D01*
X56613971Y-65104571D01*
G37*
G36*
X113890971Y-63961571D02*
X114031958Y-64019970D01*
X114158843Y-64104752D01*
X114266748Y-64212657D01*
X114351530Y-64339542D01*
X114409929Y-64480529D01*
X114439700Y-64630197D01*
X114439700Y-64782803D01*
X114409929Y-64932471D01*
X114351530Y-65073458D01*
X114266748Y-65200343D01*
X114158843Y-65308248D01*
X114031958Y-65393030D01*
X113890971Y-65451429D01*
X113741303Y-65481200D01*
X113588697Y-65481200D01*
X113439029Y-65451429D01*
X113298042Y-65393030D01*
X113171157Y-65308248D01*
X113063252Y-65200343D01*
X112978470Y-65073458D01*
X112920071Y-64932471D01*
X112890300Y-64782803D01*
X112890300Y-64630197D01*
X112920071Y-64480529D01*
X112978470Y-64339542D01*
X113063252Y-64212657D01*
X113171157Y-64104752D01*
X113298042Y-64019970D01*
X113439029Y-63961571D01*
X113588697Y-63931800D01*
X113741303Y-63931800D01*
X113890971Y-63961571D01*
X113890971Y-63961571D01*
G37*
G36*
X108810971Y-63961571D02*
X108951958Y-64019970D01*
X109078843Y-64104752D01*
X109186748Y-64212657D01*
X109271530Y-64339542D01*
X109329929Y-64480529D01*
X109359700Y-64630197D01*
X109359700Y-64782803D01*
X109329929Y-64932471D01*
X109271530Y-65073458D01*
X109186748Y-65200343D01*
X109078843Y-65308248D01*
X108951958Y-65393030D01*
X108810971Y-65451429D01*
X108661303Y-65481200D01*
X108508697Y-65481200D01*
X108359029Y-65451429D01*
X108218042Y-65393030D01*
X108091157Y-65308248D01*
X107983252Y-65200343D01*
X107898470Y-65073458D01*
X107840071Y-64932471D01*
X107810300Y-64782803D01*
X107810300Y-64630197D01*
X107840071Y-64480529D01*
X107898470Y-64339542D01*
X107983252Y-64212657D01*
X108091157Y-64104752D01*
X108218042Y-64019970D01*
X108359029Y-63961571D01*
X108508697Y-63931800D01*
X108661303Y-63931800D01*
X108810971Y-63961571D01*
X108810971Y-63961571D01*
G37*
G36*
X54073971Y-63961571D02*
X54214958Y-64019970D01*
X54341843Y-64104752D01*
X54449748Y-64212657D01*
X54534530Y-64339542D01*
X54592929Y-64480529D01*
X54622700Y-64630197D01*
X54622700Y-64782803D01*
X54592929Y-64932471D01*
X54534530Y-65073458D01*
X54449748Y-65200343D01*
X54341843Y-65308248D01*
X54214958Y-65393030D01*
X54073971Y-65451429D01*
X53924303Y-65481200D01*
X53771697Y-65481200D01*
X53622029Y-65451429D01*
X53481042Y-65393030D01*
X53354157Y-65308248D01*
X53246252Y-65200343D01*
X53161470Y-65073458D01*
X53103071Y-64932471D01*
X53073300Y-64782803D01*
X53073300Y-64630197D01*
X53103071Y-64480529D01*
X53161470Y-64339542D01*
X53246252Y-64212657D01*
X53354157Y-64104752D01*
X53481042Y-64019970D01*
X53622029Y-63961571D01*
X53771697Y-63931800D01*
X53924303Y-63931800D01*
X54073971Y-63961571D01*
X54073971Y-63961571D01*
G37*
G36*
X59153971Y-63961571D02*
X59294958Y-64019970D01*
X59421843Y-64104752D01*
X59529748Y-64212657D01*
X59614530Y-64339542D01*
X59672929Y-64480529D01*
X59702700Y-64630197D01*
X59702700Y-64782803D01*
X59672929Y-64932471D01*
X59614530Y-65073458D01*
X59529748Y-65200343D01*
X59421843Y-65308248D01*
X59294958Y-65393030D01*
X59153971Y-65451429D01*
X59004303Y-65481200D01*
X58851697Y-65481200D01*
X58702029Y-65451429D01*
X58561042Y-65393030D01*
X58434157Y-65308248D01*
X58326252Y-65200343D01*
X58241470Y-65073458D01*
X58183071Y-64932471D01*
X58153300Y-64782803D01*
X58153300Y-64630197D01*
X58183071Y-64480529D01*
X58241470Y-64339542D01*
X58326252Y-64212657D01*
X58434157Y-64104752D01*
X58561042Y-64019970D01*
X58702029Y-63961571D01*
X58851697Y-63931800D01*
X59004303Y-63931800D01*
X59153971Y-63961571D01*
X59153971Y-63961571D01*
G37*
G36*
X102160507Y-59035182D02*
X102351740Y-59114393D01*
X102522687Y-59228616D01*
X102523849Y-59229393D01*
X102670207Y-59375751D01*
X102670209Y-59375754D01*
X102785207Y-59547860D01*
X102864418Y-59739093D01*
X102904800Y-59942105D01*
X102904800Y-60149095D01*
X102864418Y-60352107D01*
X102785207Y-60543340D01*
X102670984Y-60714287D01*
X102670207Y-60715449D01*
X102523849Y-60861807D01*
X102523846Y-60861809D01*
X102351740Y-60976807D01*
X102160507Y-61056018D01*
X101957495Y-61096400D01*
X101750505Y-61096400D01*
X101547493Y-61056018D01*
X101356260Y-60976807D01*
X101184154Y-60861809D01*
X101184151Y-60861807D01*
X101037793Y-60715449D01*
X101037016Y-60714287D01*
X100922793Y-60543340D01*
X100843582Y-60352107D01*
X100803200Y-60149095D01*
X100803200Y-59942105D01*
X100843582Y-59739093D01*
X100922793Y-59547860D01*
X101037791Y-59375754D01*
X101037793Y-59375751D01*
X101184151Y-59229393D01*
X101185313Y-59228616D01*
X101356260Y-59114393D01*
X101547493Y-59035182D01*
X101750505Y-58994800D01*
X101957495Y-58994800D01*
X102160507Y-59035182D01*
X102160507Y-59035182D01*
G37*
G36*
X65993307Y-59035182D02*
X66184540Y-59114393D01*
X66355487Y-59228616D01*
X66356649Y-59229393D01*
X66503007Y-59375751D01*
X66503009Y-59375754D01*
X66618007Y-59547860D01*
X66697218Y-59739093D01*
X66737600Y-59942105D01*
X66737600Y-60149095D01*
X66697218Y-60352107D01*
X66618007Y-60543340D01*
X66503784Y-60714287D01*
X66503007Y-60715449D01*
X66356649Y-60861807D01*
X66356646Y-60861809D01*
X66184540Y-60976807D01*
X65993307Y-61056018D01*
X65790295Y-61096400D01*
X65583305Y-61096400D01*
X65380293Y-61056018D01*
X65189060Y-60976807D01*
X65016954Y-60861809D01*
X65016951Y-60861807D01*
X64870593Y-60715449D01*
X64869816Y-60714287D01*
X64755593Y-60543340D01*
X64676382Y-60352107D01*
X64636000Y-60149095D01*
X64636000Y-59942105D01*
X64676382Y-59739093D01*
X64755593Y-59547860D01*
X64870591Y-59375754D01*
X64870593Y-59375751D01*
X65016951Y-59229393D01*
X65018113Y-59228616D01*
X65189060Y-59114393D01*
X65380293Y-59035182D01*
X65583305Y-58994800D01*
X65790295Y-58994800D01*
X65993307Y-59035182D01*
X65993307Y-59035182D01*
G37*
G36*
X72493307Y-59035182D02*
X72684540Y-59114393D01*
X72855487Y-59228616D01*
X72856649Y-59229393D01*
X73003007Y-59375751D01*
X73003009Y-59375754D01*
X73118007Y-59547860D01*
X73197218Y-59739093D01*
X73237600Y-59942105D01*
X73237600Y-60149095D01*
X73197218Y-60352107D01*
X73118007Y-60543340D01*
X73003784Y-60714287D01*
X73003007Y-60715449D01*
X72856649Y-60861807D01*
X72856646Y-60861809D01*
X72684540Y-60976807D01*
X72493307Y-61056018D01*
X72290295Y-61096400D01*
X72083305Y-61096400D01*
X71880293Y-61056018D01*
X71689060Y-60976807D01*
X71516954Y-60861809D01*
X71516951Y-60861807D01*
X71370593Y-60715449D01*
X71369816Y-60714287D01*
X71255593Y-60543340D01*
X71176382Y-60352107D01*
X71136000Y-60149095D01*
X71136000Y-59942105D01*
X71176382Y-59739093D01*
X71255593Y-59547860D01*
X71370591Y-59375754D01*
X71370593Y-59375751D01*
X71516951Y-59229393D01*
X71518113Y-59228616D01*
X71689060Y-59114393D01*
X71880293Y-59035182D01*
X72083305Y-58994800D01*
X72290295Y-58994800D01*
X72493307Y-59035182D01*
X72493307Y-59035182D01*
G37*
G36*
X76051707Y-59035182D02*
X76242940Y-59114393D01*
X76413887Y-59228616D01*
X76415049Y-59229393D01*
X76561407Y-59375751D01*
X76561409Y-59375754D01*
X76676407Y-59547860D01*
X76755618Y-59739093D01*
X76796000Y-59942105D01*
X76796000Y-60149095D01*
X76755618Y-60352107D01*
X76676407Y-60543340D01*
X76562184Y-60714287D01*
X76561407Y-60715449D01*
X76415049Y-60861807D01*
X76415046Y-60861809D01*
X76242940Y-60976807D01*
X76051707Y-61056018D01*
X75848695Y-61096400D01*
X75641705Y-61096400D01*
X75438693Y-61056018D01*
X75247460Y-60976807D01*
X75075354Y-60861809D01*
X75075351Y-60861807D01*
X74928993Y-60715449D01*
X74928216Y-60714287D01*
X74813993Y-60543340D01*
X74734782Y-60352107D01*
X74694400Y-60149095D01*
X74694400Y-59942105D01*
X74734782Y-59739093D01*
X74813993Y-59547860D01*
X74928991Y-59375754D01*
X74928993Y-59375751D01*
X75075351Y-59229393D01*
X75076513Y-59228616D01*
X75247460Y-59114393D01*
X75438693Y-59035182D01*
X75641705Y-58994800D01*
X75848695Y-58994800D01*
X76051707Y-59035182D01*
X76051707Y-59035182D01*
G37*
G36*
X82551707Y-59035182D02*
X82742940Y-59114393D01*
X82913887Y-59228616D01*
X82915049Y-59229393D01*
X83061407Y-59375751D01*
X83061409Y-59375754D01*
X83176407Y-59547860D01*
X83255618Y-59739093D01*
X83296000Y-59942105D01*
X83296000Y-60149095D01*
X83255618Y-60352107D01*
X83176407Y-60543340D01*
X83062184Y-60714287D01*
X83061407Y-60715449D01*
X82915049Y-60861807D01*
X82915046Y-60861809D01*
X82742940Y-60976807D01*
X82551707Y-61056018D01*
X82348695Y-61096400D01*
X82141705Y-61096400D01*
X81938693Y-61056018D01*
X81747460Y-60976807D01*
X81575354Y-60861809D01*
X81575351Y-60861807D01*
X81428993Y-60715449D01*
X81428216Y-60714287D01*
X81313993Y-60543340D01*
X81234782Y-60352107D01*
X81194400Y-60149095D01*
X81194400Y-59942105D01*
X81234782Y-59739093D01*
X81313993Y-59547860D01*
X81428991Y-59375754D01*
X81428993Y-59375751D01*
X81575351Y-59229393D01*
X81576513Y-59228616D01*
X81747460Y-59114393D01*
X81938693Y-59035182D01*
X82141705Y-58994800D01*
X82348695Y-58994800D01*
X82551707Y-59035182D01*
X82551707Y-59035182D01*
G37*
G36*
X85805307Y-59035182D02*
X85996540Y-59114393D01*
X86167487Y-59228616D01*
X86168649Y-59229393D01*
X86315007Y-59375751D01*
X86315009Y-59375754D01*
X86430007Y-59547860D01*
X86509218Y-59739093D01*
X86549600Y-59942105D01*
X86549600Y-60149095D01*
X86509218Y-60352107D01*
X86430007Y-60543340D01*
X86315784Y-60714287D01*
X86315007Y-60715449D01*
X86168649Y-60861807D01*
X86168646Y-60861809D01*
X85996540Y-60976807D01*
X85805307Y-61056018D01*
X85602295Y-61096400D01*
X85395305Y-61096400D01*
X85192293Y-61056018D01*
X85001060Y-60976807D01*
X84828954Y-60861809D01*
X84828951Y-60861807D01*
X84682593Y-60715449D01*
X84681816Y-60714287D01*
X84567593Y-60543340D01*
X84488382Y-60352107D01*
X84448000Y-60149095D01*
X84448000Y-59942105D01*
X84488382Y-59739093D01*
X84567593Y-59547860D01*
X84682591Y-59375754D01*
X84682593Y-59375751D01*
X84828951Y-59229393D01*
X84830113Y-59228616D01*
X85001060Y-59114393D01*
X85192293Y-59035182D01*
X85395305Y-58994800D01*
X85602295Y-58994800D01*
X85805307Y-59035182D01*
X85805307Y-59035182D01*
G37*
G36*
X92305307Y-59035182D02*
X92496540Y-59114393D01*
X92667487Y-59228616D01*
X92668649Y-59229393D01*
X92815007Y-59375751D01*
X92815009Y-59375754D01*
X92930007Y-59547860D01*
X93009218Y-59739093D01*
X93049600Y-59942105D01*
X93049600Y-60149095D01*
X93009218Y-60352107D01*
X92930007Y-60543340D01*
X92815784Y-60714287D01*
X92815007Y-60715449D01*
X92668649Y-60861807D01*
X92668646Y-60861809D01*
X92496540Y-60976807D01*
X92305307Y-61056018D01*
X92102295Y-61096400D01*
X91895305Y-61096400D01*
X91692293Y-61056018D01*
X91501060Y-60976807D01*
X91328954Y-60861809D01*
X91328951Y-60861807D01*
X91182593Y-60715449D01*
X91181816Y-60714287D01*
X91067593Y-60543340D01*
X90988382Y-60352107D01*
X90948000Y-60149095D01*
X90948000Y-59942105D01*
X90988382Y-59739093D01*
X91067593Y-59547860D01*
X91182591Y-59375754D01*
X91182593Y-59375751D01*
X91328951Y-59229393D01*
X91330113Y-59228616D01*
X91501060Y-59114393D01*
X91692293Y-59035182D01*
X91895305Y-58994800D01*
X92102295Y-58994800D01*
X92305307Y-59035182D01*
X92305307Y-59035182D01*
G37*
G36*
X95660507Y-59035182D02*
X95851740Y-59114393D01*
X96022687Y-59228616D01*
X96023849Y-59229393D01*
X96170207Y-59375751D01*
X96170209Y-59375754D01*
X96285207Y-59547860D01*
X96364418Y-59739093D01*
X96404800Y-59942105D01*
X96404800Y-60149095D01*
X96364418Y-60352107D01*
X96285207Y-60543340D01*
X96170984Y-60714287D01*
X96170207Y-60715449D01*
X96023849Y-60861807D01*
X96023846Y-60861809D01*
X95851740Y-60976807D01*
X95660507Y-61056018D01*
X95457495Y-61096400D01*
X95250505Y-61096400D01*
X95047493Y-61056018D01*
X94856260Y-60976807D01*
X94684154Y-60861809D01*
X94684151Y-60861807D01*
X94537793Y-60715449D01*
X94537016Y-60714287D01*
X94422793Y-60543340D01*
X94343582Y-60352107D01*
X94303200Y-60149095D01*
X94303200Y-59942105D01*
X94343582Y-59739093D01*
X94422793Y-59547860D01*
X94537791Y-59375754D01*
X94537793Y-59375751D01*
X94684151Y-59229393D01*
X94685313Y-59228616D01*
X94856260Y-59114393D01*
X95047493Y-59035182D01*
X95250505Y-58994800D01*
X95457495Y-58994800D01*
X95660507Y-59035182D01*
X95660507Y-59035182D01*
G37*
G36*
X111584352Y-55521418D02*
X111870948Y-55640130D01*
X111884365Y-55649095D01*
X112128880Y-55812475D01*
X112348225Y-56031820D01*
X112520571Y-56289754D01*
X112639282Y-56576348D01*
X112699800Y-56880594D01*
X112699800Y-57190806D01*
X112639282Y-57495052D01*
X112520571Y-57781646D01*
X112348225Y-58039580D01*
X112128880Y-58258925D01*
X112128877Y-58258927D01*
X111870948Y-58431270D01*
X111870947Y-58431271D01*
X111870946Y-58431271D01*
X111584352Y-58549982D01*
X111280106Y-58610500D01*
X110969894Y-58610500D01*
X110665648Y-58549982D01*
X110379054Y-58431271D01*
X110379053Y-58431271D01*
X110379052Y-58431270D01*
X110121123Y-58258927D01*
X110121120Y-58258925D01*
X109901775Y-58039580D01*
X109729429Y-57781646D01*
X109610718Y-57495052D01*
X109550200Y-57190806D01*
X109550200Y-56880594D01*
X109610718Y-56576348D01*
X109729429Y-56289754D01*
X109901775Y-56031820D01*
X110121120Y-55812475D01*
X110365635Y-55649095D01*
X110379052Y-55640130D01*
X110665648Y-55521418D01*
X110969894Y-55460900D01*
X111280106Y-55460900D01*
X111584352Y-55521418D01*
X111584352Y-55521418D01*
G37*
G36*
X56847352Y-55521418D02*
X57133948Y-55640130D01*
X57147365Y-55649095D01*
X57391880Y-55812475D01*
X57611225Y-56031820D01*
X57783571Y-56289754D01*
X57902282Y-56576348D01*
X57962800Y-56880594D01*
X57962800Y-57190806D01*
X57902282Y-57495052D01*
X57783571Y-57781646D01*
X57611225Y-58039580D01*
X57391880Y-58258925D01*
X57391877Y-58258927D01*
X57133948Y-58431270D01*
X57133947Y-58431271D01*
X57133946Y-58431271D01*
X56847352Y-58549982D01*
X56543106Y-58610500D01*
X56232894Y-58610500D01*
X55928648Y-58549982D01*
X55642054Y-58431271D01*
X55642053Y-58431271D01*
X55642052Y-58431270D01*
X55384123Y-58258927D01*
X55384120Y-58258925D01*
X55164775Y-58039580D01*
X54992429Y-57781646D01*
X54873718Y-57495052D01*
X54813200Y-57190806D01*
X54813200Y-56880594D01*
X54873718Y-56576348D01*
X54992429Y-56289754D01*
X55164775Y-56031820D01*
X55384120Y-55812475D01*
X55628635Y-55649095D01*
X55642052Y-55640130D01*
X55928648Y-55521418D01*
X56232894Y-55460900D01*
X56543106Y-55460900D01*
X56847352Y-55521418D01*
X56847352Y-55521418D01*
G37*
G36*
X65993307Y-54535182D02*
X66184540Y-54614393D01*
X66355487Y-54728616D01*
X66356649Y-54729393D01*
X66503007Y-54875751D01*
X66503009Y-54875754D01*
X66618007Y-55047860D01*
X66697218Y-55239093D01*
X66737600Y-55442105D01*
X66737600Y-55649095D01*
X66697218Y-55852107D01*
X66618007Y-56043340D01*
X66503784Y-56214287D01*
X66503007Y-56215449D01*
X66356649Y-56361807D01*
X66356646Y-56361809D01*
X66184540Y-56476807D01*
X65993307Y-56556018D01*
X65790295Y-56596400D01*
X65583305Y-56596400D01*
X65380293Y-56556018D01*
X65189060Y-56476807D01*
X65016954Y-56361809D01*
X65016951Y-56361807D01*
X64870593Y-56215449D01*
X64869816Y-56214287D01*
X64755593Y-56043340D01*
X64676382Y-55852107D01*
X64636000Y-55649095D01*
X64636000Y-55442105D01*
X64676382Y-55239093D01*
X64755593Y-55047860D01*
X64870591Y-54875754D01*
X64870593Y-54875751D01*
X65016951Y-54729393D01*
X65018113Y-54728616D01*
X65189060Y-54614393D01*
X65380293Y-54535182D01*
X65583305Y-54494800D01*
X65790295Y-54494800D01*
X65993307Y-54535182D01*
X65993307Y-54535182D01*
G37*
G36*
X72493307Y-54535182D02*
X72684540Y-54614393D01*
X72855487Y-54728616D01*
X72856649Y-54729393D01*
X73003007Y-54875751D01*
X73003009Y-54875754D01*
X73118007Y-55047860D01*
X73197218Y-55239093D01*
X73237600Y-55442105D01*
X73237600Y-55649095D01*
X73197218Y-55852107D01*
X73118007Y-56043340D01*
X73003784Y-56214287D01*
X73003007Y-56215449D01*
X72856649Y-56361807D01*
X72856646Y-56361809D01*
X72684540Y-56476807D01*
X72493307Y-56556018D01*
X72290295Y-56596400D01*
X72083305Y-56596400D01*
X71880293Y-56556018D01*
X71689060Y-56476807D01*
X71516954Y-56361809D01*
X71516951Y-56361807D01*
X71370593Y-56215449D01*
X71369816Y-56214287D01*
X71255593Y-56043340D01*
X71176382Y-55852107D01*
X71136000Y-55649095D01*
X71136000Y-55442105D01*
X71176382Y-55239093D01*
X71255593Y-55047860D01*
X71370591Y-54875754D01*
X71370593Y-54875751D01*
X71516951Y-54729393D01*
X71518113Y-54728616D01*
X71689060Y-54614393D01*
X71880293Y-54535182D01*
X72083305Y-54494800D01*
X72290295Y-54494800D01*
X72493307Y-54535182D01*
X72493307Y-54535182D01*
G37*
G36*
X82551707Y-54535182D02*
X82742940Y-54614393D01*
X82913887Y-54728616D01*
X82915049Y-54729393D01*
X83061407Y-54875751D01*
X83061409Y-54875754D01*
X83176407Y-55047860D01*
X83255618Y-55239093D01*
X83296000Y-55442105D01*
X83296000Y-55649095D01*
X83255618Y-55852107D01*
X83176407Y-56043340D01*
X83062184Y-56214287D01*
X83061407Y-56215449D01*
X82915049Y-56361807D01*
X82915046Y-56361809D01*
X82742940Y-56476807D01*
X82551707Y-56556018D01*
X82348695Y-56596400D01*
X82141705Y-56596400D01*
X81938693Y-56556018D01*
X81747460Y-56476807D01*
X81575354Y-56361809D01*
X81575351Y-56361807D01*
X81428993Y-56215449D01*
X81428216Y-56214287D01*
X81313993Y-56043340D01*
X81234782Y-55852107D01*
X81194400Y-55649095D01*
X81194400Y-55442105D01*
X81234782Y-55239093D01*
X81313993Y-55047860D01*
X81428991Y-54875754D01*
X81428993Y-54875751D01*
X81575351Y-54729393D01*
X81576513Y-54728616D01*
X81747460Y-54614393D01*
X81938693Y-54535182D01*
X82141705Y-54494800D01*
X82348695Y-54494800D01*
X82551707Y-54535182D01*
X82551707Y-54535182D01*
G37*
G36*
X76051707Y-54535182D02*
X76242940Y-54614393D01*
X76413887Y-54728616D01*
X76415049Y-54729393D01*
X76561407Y-54875751D01*
X76561409Y-54875754D01*
X76676407Y-55047860D01*
X76755618Y-55239093D01*
X76796000Y-55442105D01*
X76796000Y-55649095D01*
X76755618Y-55852107D01*
X76676407Y-56043340D01*
X76562184Y-56214287D01*
X76561407Y-56215449D01*
X76415049Y-56361807D01*
X76415046Y-56361809D01*
X76242940Y-56476807D01*
X76051707Y-56556018D01*
X75848695Y-56596400D01*
X75641705Y-56596400D01*
X75438693Y-56556018D01*
X75247460Y-56476807D01*
X75075354Y-56361809D01*
X75075351Y-56361807D01*
X74928993Y-56215449D01*
X74928216Y-56214287D01*
X74813993Y-56043340D01*
X74734782Y-55852107D01*
X74694400Y-55649095D01*
X74694400Y-55442105D01*
X74734782Y-55239093D01*
X74813993Y-55047860D01*
X74928991Y-54875754D01*
X74928993Y-54875751D01*
X75075351Y-54729393D01*
X75076513Y-54728616D01*
X75247460Y-54614393D01*
X75438693Y-54535182D01*
X75641705Y-54494800D01*
X75848695Y-54494800D01*
X76051707Y-54535182D01*
X76051707Y-54535182D01*
G37*
G36*
X85805307Y-54535182D02*
X85996540Y-54614393D01*
X86167487Y-54728616D01*
X86168649Y-54729393D01*
X86315007Y-54875751D01*
X86315009Y-54875754D01*
X86430007Y-55047860D01*
X86509218Y-55239093D01*
X86549600Y-55442105D01*
X86549600Y-55649095D01*
X86509218Y-55852107D01*
X86430007Y-56043340D01*
X86315784Y-56214287D01*
X86315007Y-56215449D01*
X86168649Y-56361807D01*
X86168646Y-56361809D01*
X85996540Y-56476807D01*
X85805307Y-56556018D01*
X85602295Y-56596400D01*
X85395305Y-56596400D01*
X85192293Y-56556018D01*
X85001060Y-56476807D01*
X84828954Y-56361809D01*
X84828951Y-56361807D01*
X84682593Y-56215449D01*
X84681816Y-56214287D01*
X84567593Y-56043340D01*
X84488382Y-55852107D01*
X84448000Y-55649095D01*
X84448000Y-55442105D01*
X84488382Y-55239093D01*
X84567593Y-55047860D01*
X84682591Y-54875754D01*
X84682593Y-54875751D01*
X84828951Y-54729393D01*
X84830113Y-54728616D01*
X85001060Y-54614393D01*
X85192293Y-54535182D01*
X85395305Y-54494800D01*
X85602295Y-54494800D01*
X85805307Y-54535182D01*
X85805307Y-54535182D01*
G37*
G36*
X102160507Y-54535182D02*
X102351740Y-54614393D01*
X102522687Y-54728616D01*
X102523849Y-54729393D01*
X102670207Y-54875751D01*
X102670209Y-54875754D01*
X102785207Y-55047860D01*
X102864418Y-55239093D01*
X102904800Y-55442105D01*
X102904800Y-55649095D01*
X102864418Y-55852107D01*
X102785207Y-56043340D01*
X102670984Y-56214287D01*
X102670207Y-56215449D01*
X102523849Y-56361807D01*
X102523846Y-56361809D01*
X102351740Y-56476807D01*
X102160507Y-56556018D01*
X101957495Y-56596400D01*
X101750505Y-56596400D01*
X101547493Y-56556018D01*
X101356260Y-56476807D01*
X101184154Y-56361809D01*
X101184151Y-56361807D01*
X101037793Y-56215449D01*
X101037016Y-56214287D01*
X100922793Y-56043340D01*
X100843582Y-55852107D01*
X100803200Y-55649095D01*
X100803200Y-55442105D01*
X100843582Y-55239093D01*
X100922793Y-55047860D01*
X101037791Y-54875754D01*
X101037793Y-54875751D01*
X101184151Y-54729393D01*
X101185313Y-54728616D01*
X101356260Y-54614393D01*
X101547493Y-54535182D01*
X101750505Y-54494800D01*
X101957495Y-54494800D01*
X102160507Y-54535182D01*
X102160507Y-54535182D01*
G37*
G36*
X95660507Y-54535182D02*
X95851740Y-54614393D01*
X96022687Y-54728616D01*
X96023849Y-54729393D01*
X96170207Y-54875751D01*
X96170209Y-54875754D01*
X96285207Y-55047860D01*
X96364418Y-55239093D01*
X96404800Y-55442105D01*
X96404800Y-55649095D01*
X96364418Y-55852107D01*
X96285207Y-56043340D01*
X96170984Y-56214287D01*
X96170207Y-56215449D01*
X96023849Y-56361807D01*
X96023846Y-56361809D01*
X95851740Y-56476807D01*
X95660507Y-56556018D01*
X95457495Y-56596400D01*
X95250505Y-56596400D01*
X95047493Y-56556018D01*
X94856260Y-56476807D01*
X94684154Y-56361809D01*
X94684151Y-56361807D01*
X94537793Y-56215449D01*
X94537016Y-56214287D01*
X94422793Y-56043340D01*
X94343582Y-55852107D01*
X94303200Y-55649095D01*
X94303200Y-55442105D01*
X94343582Y-55239093D01*
X94422793Y-55047860D01*
X94537791Y-54875754D01*
X94537793Y-54875751D01*
X94684151Y-54729393D01*
X94685313Y-54728616D01*
X94856260Y-54614393D01*
X95047493Y-54535182D01*
X95250505Y-54494800D01*
X95457495Y-54494800D01*
X95660507Y-54535182D01*
X95660507Y-54535182D01*
G37*
G36*
X92305307Y-54535182D02*
X92496540Y-54614393D01*
X92667487Y-54728616D01*
X92668649Y-54729393D01*
X92815007Y-54875751D01*
X92815009Y-54875754D01*
X92930007Y-55047860D01*
X93009218Y-55239093D01*
X93049600Y-55442105D01*
X93049600Y-55649095D01*
X93009218Y-55852107D01*
X92930007Y-56043340D01*
X92815784Y-56214287D01*
X92815007Y-56215449D01*
X92668649Y-56361807D01*
X92668646Y-56361809D01*
X92496540Y-56476807D01*
X92305307Y-56556018D01*
X92102295Y-56596400D01*
X91895305Y-56596400D01*
X91692293Y-56556018D01*
X91501060Y-56476807D01*
X91328954Y-56361809D01*
X91328951Y-56361807D01*
X91182593Y-56215449D01*
X91181816Y-56214287D01*
X91067593Y-56043340D01*
X90988382Y-55852107D01*
X90948000Y-55649095D01*
X90948000Y-55442105D01*
X90988382Y-55239093D01*
X91067593Y-55047860D01*
X91182591Y-54875754D01*
X91182593Y-54875751D01*
X91328951Y-54729393D01*
X91330113Y-54728616D01*
X91501060Y-54614393D01*
X91692293Y-54535182D01*
X91895305Y-54494800D01*
X92102295Y-54494800D01*
X92305307Y-54535182D01*
X92305307Y-54535182D01*
G37*
M02*
